<?xml version="1.0" standalone="no"?><!DOCTYPE svg PUBLIC "-//W3C//DTD SVG 1.1//EN" "http://www.w3.org/Graphics/SVG/1.1/DTD/svg11.dtd"><svg xmlns:xlink="http://www.w3.org/1999/xlink" xmlns="http://www.w3.org/2000/svg" version="1.1" width="1362" height="450"><defs><clipPath id="highcharts-32"><rect rx="0" ry="0" fill="none" x="0" y="0" width="1278" height="375" stroke-width="0.000001"></rect></clipPath></defs><rect rx="5" ry="5" fill="#FFFFFF" x="0" y="0" width="1362" height="450" stroke-width="0.000001" stroke="#4572A7"></rect><g class="highcharts-grid" ></g><g class="highcharts-grid" ></g><g class="highcharts-series-group" ><g class="highcharts-series" visibility="visible" transform="translate(74,20)" clip-path="url(#highcharts-32)"><path d="M 12.5 374 L 27.7 374 L 42.7 374 L 57.8 374 L 72.9 374 L 88 374 L 103.1 255.3 L 118.2 227.3 L 133.3 374 L 148.4 246.8 L 163.5 374 L 178.6 250.6 L 193.7 374 L 208.8 374 L 223.9 246.8 L 239 255.3 L 254.1 374 L 269.2 374 L 284.3 271 L 299.4 281.7 L 314.4 280.3 L 329.6 285.6 L 344.7 211 L 359.7 292 L 374.8 374 L 389.9 255.3 L 405 319.8 L 420.1 374 L 435.2 320.7 L 450.3 374 L 465.4 314.9 L 480.5 374 L 495.6 374 L 510.7 312 L 525.8 297 L 540.9 307.9 L 556 352.4 L 571.1 374 L 586.2 350.1 L 601.3 345.9 L 616.4 374 L 631.5 342.5 L 646.6 374 L 661.6 347.2 L 676.7 315.6 L 691.9 310.2 L 706.9 374 L 722 319.4 L 737.1 346.9 L 752.2 341 L 767.3 342.3 L 782.4 346.7 L 797.5 323 L 812.6 374 L 827.7 337 L 842.8 331.1 L 857.9 374 L 873 354.1 L 888.1 322.6 L 903.2 320.8 L 918.3 374 L 933.4 358.8 L 948.5 374 L 963.6 374 L 978.6 343.8 L 993.8 345.9 L 1008.9 356.9 L 1023.9 357.2 L 1039 351.9 L 1054.2 347.5 L 1069.2 329.2 L 1084.3 353.7 L 1099.4 359.9 L 1114.5 361.7 L 1129.6 339 L 1144.7 348.7 L 1159.8 342 L 1174.9 347.5 L 1190 347.6 L 1205.1 346.9 L 1220.2 339.2 L 1235.3 344.7 L 1250.4 337.7 L 1265.5 328.3" fill="none" stroke="#1F77B4" stroke-width="2"></path></g><g class="highcharts-series" visibility="visible" transform="translate(74,20)" clip-path="url(#highcharts-32)"><path d="M 12.5 374 L 27.7 374 L 42.7 374 L 57.8 245.5 L 72.9 374 L 88 374 L 103.1 374 L 118.2 374 L 133.3 251.8 L 148.4 374 L 163.5 374 L 178.6 250.6 L 193.7 374 L 208.8 255.3 L 223.9 374 L 239 17.8 L 254.1 374 L 269.2 374 L 284.3 374 L 299.4 281.7 L 314.4 374 L 329.6 374 L 344.7 374 L 359.7 374 L 374.8 251.2 L 389.9 374 L 405 319.8 L 420.1 374 L 435.2 320.7 L 450.3 374 L 465.4 374 L 480.5 374 L 495.6 374 L 510.7 343 L 525.8 348.3 L 540.9 374 L 556 374 L 571.1 347.6 L 586.2 374 L 601.3 374 L 616.4 374 L 631.5 374 L 646.6 347 L 661.6 320.5 L 676.7 374 L 691.9 374 L 706.9 374 L 722 374 L 737.1 374 L 752.2 341 L 767.3 310.6 L 782.4 346.7 L 797.5 374 L 812.6 374 L 827.7 374 L 842.8 352.5 L 857.9 337 L 873 354.1 L 888.1 374 L 903.2 374 L 918.3 357.9 L 933.4 358.8 L 948.5 374 L 963.6 352.6 L 978.6 363.9 L 993.8 355.3 L 1008.9 348.4 L 1023.9 348.8 L 1039 366.6 L 1054.2 374 L 1069.2 362.8 L 1084.3 363.9 L 1099.4 355.2 L 1114.5 361.7 L 1129.6 353 L 1144.7 345.5 L 1159.8 359.4 L 1174.9 368.1 L 1190 350 L 1205.1 334.4 L 1220.2 350.8 L 1235.3 340.8 L 1250.4 333.2 L 1265.5 374" fill="none" stroke="#FF7F0E" stroke-width="2"></path></g><g class="highcharts-series" visibility="visible" transform="translate(74,20)" clip-path="url(#highcharts-32)"><path d="M 12.5 374 L 27.7 374 L 42.7 374 L 57.8 374 L 72.9 374 L 88 374 L 103.1 374 L 118.2 374 L 133.3 374 L 148.4 374 L 163.5 374 L 178.6 374 L 193.7 374 L 208.8 374 L 223.9 374 L 239 374 L 254.1 374 L 269.2 374 L 284.3 271 L 299.4 281.7 L 314.4 374 L 329.6 285.6 L 344.7 374 L 359.7 374 L 374.8 374 L 389.9 374 L 405 374 L 420.1 374 L 435.2 320.7 L 450.3 282.3 L 465.4 314.9 L 480.5 374 L 495.6 374 L 510.7 374 L 525.8 374 L 540.9 374 L 556 374 L 571.1 321.2 L 586.2 326.2 L 601.3 345.9 L 616.4 344.1 L 631.5 374 L 646.6 347 L 661.6 347.2 L 676.7 374 L 691.9 374 L 706.9 374 L 722 374 L 737.1 374 L 752.2 341 L 767.3 374 L 782.4 374 L 797.5 323 L 812.6 352 L 827.7 355.5 L 842.8 309.6 L 857.9 374 L 873 374 L 888.1 339.8 L 903.2 374 L 918.3 341.7 L 933.4 343.7 L 948.5 361.3 L 963.6 341.9 L 978.6 313.6 L 993.8 355.3 L 1008.9 331.3 L 1023.9 357.2 L 1039 329.9 L 1054.2 334.3 L 1069.2 357.2 L 1084.3 338.5 L 1099.4 345.9 L 1114.5 329 L 1129.6 353 L 1144.7 358.2 L 1159.8 350.7 L 1174.9 341.6 L 1190 354.8 L 1205.1 355.2 L 1220.2 354.7 L 1235.3 344.7 L 1250.4 328.7 L 1265.5 282.7" fill="none" stroke="#2CA02C" stroke-width="2"></path></g><g class="highcharts-series" visibility="visible" transform="translate(74,20)" clip-path="url(#highcharts-32)"><path d="M 12.5 235.5 L 27.7 374 L 42.7 374 L 57.8 245.5 L 72.9 172.9 L 88 167.9 L 103.1 255.3 L 118.2 374 L 133.3 374 L 148.4 374 L 163.5 374 L 178.6 374 L 193.7 374 L 208.8 136.5 L 223.9 374 L 239 374 L 254.1 374 L 269.2 374 L 284.3 374 L 299.4 374 L 314.4 280.3 L 329.6 374 L 344.7 374 L 359.7 374 L 374.8 374 L 389.9 314.6 L 405 374 L 420.1 374 L 435.2 374 L 450.3 328.2 L 465.4 374 L 480.5 323.1 L 495.6 328.8 L 510.7 374 L 525.8 374 L 540.9 374 L 556 374 L 571.1 347.6 L 586.2 374 L 601.3 289.6 L 616.4 374 L 631.5 311 L 646.6 347 L 661.6 320.5 L 676.7 286.4 L 691.9 374 L 706.9 344.2 L 722 346.7 L 737.1 346.9 L 752.2 374 L 767.3 374 L 782.4 374 L 797.5 348.5 L 812.6 352 L 827.7 337 L 842.8 374 L 857.9 355.5 L 873 294.5 L 888.1 374 L 903.2 356.3 L 918.3 357.9 L 933.4 374 L 948.5 335.8 L 963.6 374 L 978.6 363.9 L 993.8 336.5 L 1008.9 348.4 L 1023.9 357.2 L 1039 322.5 L 1054.2 354.1 L 1069.2 340.4 L 1084.3 333.5 L 1099.4 359.9 L 1114.5 345.4 L 1129.6 349.5 L 1144.7 351.9 L 1159.8 353.6 L 1174.9 353.4 L 1190 342.8 L 1205.1 346.9 L 1220.2 341.1 L 1235.3 336.9 L 1250.4 335.5 L 1265.5 282.7" fill="none" stroke="#D62728" stroke-width="2"></path></g><g class="highcharts-series" visibility="visible" transform="translate(74,20)" clip-path="url(#highcharts-32)"><path d="M 12.5 235.5 L 27.7 374 L 42.7 257.5 L 57.8 374 L 72.9 374 L 88 271 L 103.1 255.3 L 118.2 374 L 133.3 251.8 L 148.4 374 L 163.5 374 L 178.6 374 L 193.7 374 L 208.8 255.3 L 223.9 374 L 239 136.5 L 254.1 257.5 L 269.2 374 L 284.3 374 L 299.4 281.7 L 314.4 374 L 329.6 108.8 L 344.7 374 L 359.7 374 L 374.8 312.6 L 389.9 314.6 L 405 374 L 420.1 374 L 435.2 374 L 450.3 374 L 465.4 314.9 L 480.5 374 L 495.6 328.8 L 510.7 312 L 525.8 348.3 L 540.9 352 L 556 374 L 571.1 347.6 L 586.2 302.4 L 601.3 289.6 L 616.4 374 L 631.5 342.5 L 646.6 347 L 661.6 347.2 L 676.7 374 L 691.9 374 L 706.9 344.2 L 722 319.4 L 737.1 319.8 L 752.2 341 L 767.3 342.3 L 782.4 346.7 L 797.5 348.5 L 812.6 374 L 827.7 337 L 842.8 331.1 L 857.9 374 L 873 374 L 888.1 374 L 903.2 374 L 918.3 325.6 L 933.4 374 L 948.5 323.1 L 963.6 341.9 L 978.6 333.8 L 993.8 345.9 L 1008.9 348.4 L 1023.9 365.6 L 1039 366.6 L 1054.2 340.9 L 1069.2 362.8 L 1084.3 363.9 L 1099.4 341.2 L 1114.5 349.5 L 1129.6 346 L 1144.7 342.4 L 1159.8 356.5 L 1174.9 350.4 L 1190 350 L 1205.1 342.7 L 1220.2 352.7 L 1235.3 356.4 L 1250.4 355.9 L 1265.5 351.2" fill="none" stroke="#9467BD" stroke-width="2"></path></g><g class="highcharts-series" visibility="visible" transform="translate(74,20)" clip-path="url(#highcharts-32)"><path d="M 12.5 374 L 27.7 374 L 42.7 257.5 L 57.8 374 L 72.9 273.5 L 88 167.9 L 103.1 374 L 118.2 374 L 133.3 251.8 L 148.4 374 L 163.5 259.6 L 178.6 374 L 193.7 250.6 L 208.8 374 L 223.9 374 L 239 374 L 254.1 141 L 269.2 267.4 L 284.3 271 L 299.4 97 L 314.4 374 L 329.6 285.6 L 344.7 129.6 L 359.7 374 L 374.8 312.6 L 389.9 374 L 405 319.8 L 420.1 325.1 L 435.2 320.7 L 450.3 328.2 L 465.4 314.9 L 480.5 374 L 495.6 374 L 510.7 374 L 525.8 348.3 L 540.9 374 L 556 330.7 L 571.1 374 L 586.2 350.1 L 601.3 374 L 616.4 344.1 L 631.5 374 L 646.6 347 L 661.6 293.7 L 676.7 344.8 L 691.9 374 L 706.9 344.2 L 722 374 L 737.1 374 L 752.2 374 L 767.3 342.3 L 782.4 346.7 L 797.5 374 L 812.6 374 L 827.7 337 L 842.8 331.1 L 857.9 374 L 873 354.1 L 888.1 356.9 L 903.2 356.3 L 918.3 325.6 L 933.4 313.3 L 948.5 335.8 L 963.6 341.9 L 978.6 363.9 L 993.8 355.3 L 1008.9 356.9 L 1023.9 374 L 1039 351.9 L 1054.2 360.8 L 1069.2 374 L 1084.3 348.7 L 1099.4 355.2 L 1114.5 361.7 L 1129.6 346 L 1144.7 355 L 1159.8 330.3 L 1174.9 356.3 L 1190 354.8 L 1205.1 363.6 L 1220.2 346.9 L 1235.3 350.6 L 1250.4 360.4 L 1265.5 374" fill="none" stroke="#8C564B" stroke-width="2"></path></g><g class="highcharts-series" visibility="visible" transform="translate(74,20)" clip-path="url(#highcharts-32)"><path d="M 12.5 374 L 27.7 374 L 42.7 374 L 57.8 374 L 72.9 374 L 88 374 L 103.1 374 L 118.2 374 L 133.3 374 L 148.4 374 L 163.5 374 L 178.6 374 L 193.7 374 L 208.8 374 L 223.9 374 L 239 374 L 254.1 374 L 269.2 374 L 284.3 374 L 299.4 374 L 314.4 374 L 329.6 374 L 344.7 374 L 359.7 374 L 374.8 374 L 389.9 374 L 405 374 L 420.1 374 L 435.2 320.7 L 450.3 374 L 465.4 374 L 480.5 374 L 495.6 374 L 510.7 374 L 525.8 374 L 540.9 374 L 556 374 L 571.1 374 L 586.2 374 L 601.3 374 L 616.4 374 L 631.5 374 L 646.6 374 L 661.6 374 L 676.7 374 L 691.9 374 L 706.9 374 L 722 374 L 737.1 374 L 752.2 374 L 767.3 374 L 782.4 374 L 797.5 374 L 812.6 374 L 827.7 374 L 842.8 374 L 857.9 374 L 873 374 L 888.1 374 L 903.2 374 L 918.3 374 L 933.4 358.8 L 948.5 374 L 963.6 374 L 978.6 374 L 993.8 364.6 L 1008.9 365.5 L 1023.9 357.2 L 1039 374 L 1054.2 374 L 1069.2 374 L 1084.3 368.9 L 1099.4 374 L 1114.5 374 L 1129.6 363.5 L 1144.7 374 L 1159.8 374 L 1174.9 374 L 1190 374 L 1205.1 369.8 L 1220.2 366.3 L 1235.3 372 L 1250.4 369.5 L 1265.5 374" fill="none" stroke="#E377C2" stroke-width="2"></path></g><g class="highcharts-series" visibility="visible" transform="translate(74,20)" clip-path="url(#highcharts-32)"><path d="M 12.5 374 L 27.7 374 L 42.7 374 L 57.8 374 L 72.9 374 L 88 271 L 103.1 255.3 L 118.2 374 L 133.3 251.8 L 148.4 246.8 L 163.5 374 L 178.6 250.6 L 193.7 250.6 L 208.8 374 L 223.9 374 L 239 374 L 254.1 374 L 269.2 374 L 284.3 374 L 299.4 374 L 314.4 280.3 L 329.6 285.6 L 344.7 374 L 359.7 374 L 374.8 374 L 389.9 314.6 L 405 265.6 L 420.1 374 L 435.2 320.7 L 450.3 328.2 L 465.4 314.9 L 480.5 323.1 L 495.6 374 L 510.7 374 L 525.8 374 L 540.9 352 L 556 374 L 571.1 347.6 L 586.2 350.1 L 601.3 374 L 616.4 344.1 L 631.5 374 L 646.6 347 L 661.6 374 L 676.7 374 L 691.9 310.2 L 706.9 374 L 722 346.7 L 737.1 374 L 752.2 341 L 767.3 342.3 L 782.4 319.4 L 797.5 348.5 L 812.6 374 L 827.7 355.5 L 842.8 331.1 L 857.9 374 L 873 334.2 L 888.1 339.8 L 903.2 356.3 L 918.3 357.9 L 933.4 374 L 948.5 335.8 L 963.6 374 L 978.6 343.8 L 993.8 345.9 L 1008.9 339.8 L 1023.9 348.8 L 1039 366.6 L 1054.2 354.1 L 1069.2 357.2 L 1084.3 363.9 L 1099.4 359.9 L 1114.5 361.7 L 1129.6 363.5 L 1144.7 329.7 L 1159.8 327.4 L 1174.9 350.4 L 1190 338.1 L 1205.1 338.5 L 1220.2 356.6 L 1235.3 346.7 L 1250.4 355.9 L 1265.5 351.2" fill="none" stroke="#7F7F7F" stroke-width="2"></path></g><g class="highcharts-series" visibility="visible" transform="translate(74,20)" clip-path="url(#highcharts-32)"><path d="M 12.5 374 L 27.7 374 L 42.7 374 L 57.8 374 L 72.9 374 L 88 271 L 103.1 374 L 118.2 374 L 133.3 374 L 148.4 374 L 163.5 374 L 178.6 250.6 L 193.7 374 L 208.8 255.3 L 223.9 374 L 239 374 L 254.1 374 L 269.2 160.9 L 284.3 374 L 299.4 374 L 314.4 374 L 329.6 374 L 344.7 374 L 359.7 374 L 374.8 374 L 389.9 374 L 405 374 L 420.1 374 L 435.2 374 L 450.3 374 L 465.4 374 L 480.5 374 L 495.6 374 L 510.7 374 L 525.8 374 L 540.9 374 L 556 374 L 571.1 374 L 586.2 374 L 601.3 374 L 616.4 374 L 631.5 374 L 646.6 374 L 661.6 374 L 676.7 344.8 L 691.9 374 L 706.9 314.5 L 722 374 L 737.1 374 L 752.2 374 L 767.3 374 L 782.4 346.7 L 797.5 374 L 812.6 307.9 L 827.7 355.5 L 842.8 352.5 L 857.9 374 L 873 354.1 L 888.1 356.9 L 903.2 356.3 L 918.3 357.9 L 933.4 358.8 L 948.5 361.3 L 963.6 374 L 978.6 343.8 L 993.8 345.9 L 1008.9 365.5 L 1023.9 357.2 L 1039 351.9 L 1054.2 360.8 L 1069.2 374 L 1084.3 353.7 L 1099.4 336.5 L 1114.5 349.5 L 1129.6 349.5 L 1144.7 361.3 L 1159.8 344.9 L 1174.9 359.3 L 1190 352.4 L 1205.1 357.3 L 1220.2 346.9 L 1235.3 348.6 L 1250.4 351.3 L 1265.5 374" fill="none" stroke="#BCBD22" stroke-width="2"></path></g></g><g class="highcharts-legend"  transform="translate(110,20)"><text x="7" y="18" style="font-family:'open sans', 'lucida sans unicode', verdana, arial, helvetica, sans-serif;font-size:110%;cursor:pointer;color:#3e576f;font-weight:bold;fill:#3e576f;" text-anchor="start" ><tspan style="fill: #1f77b4;" x="7">indianapolis [all  texts; 87K  texts, 644M words]</tspan></text><path d="M 2 0 L 2 0" fill="none" stroke-width="2"  stroke="#1F77B4" transform="translate(7,14)"></path><text x="7" y="36" style="font-family:'open sans', 'lucida sans unicode', verdana, arial, helvetica, sans-serif;font-size:110%;cursor:pointer;color:#3e576f;font-weight:bold;fill:#3e576f;" text-anchor="start" ><tspan style="fill: #ff7f0e;" x="7">jacksonville [all  texts; 87K  texts, 644M words]</tspan></text><path d="M 2 0 L 2 0" fill="none" stroke-width="2"  stroke="#FF7F0E" transform="translate(7,32)"></path><text x="7" y="54" style="font-family:'open sans', 'lucida sans unicode', verdana, arial, helvetica, sans-serif;font-size:110%;cursor:pointer;color:#3e576f;font-weight:bold;fill:#3e576f;" text-anchor="start" ><tspan style="fill: #2ca02c;" x="7">san jose [all  texts; 87K  texts, 644M words]</tspan></text><path d="M 2 0 L 2 0" fill="none" stroke-width="2"  stroke="#2CA02C" transform="translate(7,50)"></path><text x="7" y="72" style="font-family:'open sans', 'lucida sans unicode', verdana, arial, helvetica, sans-serif;font-size:110%;cursor:pointer;color:#3e576f;font-weight:bold;fill:#3e576f;" text-anchor="start" ><tspan style="fill: #d62728;" x="7">louisville [all  texts; 87K  texts, 644M words]</tspan></text><path d="M 2 0 L 2 0" fill="none" stroke-width="2"  stroke="#D62728" transform="translate(7,68)"></path><text x="7" y="90" style="font-family:'open sans', 'lucida sans unicode', verdana, arial, helvetica, sans-serif;font-size:110%;cursor:pointer;color:#3e576f;font-weight:bold;fill:#3e576f;" text-anchor="start" ><tspan style="fill: #9467bd;" x="7">raleigh [all  texts; 87K  texts, 644M words]</tspan></text><path d="M 2 0 L 2 0" fill="none" stroke-width="2"  stroke="#9467BD" transform="translate(7,86)"></path><text x="7" y="108" style="font-family:'open sans', 'lucida sans unicode', verdana, arial, helvetica, sans-serif;font-size:110%;cursor:pointer;color:#3e576f;font-weight:bold;fill:#3e576f;" text-anchor="start" ><tspan style="fill: #8c564b;" x="7">new haven [all  texts; 87K  texts, 644M words]</tspan></text><path d="M 2 0 L 2 0" fill="none" stroke-width="2"  stroke="#8C564B" transform="translate(7,104)"></path><text x="7" y="126" style="font-family:'open sans', 'lucida sans unicode', verdana, arial, helvetica, sans-serif;font-size:110%;cursor:pointer;color:#3e576f;font-weight:bold;fill:#3e576f;" text-anchor="start" ><tspan style="fill: #e377c2;" x="7">urbana [all  texts; 87K  texts, 644M words]</tspan></text><path d="M 2 0 L 2 0" fill="none" stroke-width="2"  stroke="#E377C2" transform="translate(7,122)"></path><text x="7" y="144" style="font-family:'open sans', 'lucida sans unicode', verdana, arial, helvetica, sans-serif;font-size:110%;cursor:pointer;color:#3e576f;font-weight:bold;fill:#3e576f;" text-anchor="start" ><tspan style="fill: #7f7f7f;" x="7">oklahoma city [all  texts; 87K  texts, 644M words]</tspan></text><path d="M 2 0 L 2 0" fill="none" stroke-width="2"  stroke="#7F7F7F" transform="translate(7,140)"></path><text x="7" y="162" style="font-family:'open sans', 'lucida sans unicode', verdana, arial, helvetica, sans-serif;font-size:110%;cursor:pointer;color:#3e576f;font-weight:bold;fill:#3e576f;" text-anchor="start" ><tspan style="fill: #bcbd22;" x="7">key west [all  texts; 87K  texts, 644M words]</tspan></text><path d="M 2 0 L 2 0" fill="none" stroke-width="2"  stroke="#BCBD22" transform="translate(7,158)"></path></g><g class="highcharts-axis" ><text x="209.58181899873847" y="408" style="font-family:'open sans', 'lucida sans unicode', verdana, arial, helvetica, sans-serif;font-size:12;color:#666;line-height:14px;fill:#666;" text-anchor="middle" visibility="visible"><tspan x="209.58181899873847">1940</tspan></text><text x="360.5580070723076" y="408" style="font-family:'open sans', 'lucida sans unicode', verdana, arial, helvetica, sans-serif;font-size:12;color:#666;line-height:14px;fill:#666;" text-anchor="middle" visibility="visible"><tspan x="360.5580070723076">1950</tspan></text><text x="511.4928657760236" y="408" style="font-family:'open sans', 'lucida sans unicode', verdana, arial, helvetica, sans-serif;font-size:12;color:#666;line-height:14px;fill:#666;" text-anchor="middle" visibility="visible"><tspan x="511.4928657760236">1960</tspan></text><text x="662.4690538495927" y="408" style="font-family:'open sans', 'lucida sans unicode', verdana, arial, helvetica, sans-serif;font-size:12;color:#666;line-height:14px;fill:#666;" text-anchor="middle" visibility="visible"><tspan x="662.4690538495927">1970</tspan></text><text x="813.4039125533087" y="408" style="font-family:'open sans', 'lucida sans unicode', verdana, arial, helvetica, sans-serif;font-size:12;color:#666;line-height:14px;fill:#666;" text-anchor="middle" visibility="visible"><tspan x="813.4039125533087">1980</tspan></text><text x="964.3801006268778" y="408" style="font-family:'open sans', 'lucida sans unicode', verdana, arial, helvetica, sans-serif;font-size:12;color:#666;line-height:14px;fill:#666;" text-anchor="middle" visibility="visible"><tspan x="964.3801006268778">1990</tspan></text><text x="1115.3149593305939" y="408" style="font-family:'open sans', 'lucida sans unicode', verdana, arial, helvetica, sans-serif;font-size:12;color:#666;line-height:14px;fill:#666;" text-anchor="middle" visibility="visible"><tspan x="1115.3149593305939">2000</tspan></text><text x="1266.2911474041628" y="408" style="font-family:'open sans', 'lucida sans unicode', verdana, arial, helvetica, sans-serif;font-size:12;color:#666;line-height:14px;fill:#666;" text-anchor="middle" visibility="visible"><tspan x="1266.2911474041628">2010</tspan></text><text x="134.11438964688048" y="408" style="font-family:'open sans', 'lucida sans unicode', verdana, arial, helvetica, sans-serif;font-size:12;color:#666;line-height:14px;fill:#666;" text-anchor="middle" visibility="visible"><tspan x="134.11438964688048">1935</tspan></text><text x="285.09057772044963" y="408" style="font-family:'open sans', 'lucida sans unicode', verdana, arial, helvetica, sans-serif;font-size:12;color:#666;line-height:14px;fill:#666;" text-anchor="middle" visibility="visible"><tspan x="285.09057772044963">1945</tspan></text><text x="436.0254364241656" y="408" style="font-family:'open sans', 'lucida sans unicode', verdana, arial, helvetica, sans-serif;font-size:12;color:#666;line-height:14px;fill:#666;" text-anchor="middle" visibility="visible"><tspan x="436.0254364241656">1955</tspan></text><text x="587.0016244977347" y="408" style="font-family:'open sans', 'lucida sans unicode', verdana, arial, helvetica, sans-serif;font-size:12;color:#666;line-height:14px;fill:#666;" text-anchor="middle" visibility="visible"><tspan x="587.0016244977347">1965</tspan></text><text x="737.9364832014508" y="408" style="font-family:'open sans', 'lucida sans unicode', verdana, arial, helvetica, sans-serif;font-size:12;color:#666;line-height:14px;fill:#666;" text-anchor="middle" visibility="visible"><tspan x="737.9364832014508">1975</tspan></text><text x="888.9126712750199" y="408" style="font-family:'open sans', 'lucida sans unicode', verdana, arial, helvetica, sans-serif;font-size:12;color:#666;line-height:14px;fill:#666;" text-anchor="middle" visibility="visible"><tspan x="888.9126712750199">1985</tspan></text><text x="1039.8475299787358" y="408" style="font-family:'open sans', 'lucida sans unicode', verdana, arial, helvetica, sans-serif;font-size:12;color:#666;line-height:14px;fill:#666;" text-anchor="middle" visibility="visible"><tspan x="1039.8475299787358">1995</tspan></text><text x="1190.823718052305" y="408" style="font-family:'open sans', 'lucida sans unicode', verdana, arial, helvetica, sans-serif;font-size:12;color:#666;line-height:14px;fill:#666;" text-anchor="middle" visibility="visible"><tspan x="1190.823718052305">2005</tspan></text><text x="1338.28125" y="408" style="font-family:'open sans', 'lucida sans unicode', verdana, arial, helvetica, sans-serif;font-size:12;color:#666;line-height:14px;fill:#666;" text-anchor="middle" visibility="visible"><tspan x="1338.28125">2015</tspan></text><path d="M 210.5 394 L 210.5 399" fill="none" stroke="#C0D0E0" stroke-width="1"></path><path d="M 285.5 394 L 285.5 399" fill="none" stroke="#C0D0E0" stroke-width="1"></path><path d="M 361.5 394 L 361.5 399" fill="none" stroke="#C0D0E0" stroke-width="1"></path><path d="M 436.5 394 L 436.5 399" fill="none" stroke="#C0D0E0" stroke-width="1"></path><path d="M 511.5 394 L 511.5 399" fill="none" stroke="#C0D0E0" stroke-width="1"></path><path d="M 587.5 394 L 587.5 399" fill="none" stroke="#C0D0E0" stroke-width="1"></path><path d="M 662.5 394 L 662.5 399" fill="none" stroke="#C0D0E0" stroke-width="1"></path><path d="M 738.5 394 L 738.5 399" fill="none" stroke="#C0D0E0" stroke-width="1"></path><path d="M 813.5 394 L 813.5 399" fill="none" stroke="#C0D0E0" stroke-width="1"></path><path d="M 889.5 394 L 889.5 399" fill="none" stroke="#C0D0E0" stroke-width="1"></path><path d="M 964.5 394 L 964.5 399" fill="none" stroke="#C0D0E0" stroke-width="1"></path><path d="M 1040.5 394 L 1040.5 399" fill="none" stroke="#C0D0E0" stroke-width="1"></path><path d="M 1115.5 394 L 1115.5 399" fill="none" stroke="#C0D0E0" stroke-width="1"></path><path d="M 1191.5 394 L 1191.5 399" fill="none" stroke="#C0D0E0" stroke-width="1"></path><path d="M 1266.5 394 L 1266.5 399" fill="none" stroke="#C0D0E0" stroke-width="1"></path><path d="M 1342.5 394 L 1342.5 399" fill="none" stroke="#C0D0E0" stroke-width="1"></path><path d="M 134.5 394 L 134.5 399" fill="none" stroke="#C0D0E0" stroke-width="1"></path></g><text x="713" y="430" style="font-family:'open sans', 'lucida sans unicode', verdana, arial, helvetica, sans-serif;font-size:14;color:#000000;font-weight:normal;fill:#000000;"  text-anchor="middle" visibility="visible"><tspan x="713">year</tspan></text><g class="highcharts-axis" ><text x="66" y="398.1" style="font-family:'open sans', 'lucida sans unicode', verdana, arial, helvetica, sans-serif;font-size:12;width:618px;color:#666;line-height:14px;fill:#666;" text-anchor="end" visibility="visible"><tspan x="66">0%</tspan></text><text x="66" y="335.7666666666667" style="font-family:'open sans', 'lucida sans unicode', verdana, arial, helvetica, sans-serif;font-size:12;width:618px;color:#666;line-height:14px;fill:#666;" text-anchor="end" visibility="visible"><tspan x="66">0.5%</tspan></text><text x="66" y="273.43333333333334" style="font-family:'open sans', 'lucida sans unicode', verdana, arial, helvetica, sans-serif;font-size:12;width:618px;color:#666;line-height:14px;fill:#666;" text-anchor="end" visibility="visible"><tspan x="66">1%</tspan></text><text x="66" y="211.1" style="font-family:'open sans', 'lucida sans unicode', verdana, arial, helvetica, sans-serif;font-size:12;width:618px;color:#666;line-height:14px;fill:#666;" text-anchor="end" visibility="visible"><tspan x="66">1.5%</tspan></text><text x="66" y="148.76666666666665" style="font-family:'open sans', 'lucida sans unicode', verdana, arial, helvetica, sans-serif;font-size:12;width:618px;color:#666;line-height:14px;fill:#666;" text-anchor="end" visibility="visible"><tspan x="66">2%</tspan></text><text x="66" y="86.43333333333331" style="font-family:'open sans', 'lucida sans unicode', verdana, arial, helvetica, sans-serif;font-size:12;width:618px;color:#666;line-height:14px;fill:#666;" text-anchor="end" visibility="visible"><tspan x="66">2.5%</tspan></text><text x="66" y="24.1" style="font-family:'open sans', 'lucida sans unicode', verdana, arial, helvetica, sans-serif;font-size:12;width:618px;color:#666;line-height:14px;fill:#666;" text-anchor="end" visibility="visible"><tspan x="66">3%</tspan></text></g><text x="29.21875" y="207" style="font-family:'open sans', 'lucida sans unicode', verdana, arial, helvetica, sans-serif;font-size:14;color:#000000;font-weight:normal;fill:#000000;"  transform="rotate(270 29.21875 207)" text-anchor="middle" visibility="visible"><tspan x="29.21875">% of Texts</tspan></text><path d="M 74 394.5 L 1352 394.5" fill="none" stroke="#555555" stroke-width="1"  visibility="visible"></path><path d="M 74.5 20 L 74.5 394" fill="none" stroke="#555555" stroke-width="1"  visibility="visible"></path><g  style="padding:0;white-space:nowrap;" visibility="hidden"><rect rx="5" ry="5" fill="none" x="0" y="0" width="0" height="0" stroke-width="5" fill-opacity="0.85" anchorX="0" anchorY="0"  stroke="rgb(0, 0, 0)" stroke-opacity="0.05" transform="translate(1,1)"></rect><rect rx="5" ry="5" fill="none" x="0" y="0" width="0" height="0" stroke-width="3" fill-opacity="0.85" anchorX="0" anchorY="0"  stroke="rgb(0, 0, 0)" stroke-opacity="0.1" transform="translate(1,1)"></rect><rect rx="5" ry="5" fill="none" x="0" y="0" width="0" height="0" stroke-width="1" fill-opacity="0.85" anchorX="0" anchorY="0"  stroke="rgb(0, 0, 0)" stroke-opacity="0.15000000000000002" transform="translate(1,1)"></rect><rect rx="5" ry="5" fill="rgb(255,255,255)" x="0" y="0" width="0" height="0" stroke-width="2" fill-opacity="0.85" anchorX="0" anchorY="0"></rect><text x="0" y="13" style="font-family:'open sans', 'lucida sans unicode', verdana, arial, helvetica, sans-serif;font-size:12px;color:#333333;fill:#333333;" ></text></g><text x="1352" y="445" style="font-family:'open sans', 'lucida sans unicode', verdana, arial, helvetica, sans-serif;font-size:10px;cursor:pointer;color:#909090;fill:#909090;" text-anchor="end" ></text><g class="highcharts-tracker" ><g  transform="translate(74,20)" clip-path="url(#highcharts-32)"><path d="M 2.5 374 L 12.5 374 L 27.7 374 L 42.7 374 L 57.8 374 L 72.9 374 L 88 374 L 103.1 255.3 L 118.2 227.3 L 133.3 374 L 148.4 246.8 L 163.5 374 L 178.6 250.6 L 193.7 374 L 208.8 374 L 223.9 246.8 L 239 255.3 L 254.1 374 L 269.2 374 L 284.3 271 L 299.4 281.7 L 314.4 280.3 L 329.6 285.6 L 344.7 211 L 359.7 292 L 374.8 374 L 389.9 255.3 L 405 319.8 L 420.1 374 L 435.2 320.7 L 450.3 374 L 465.4 314.9 L 480.5 374 L 495.6 374 L 510.7 312 L 525.8 297 L 540.9 307.9 L 556 352.4 L 571.1 374 L 586.2 350.1 L 601.3 345.9 L 616.4 374 L 631.5 342.5 L 646.6 374 L 661.6 347.2 L 676.7 315.6 L 691.9 310.2 L 706.9 374 L 722 319.4 L 737.1 346.9 L 752.2 341 L 767.3 342.3 L 782.4 346.7 L 797.5 323 L 812.6 374 L 827.7 337 L 842.8 331.1 L 857.9 374 L 873 354.1 L 888.1 322.6 L 903.2 320.8 L 918.3 374 L 933.4 358.8 L 948.5 374 L 963.6 374 L 978.6 343.8 L 993.8 345.9 L 1008.9 356.9 L 1023.9 357.2 L 1039 351.9 L 1054.2 347.5 L 1069.2 329.2 L 1084.3 353.7 L 1099.4 359.9 L 1114.5 361.7 L 1129.6 339 L 1144.7 348.7 L 1159.8 342 L 1174.9 347.5 L 1190 347.6 L 1205.1 346.9 L 1220.2 339.2 L 1235.3 344.7 L 1250.4 337.7 L 1265.5 328.3 L 1275.5 328.3" fill="none"  stroke-opacity="0.000001" stroke="rgb(192,192,192)" stroke-linejoin="bevel" stroke-width="22" visibility="visible" style="cursor:pointer;"></path></g><g  transform="translate(74,20)" clip-path="url(#highcharts-32)"><path d="M 2.5 374 L 12.5 374 L 27.7 374 L 42.7 374 L 57.8 245.5 L 72.9 374 L 88 374 L 103.1 374 L 118.2 374 L 133.3 251.8 L 148.4 374 L 163.5 374 L 178.6 250.6 L 193.7 374 L 208.8 255.3 L 223.9 374 L 239 17.8 L 254.1 374 L 269.2 374 L 284.3 374 L 299.4 281.7 L 314.4 374 L 329.6 374 L 344.7 374 L 359.7 374 L 374.8 251.2 L 389.9 374 L 405 319.8 L 420.1 374 L 435.2 320.7 L 450.3 374 L 465.4 374 L 480.5 374 L 495.6 374 L 510.7 343 L 525.8 348.3 L 540.9 374 L 556 374 L 571.1 347.6 L 586.2 374 L 601.3 374 L 616.4 374 L 631.5 374 L 646.6 347 L 661.6 320.5 L 676.7 374 L 691.9 374 L 706.9 374 L 722 374 L 737.1 374 L 752.2 341 L 767.3 310.6 L 782.4 346.7 L 797.5 374 L 812.6 374 L 827.7 374 L 842.8 352.5 L 857.9 337 L 873 354.1 L 888.1 374 L 903.2 374 L 918.3 357.9 L 933.4 358.8 L 948.5 374 L 963.6 352.6 L 978.6 363.9 L 993.8 355.3 L 1008.9 348.4 L 1023.9 348.8 L 1039 366.6 L 1054.2 374 L 1069.2 362.8 L 1084.3 363.9 L 1099.4 355.2 L 1114.5 361.7 L 1129.6 353 L 1144.7 345.5 L 1159.8 359.4 L 1174.9 368.1 L 1190 350 L 1205.1 334.4 L 1220.2 350.8 L 1235.3 340.8 L 1250.4 333.2 L 1265.5 374 L 1275.5 374" fill="none"  stroke-opacity="0.000001" stroke="rgb(192,192,192)" stroke-linejoin="bevel" stroke-width="22" visibility="visible" style="cursor:pointer;"></path></g><g  transform="translate(74,20)" clip-path="url(#highcharts-32)"><path d="M 2.5 374 L 12.5 374 L 27.7 374 L 42.7 374 L 57.8 374 L 72.9 374 L 88 374 L 103.1 374 L 118.2 374 L 133.3 374 L 148.4 374 L 163.5 374 L 178.6 374 L 193.7 374 L 208.8 374 L 223.9 374 L 239 374 L 254.1 374 L 269.2 374 L 284.3 271 L 299.4 281.7 L 314.4 374 L 329.6 285.6 L 344.7 374 L 359.7 374 L 374.8 374 L 389.9 374 L 405 374 L 420.1 374 L 435.2 320.7 L 450.3 282.3 L 465.4 314.9 L 480.5 374 L 495.6 374 L 510.7 374 L 525.8 374 L 540.9 374 L 556 374 L 571.1 321.2 L 586.2 326.2 L 601.3 345.9 L 616.4 344.1 L 631.5 374 L 646.6 347 L 661.6 347.2 L 676.7 374 L 691.9 374 L 706.9 374 L 722 374 L 737.1 374 L 752.2 341 L 767.3 374 L 782.4 374 L 797.5 323 L 812.6 352 L 827.7 355.5 L 842.8 309.6 L 857.9 374 L 873 374 L 888.1 339.8 L 903.2 374 L 918.3 341.7 L 933.4 343.7 L 948.5 361.3 L 963.6 341.9 L 978.6 313.6 L 993.8 355.3 L 1008.9 331.3 L 1023.9 357.2 L 1039 329.9 L 1054.2 334.3 L 1069.2 357.2 L 1084.3 338.5 L 1099.4 345.9 L 1114.5 329 L 1129.6 353 L 1144.7 358.2 L 1159.8 350.7 L 1174.9 341.6 L 1190 354.8 L 1205.1 355.2 L 1220.2 354.7 L 1235.3 344.7 L 1250.4 328.7 L 1265.5 282.7 L 1275.5 282.7" fill="none"  stroke-opacity="0.000001" stroke="rgb(192,192,192)" stroke-linejoin="bevel" stroke-width="22" visibility="visible" style="cursor:pointer;"></path></g><g  transform="translate(74,20)" clip-path="url(#highcharts-32)"><path d="M 2.5 235.5 L 12.5 235.5 L 27.7 374 L 42.7 374 L 57.8 245.5 L 72.9 172.9 L 88 167.9 L 103.1 255.3 L 118.2 374 L 133.3 374 L 148.4 374 L 163.5 374 L 178.6 374 L 193.7 374 L 208.8 136.5 L 223.9 374 L 239 374 L 254.1 374 L 269.2 374 L 284.3 374 L 299.4 374 L 314.4 280.3 L 329.6 374 L 344.7 374 L 359.7 374 L 374.8 374 L 389.9 314.6 L 405 374 L 420.1 374 L 435.2 374 L 450.3 328.2 L 465.4 374 L 480.5 323.1 L 495.6 328.8 L 510.7 374 L 525.8 374 L 540.9 374 L 556 374 L 571.1 347.6 L 586.2 374 L 601.3 289.6 L 616.4 374 L 631.5 311 L 646.6 347 L 661.6 320.5 L 676.7 286.4 L 691.9 374 L 706.9 344.2 L 722 346.7 L 737.1 346.9 L 752.2 374 L 767.3 374 L 782.4 374 L 797.5 348.5 L 812.6 352 L 827.7 337 L 842.8 374 L 857.9 355.5 L 873 294.5 L 888.1 374 L 903.2 356.3 L 918.3 357.9 L 933.4 374 L 948.5 335.8 L 963.6 374 L 978.6 363.9 L 993.8 336.5 L 1008.9 348.4 L 1023.9 357.2 L 1039 322.5 L 1054.2 354.1 L 1069.2 340.4 L 1084.3 333.5 L 1099.4 359.9 L 1114.5 345.4 L 1129.6 349.5 L 1144.7 351.9 L 1159.8 353.6 L 1174.9 353.4 L 1190 342.8 L 1205.1 346.9 L 1220.2 341.1 L 1235.3 336.9 L 1250.4 335.5 L 1265.5 282.7 L 1275.5 282.7" fill="none"  stroke-opacity="0.000001" stroke="rgb(192,192,192)" stroke-linejoin="bevel" stroke-width="22" visibility="visible" style="cursor:pointer;"></path></g><g  transform="translate(74,20)" clip-path="url(#highcharts-32)"><path d="M 2.5 235.5 L 12.5 235.5 L 27.7 374 L 42.7 257.5 L 57.8 374 L 72.9 374 L 88 271 L 103.1 255.3 L 118.2 374 L 133.3 251.8 L 148.4 374 L 163.5 374 L 178.6 374 L 193.7 374 L 208.8 255.3 L 223.9 374 L 239 136.5 L 254.1 257.5 L 269.2 374 L 284.3 374 L 299.4 281.7 L 314.4 374 L 329.6 108.8 L 344.7 374 L 359.7 374 L 374.8 312.6 L 389.9 314.6 L 405 374 L 420.1 374 L 435.2 374 L 450.3 374 L 465.4 314.9 L 480.5 374 L 495.6 328.8 L 510.7 312 L 525.8 348.3 L 540.9 352 L 556 374 L 571.1 347.6 L 586.2 302.4 L 601.3 289.6 L 616.4 374 L 631.5 342.5 L 646.6 347 L 661.6 347.2 L 676.7 374 L 691.9 374 L 706.9 344.2 L 722 319.4 L 737.1 319.8 L 752.2 341 L 767.3 342.3 L 782.4 346.7 L 797.5 348.5 L 812.6 374 L 827.7 337 L 842.8 331.1 L 857.9 374 L 873 374 L 888.1 374 L 903.2 374 L 918.3 325.6 L 933.4 374 L 948.5 323.1 L 963.6 341.9 L 978.6 333.8 L 993.8 345.9 L 1008.9 348.4 L 1023.9 365.6 L 1039 366.6 L 1054.2 340.9 L 1069.2 362.8 L 1084.3 363.9 L 1099.4 341.2 L 1114.5 349.5 L 1129.6 346 L 1144.7 342.4 L 1159.8 356.5 L 1174.9 350.4 L 1190 350 L 1205.1 342.7 L 1220.2 352.7 L 1235.3 356.4 L 1250.4 355.9 L 1265.5 351.2 L 1275.5 351.2" fill="none"  stroke-opacity="0.000001" stroke="rgb(192,192,192)" stroke-linejoin="bevel" stroke-width="22" visibility="visible" style="cursor:pointer;"></path></g><g  transform="translate(74,20)" clip-path="url(#highcharts-32)"><path d="M 2.5 374 L 12.5 374 L 27.7 374 L 42.7 257.5 L 57.8 374 L 72.9 273.5 L 88 167.9 L 103.1 374 L 118.2 374 L 133.3 251.8 L 148.4 374 L 163.5 259.6 L 178.6 374 L 193.7 250.6 L 208.8 374 L 223.9 374 L 239 374 L 254.1 141 L 269.2 267.4 L 284.3 271 L 299.4 97 L 314.4 374 L 329.6 285.6 L 344.7 129.6 L 359.7 374 L 374.8 312.6 L 389.9 374 L 405 319.8 L 420.1 325.1 L 435.2 320.7 L 450.3 328.2 L 465.4 314.9 L 480.5 374 L 495.6 374 L 510.7 374 L 525.8 348.3 L 540.9 374 L 556 330.7 L 571.1 374 L 586.2 350.1 L 601.3 374 L 616.4 344.1 L 631.5 374 L 646.6 347 L 661.6 293.7 L 676.7 344.8 L 691.9 374 L 706.9 344.2 L 722 374 L 737.1 374 L 752.2 374 L 767.3 342.3 L 782.4 346.7 L 797.5 374 L 812.6 374 L 827.7 337 L 842.8 331.1 L 857.9 374 L 873 354.1 L 888.1 356.9 L 903.2 356.3 L 918.3 325.6 L 933.4 313.3 L 948.5 335.8 L 963.6 341.9 L 978.6 363.9 L 993.8 355.3 L 1008.9 356.9 L 1023.9 374 L 1039 351.9 L 1054.2 360.8 L 1069.2 374 L 1084.3 348.7 L 1099.4 355.2 L 1114.5 361.7 L 1129.6 346 L 1144.7 355 L 1159.8 330.3 L 1174.9 356.3 L 1190 354.8 L 1205.1 363.6 L 1220.2 346.9 L 1235.3 350.6 L 1250.4 360.4 L 1265.5 374 L 1275.5 374" fill="none"  stroke-opacity="0.000001" stroke="rgb(192,192,192)" stroke-linejoin="bevel" stroke-width="22" visibility="visible" style="cursor:pointer;"></path></g><g  transform="translate(74,20)" clip-path="url(#highcharts-32)"><path d="M 2.5 374 L 12.5 374 L 27.7 374 L 42.7 374 L 57.8 374 L 72.9 374 L 88 374 L 103.1 374 L 118.2 374 L 133.3 374 L 148.4 374 L 163.5 374 L 178.6 374 L 193.7 374 L 208.8 374 L 223.9 374 L 239 374 L 254.1 374 L 269.2 374 L 284.3 374 L 299.4 374 L 314.4 374 L 329.6 374 L 344.7 374 L 359.7 374 L 374.8 374 L 389.9 374 L 405 374 L 420.1 374 L 435.2 320.7 L 450.3 374 L 465.4 374 L 480.5 374 L 495.6 374 L 510.7 374 L 525.8 374 L 540.9 374 L 556 374 L 571.1 374 L 586.2 374 L 601.3 374 L 616.4 374 L 631.5 374 L 646.6 374 L 661.6 374 L 676.7 374 L 691.9 374 L 706.9 374 L 722 374 L 737.1 374 L 752.2 374 L 767.3 374 L 782.4 374 L 797.5 374 L 812.6 374 L 827.7 374 L 842.8 374 L 857.9 374 L 873 374 L 888.1 374 L 903.2 374 L 918.3 374 L 933.4 358.8 L 948.5 374 L 963.6 374 L 978.6 374 L 993.8 364.6 L 1008.9 365.5 L 1023.9 357.2 L 1039 374 L 1054.2 374 L 1069.2 374 L 1084.3 368.9 L 1099.4 374 L 1114.5 374 L 1129.6 363.5 L 1144.7 374 L 1159.8 374 L 1174.9 374 L 1190 374 L 1205.1 369.8 L 1220.2 366.3 L 1235.3 372 L 1250.4 369.5 L 1265.5 374 L 1275.5 374" fill="none"  stroke-opacity="0.000001" stroke="rgb(192,192,192)" stroke-linejoin="bevel" stroke-width="22" visibility="visible" style="cursor:pointer;"></path></g><g  transform="translate(74,20)" clip-path="url(#highcharts-32)"><path d="M 2.5 374 L 12.5 374 L 27.7 374 L 42.7 374 L 57.8 374 L 72.9 374 L 88 271 L 103.1 255.3 L 118.2 374 L 133.3 251.8 L 148.4 246.8 L 163.5 374 L 178.6 250.6 L 193.7 250.6 L 208.8 374 L 223.9 374 L 239 374 L 254.1 374 L 269.2 374 L 284.3 374 L 299.4 374 L 314.4 280.3 L 329.6 285.6 L 344.7 374 L 359.7 374 L 374.8 374 L 389.9 314.6 L 405 265.6 L 420.1 374 L 435.2 320.7 L 450.3 328.2 L 465.4 314.9 L 480.5 323.1 L 495.6 374 L 510.7 374 L 525.8 374 L 540.9 352 L 556 374 L 571.1 347.6 L 586.2 350.1 L 601.3 374 L 616.4 344.1 L 631.5 374 L 646.6 347 L 661.6 374 L 676.7 374 L 691.9 310.2 L 706.9 374 L 722 346.7 L 737.1 374 L 752.2 341 L 767.3 342.3 L 782.4 319.4 L 797.5 348.5 L 812.6 374 L 827.7 355.5 L 842.8 331.1 L 857.9 374 L 873 334.2 L 888.1 339.8 L 903.2 356.3 L 918.3 357.9 L 933.4 374 L 948.5 335.8 L 963.6 374 L 978.6 343.8 L 993.8 345.9 L 1008.9 339.8 L 1023.9 348.8 L 1039 366.6 L 1054.2 354.1 L 1069.2 357.2 L 1084.3 363.9 L 1099.4 359.9 L 1114.5 361.7 L 1129.6 363.5 L 1144.7 329.7 L 1159.8 327.4 L 1174.9 350.4 L 1190 338.1 L 1205.1 338.5 L 1220.2 356.6 L 1235.3 346.7 L 1250.4 355.9 L 1265.5 351.2 L 1275.5 351.2" fill="none"  stroke-opacity="0.000001" stroke="rgb(192,192,192)" stroke-linejoin="bevel" stroke-width="22" visibility="visible" style="cursor:pointer;"></path></g><g  transform="translate(74,20)" clip-path="url(#highcharts-32)"><path d="M 2.5 374 L 12.5 374 L 27.7 374 L 42.7 374 L 57.8 374 L 72.9 374 L 88 271 L 103.1 374 L 118.2 374 L 133.3 374 L 148.4 374 L 163.5 374 L 178.6 250.6 L 193.7 374 L 208.8 255.3 L 223.9 374 L 239 374 L 254.1 374 L 269.2 160.9 L 284.3 374 L 299.4 374 L 314.4 374 L 329.6 374 L 344.7 374 L 359.7 374 L 374.8 374 L 389.9 374 L 405 374 L 420.1 374 L 435.2 374 L 450.3 374 L 465.4 374 L 480.5 374 L 495.6 374 L 510.7 374 L 525.8 374 L 540.9 374 L 556 374 L 571.1 374 L 586.2 374 L 601.3 374 L 616.4 374 L 631.5 374 L 646.6 374 L 661.6 374 L 676.7 344.8 L 691.9 374 L 706.9 314.5 L 722 374 L 737.1 374 L 752.2 374 L 767.3 374 L 782.4 346.7 L 797.5 374 L 812.6 307.9 L 827.7 355.5 L 842.8 352.5 L 857.9 374 L 873 354.1 L 888.1 356.9 L 903.2 356.3 L 918.3 357.9 L 933.4 358.8 L 948.5 361.3 L 963.6 374 L 978.6 343.8 L 993.8 345.9 L 1008.9 365.5 L 1023.9 357.2 L 1039 351.9 L 1054.2 360.8 L 1069.2 374 L 1084.3 353.7 L 1099.4 336.5 L 1114.5 349.5 L 1129.6 349.5 L 1144.7 361.3 L 1159.8 344.9 L 1174.9 359.3 L 1190 352.4 L 1205.1 357.3 L 1220.2 346.9 L 1235.3 348.6 L 1250.4 351.3 L 1265.5 374 L 1275.5 374" fill="none"  stroke-opacity="0.000001" stroke="rgb(192,192,192)" stroke-linejoin="bevel" stroke-width="22" visibility="visible" style="cursor:pointer;"></path></g></g></svg>