<?xml version="1.0" standalone="no"?><!DOCTYPE svg PUBLIC "-//W3C//DTD SVG 1.1//EN" "http://www.w3.org/Graphics/SVG/1.1/DTD/svg11.dtd"><svg xmlns:xlink="http://www.w3.org/1999/xlink" xmlns="http://www.w3.org/2000/svg" version="1.1" width="1362" height="450"><defs><clipPath id="highcharts-18"><rect rx="0" ry="0" fill="none" x="0" y="0" width="1281" height="375" stroke-width="0.000001"></rect></clipPath></defs><rect rx="5" ry="5" fill="#FFFFFF" x="0" y="0" width="1362" height="450" stroke-width="0.000001" stroke="#4572A7"></rect><g class="highcharts-grid" ></g><g class="highcharts-grid" ></g><g class="highcharts-series-group" ><g class="highcharts-series" visibility="visible" transform="translate(71,20)" clip-path="url(#highcharts-18)"><path d="M 12.6 374 L 27.7 374 L 42.8 374 L 58 213.3 L 73.1 374 L 88.2 296.7 L 103.4 374 L 118.5 300.7 L 133.6 221.2 L 148.8 278.6 L 163.9 202.4 L 179 281.4 L 194.1 343.1 L 209.3 195.9 L 224.4 278.6 L 239.5 285 L 254.7 257.5 L 269.8 320.7 L 284.9 296.7 L 300.1 73.9 L 315.2 256.8 L 330.3 197.2 L 345.5 292.5 L 360.6 271.5 L 375.7 251.2 L 390.9 314.6 L 406 306.2 L 421.1 300.7 L 436.2 294.1 L 451.4 282.3 L 466.5 329.7 L 481.6 323.1 L 496.8 362.7 L 511.9 304.2 L 527 348.3 L 542.2 329.9 L 557.3 352.4 L 572.4 334.4 L 587.6 344.1 L 602.7 317.7 L 617.8 306.7 L 633 295.3 L 648.1 299.8 L 663.2 320.5 L 678.3 315.6 L 693.5 326.2 L 708.6 336.8 L 723.7 305.8 L 738.8 353.7 L 754 324.5 L 769.1 350.2 L 784.2 319.4 L 799.4 342.1 L 814.5 352 L 829.7 313.8 L 844.8 309.6 L 859.9 346.2 L 875.1 344.2 L 890.2 322.6 L 905.3 320.8 L 920.4 333.6 L 935.6 309.5 L 950.7 332.6 L 965.8 339.2 L 980.9 323.7 L 996.1 336.5 L 1011.2 352.6 L 1026.3 338.3 L 1041.5 333.6 L 1056.6 339.2 L 1071.7 346 L 1086.9 344.9 L 1102 348.2 L 1117.2 350.5 L 1132.3 345.1 L 1147.4 334.5 L 1162.5 333.2 L 1177.7 346.7 L 1192.8 341 L 1207.9 332.8 L 1223 337.3 L 1238.2 326.7 L 1253.3 324.2 L 1268.4 277" fill="none" stroke="#1F77B4" stroke-width="2"></path></g><g class="highcharts-series" visibility="visible" transform="translate(71,20)" clip-path="url(#highcharts-18)"><path d="M 12.6 339.4 L 27.7 301.5 L 42.8 257.5 L 58 149.1 L 73.1 273.5 L 88.2 322.5 L 103.4 314.6 L 118.5 374 L 133.6 190.7 L 148.8 215 L 163.9 202.4 L 179 158 L 194.1 250.6 L 209.3 285 L 224.4 342.2 L 239.5 195.9 L 254.7 257.5 L 269.8 214.2 L 284.9 245.2 L 300.1 327.8 L 315.2 256.8 L 330.3 307.7 L 345.5 190.7 L 360.6 271.5 L 375.7 297.2 L 390.9 314.6 L 406 319.8 L 421.1 276.2 L 436.2 240.8 L 451.4 328.2 L 466.5 314.9 L 481.6 310.4 L 496.8 328.8 L 511.9 350.7 L 527 348.3 L 542.2 318.9 L 557.3 314.5 L 572.4 314.6 L 587.6 320.3 L 602.7 331.8 L 617.8 351.6 L 633 311 L 648.1 299.8 L 663.2 313.8 L 678.3 344.8 L 693.5 318.2 L 708.6 292.2 L 723.7 319.4 L 738.8 319.8 L 754 357.5 L 769.1 326.4 L 784.2 305.8 L 799.4 310.3 L 814.5 329.9 L 829.7 299.9 L 844.8 304.3 L 859.9 309.2 L 875.1 319.3 L 890.2 292.7 L 905.3 320.8 L 920.4 321.5 L 935.6 317.1 L 950.7 319.9 L 965.8 328.5 L 980.9 333.8 L 996.1 329.5 L 1011.2 335.5 L 1026.3 350.9 L 1041.5 337.2 L 1056.6 335.9 L 1071.7 348.8 L 1086.9 333.5 L 1102 335.3 L 1117.2 325.9 L 1132.3 319.7 L 1147.4 320.2 L 1162.5 321.6 L 1177.7 321.7 L 1192.8 338.1 L 1207.9 333.8 L 1223 336.8 L 1238.2 321.8 L 1253.3 319.6 L 1268.4 339.8" fill="none" stroke="#FF7F0E" stroke-width="2"></path></g><g class="highcharts-series" visibility="visible" transform="translate(71,20)" clip-path="url(#highcharts-18)"><path d="M 12.6 374 L 27.7 374 L 42.8 315.7 L 58 341.9 L 73.1 374 L 88.2 348.2 L 103.4 344.3 L 118.5 374 L 133.6 343.4 L 148.8 342.2 L 163.9 316.8 L 179 312.3 L 194.1 343.1 L 209.3 285 L 224.4 374 L 239.5 374 L 254.7 344.9 L 269.8 347.4 L 284.9 271 L 300.1 327.8 L 315.2 374 L 330.3 329.8 L 345.5 292.5 L 360.6 353.5 L 375.7 327.9 L 390.9 359.2 L 406 319.8 L 421.1 337.3 L 436.2 334 L 451.4 351.1 L 466.5 359.2 L 481.6 335.8 L 496.8 351.4 L 511.9 358.5 L 527 361.2 L 542.2 363 L 557.3 346.9 L 572.4 354.2 L 587.6 332.2 L 602.7 331.8 L 617.8 351.6 L 633 342.5 L 648.1 347 L 663.2 327.2 L 678.3 344.8 L 693.5 350.1 L 708.6 344.2 L 723.7 271.7 L 738.8 218.2 L 754 217.3 L 769.1 342.3 L 784.2 299 L 799.4 323 L 814.5 307.9 L 829.7 281.4 L 844.8 309.6 L 859.9 332.3 L 875.1 324.3 L 890.2 335.5 L 905.3 329.7 L 920.4 321.5 L 935.6 339.9 L 950.7 329.4 L 965.8 333.9 L 980.9 343.8 L 996.1 320.1 L 1011.2 331.3 L 1026.3 327.8 L 1041.5 342.8 L 1056.6 339.2 L 1071.7 320.8 L 1086.9 342.3 L 1102 349.4 L 1117.2 345.4 L 1132.3 351.2 L 1147.4 347.9 L 1162.5 329.6 L 1177.7 341.6 L 1192.8 336.3 L 1207.9 323.9 L 1223 328.1 L 1238.2 310.1 L 1253.3 309.4 L 1268.4 311.2" fill="none" stroke="#2CA02C" stroke-width="2"></path></g><g class="highcharts-series" visibility="visible" transform="translate(71,20)" clip-path="url(#highcharts-18)"><path d="M 12.6 304.7 L 27.7 337.8 L 42.8 315.7 L 58 309.7 L 73.1 374 L 88.2 322.5 L 103.4 374 L 118.5 264 L 133.6 374 L 148.8 246.8 L 163.9 259.6 L 179 250.6 L 194.1 250.6 L 209.3 344.3 L 224.4 278.6 L 239.5 344.3 L 254.7 286.6 L 269.8 347.4 L 284.9 271 L 300.1 281.7 L 315.2 350.6 L 330.3 285.6 L 345.5 292.5 L 360.6 353.5 L 375.7 266.5 L 390.9 359.2 L 406 306.2 L 421.1 337.3 L 436.2 320.7 L 451.4 339.6 L 466.5 359.2 L 481.6 285 L 496.8 340.1 L 511.9 343 L 527 361.2 L 542.2 341 L 557.3 330.7 L 572.4 341 L 587.6 344.1 L 602.7 317.7 L 617.8 336.6 L 633 342.5 L 648.1 272.8 L 663.2 327.2 L 678.3 271.8 L 693.5 358.1 L 708.6 329.4 L 723.7 292.2 L 738.8 340.1 L 754 341 L 769.1 342.3 L 784.2 292.2 L 799.4 259.3 L 814.5 296.9 L 829.7 262.9 L 844.8 325.7 L 859.9 313.8 L 875.1 299.4 L 890.2 314.1 L 905.3 289.8 L 920.4 269 L 935.6 313.3 L 950.7 300.8 L 965.8 333.9 L 980.9 316.1 L 996.1 306.1 L 1011.2 322.7 L 1026.3 336.2 L 1041.5 344.6 L 1056.6 326 L 1071.7 322.2 L 1086.9 346.1 L 1102 341.2 L 1117.2 337.2 L 1132.3 336.3 L 1147.4 329.7 L 1162.5 341.2 L 1177.7 344.5 L 1192.8 341 L 1207.9 320.8 L 1223 331.5 L 1238.2 330.1 L 1253.3 326.4 L 1268.4 305.5" fill="none" stroke="#D62728" stroke-width="2"></path></g><g class="highcharts-series" visibility="visible" transform="translate(71,20)" clip-path="url(#highcharts-18)"><path d="M 12.6 339.4 L 27.7 374 L 42.8 374 L 58 374 L 73.1 348.9 L 88.2 374 L 103.4 374 L 118.5 337.3 L 133.6 374 L 148.8 374 L 163.9 316.8 L 179 250.6 L 194.1 312.3 L 209.3 314.6 L 224.4 278.6 L 239.5 285 L 254.7 374 L 269.8 347.4 L 284.9 271 L 300.1 281.7 L 315.2 303.7 L 330.3 329.8 L 345.5 353.6 L 360.6 292 L 375.7 251.2 L 390.9 344.3 L 406 265.6 L 421.1 325.1 L 436.2 240.8 L 451.4 362.5 L 466.5 329.7 L 481.6 348.6 L 496.8 328.8 L 511.9 350.7 L 527 354.8 L 542.2 363 L 557.3 352.4 L 572.4 360.8 L 587.6 344.1 L 602.7 345.9 L 617.8 336.6 L 633 358.3 L 648.1 340.3 L 663.2 347.2 L 678.3 352.1 L 693.5 310.2 L 708.6 284.7 L 723.7 299 L 738.8 346.9 L 754 341 L 769.1 326.4 L 784.2 339.9 L 799.4 316.6 L 814.5 329.9 L 829.7 355.5 L 844.8 298.9 L 859.9 355.5 L 875.1 324.3 L 890.2 335.5 L 905.3 347.4 L 920.4 349.8 L 935.6 336.1 L 950.7 339 L 965.8 341.9 L 980.9 326.2 L 996.1 334.2 L 1011.2 324.9 L 1026.3 340.4 L 1041.5 329.9 L 1056.6 334.3 L 1071.7 346 L 1086.9 338.5 L 1102 336.5 L 1117.2 334.1 L 1132.3 313.6 L 1147.4 317.1 L 1162.5 338.3 L 1177.7 329 L 1192.8 335.7 L 1207.9 325.5 L 1223 336.3 L 1238.2 327.7 L 1253.3 332.1 L 1268.4 345.5" fill="none" stroke="#9467BD" stroke-width="2"></path></g><g class="highcharts-series" visibility="visible" transform="translate(71,20)" clip-path="url(#highcharts-18)"><path d="M 12.6 374 L 27.7 374 L 42.8 374 L 58 374 L 73.1 374 L 88.2 348.2 L 103.4 374 L 118.5 337.3 L 133.6 374 L 148.8 342.2 L 163.9 374 L 179 374 L 194.1 250.6 L 209.3 344.3 L 224.4 374 L 239.5 374 L 254.7 374 L 269.8 347.4 L 284.9 348.2 L 300.1 350.9 L 315.2 374 L 330.3 351.9 L 345.5 272.1 L 360.6 374 L 375.7 327.9 L 390.9 374 L 406 360.4 L 421.1 374 L 436.2 360.7 L 451.4 362.5 L 466.5 359.2 L 481.6 361.3 L 496.8 374 L 511.9 366.2 L 527 361.2 L 542.2 346.5 L 557.3 346.9 L 572.4 354.2 L 587.6 368 L 602.7 352.9 L 617.8 351.6 L 633 342.5 L 648.1 360.5 L 663.2 353.9 L 678.3 352.1 L 693.5 358.1 L 708.6 351.7 L 723.7 319.4 L 738.8 279.1 L 754 283.3 L 769.1 326.4 L 784.2 299 L 799.4 265.6 L 814.5 324.4 L 829.7 304.5 L 844.8 320.4 L 859.9 350.8 L 875.1 339.2 L 890.2 326.9 L 905.3 325.2 L 920.4 305.4 L 935.6 317.1 L 950.7 326.2 L 965.8 325.8 L 980.9 318.7 L 996.1 317.8 L 1011.2 320.6 L 1026.3 306.8 L 1041.5 322.5 L 1056.6 327.6 L 1071.7 348.8 L 1086.9 328.4 L 1102 328.3 L 1117.2 330 L 1132.3 333.7 L 1147.4 318.6 L 1162.5 332.5 L 1177.7 332.7 L 1192.8 324.9 L 1207.9 318.2 L 1223 328.6 L 1238.2 321.8 L 1253.3 314 L 1268.4 299.8" fill="none" stroke="#8C564B" stroke-width="2"></path></g><g class="highcharts-series" visibility="visible" transform="translate(71,20)" clip-path="url(#highcharts-18)"><path d="M 12.6 374 L 27.7 374 L 42.8 344.9 L 58 374 L 73.1 374 L 88.2 348.2 L 103.4 344.3 L 118.5 337.3 L 133.6 374 L 148.8 342.2 L 163.9 345.4 L 179 343.1 L 194.1 374 L 209.3 314.6 L 224.4 342.2 L 239.5 374 L 254.7 315.7 L 269.8 374 L 284.9 245.2 L 300.1 258.6 L 315.2 350.6 L 330.3 285.6 L 345.5 292.5 L 360.6 333 L 375.7 312.6 L 390.9 359.2 L 406 333.3 L 421.1 325.1 L 436.2 347.4 L 451.4 339.6 L 466.5 344.5 L 481.6 310.4 L 496.8 328.8 L 511.9 327.5 L 527 329.1 L 542.2 346.5 L 557.3 341.5 L 572.4 327.8 L 587.6 314.3 L 602.7 345.9 L 617.8 306.7 L 633 326.8 L 648.1 313.3 L 663.2 327.2 L 678.3 359.4 L 693.5 326.2 L 708.6 329.4 L 723.7 292.2 L 738.8 319.8 L 754 316.3 L 769.1 342.3 L 784.2 339.9 L 799.4 310.3 L 814.5 313.4 L 829.7 327.7 L 844.8 320.4 L 859.9 249 L 875.1 289.5 L 890.2 279.8 L 905.3 272 L 920.4 281.1 L 935.6 290.6 L 950.7 307.1 L 965.8 312.5 L 980.9 318.7 L 996.1 315.5 L 1011.2 339.8 L 1026.3 317.3 L 1041.5 331.7 L 1056.6 337.6 L 1071.7 348.8 L 1086.9 314.5 L 1102 321.3 L 1117.2 335.1 L 1132.3 303.9 L 1147.4 315.5 L 1162.5 328.9 L 1177.7 306.2 L 1192.8 317.1 L 1207.9 308.3 L 1223 332.9 L 1238.2 324.3 L 1253.3 327 L 1268.4 316.9" fill="none" stroke="#E377C2" stroke-width="2"></path></g><g class="highcharts-series" visibility="visible" transform="translate(71,20)" clip-path="url(#highcharts-18)"><path d="M 12.6 339.4 L 27.7 374 L 42.8 374 L 58 341.9 L 73.1 374 L 88.2 271 L 103.4 374 L 118.5 374 L 133.6 312.9 L 148.8 278.6 L 163.9 345.4 L 179 281.4 L 194.1 343.1 L 209.3 374 L 224.4 342.2 L 239.5 285 L 254.7 315.7 L 269.8 240.8 L 284.9 245.2 L 300.1 281.7 L 315.2 350.6 L 330.3 285.6 L 345.5 333.3 L 360.6 312.5 L 375.7 312.6 L 390.9 314.6 L 406 319.8 L 421.1 325.1 L 436.2 320.7 L 451.4 351.1 L 466.5 374 L 481.6 361.3 L 496.8 340.1 L 511.9 343 L 527 335.5 L 542.2 296.9 L 557.3 341.5 L 572.4 327.8 L 587.6 332.2 L 602.7 331.8 L 617.8 344.1 L 633 271.7 L 648.1 326.8 L 663.2 320.5 L 678.3 330.2 L 693.5 342.1 L 708.6 351.7 L 723.7 326.3 L 738.8 319.8 L 754 308 L 769.1 350.2 L 784.2 360.4 L 799.4 323 L 814.5 324.4 L 829.7 346.2 L 844.8 341.8 L 859.9 346.2 L 875.1 314.4 L 890.2 322.6 L 905.3 329.7 L 920.4 333.6 L 935.6 332.3 L 950.7 326.2 L 965.8 344.6 L 980.9 333.8 L 996.1 350.6 L 1011.2 348.4 L 1026.3 329.9 L 1041.5 350.1 L 1056.6 326 L 1071.7 346 L 1086.9 325.9 L 1102 327.1 L 1117.2 337.2 L 1132.3 324.9 L 1147.4 328.1 L 1162.5 330.3 L 1177.7 344.5 L 1192.8 334.5 L 1207.9 352.6 L 1223 346 L 1238.2 329.6 L 1253.3 328.1 L 1268.4 311.2" fill="none" stroke="#7F7F7F" stroke-width="2"></path></g><g class="highcharts-series" visibility="visible" transform="translate(71,20)" clip-path="url(#highcharts-18)"><path d="M 12.6 374 L 27.7 374 L 42.8 374 L 58 374 L 73.1 374 L 88.2 322.5 L 103.4 374 L 118.5 374 L 133.6 312.9 L 148.8 342.2 L 163.9 345.4 L 179 343.1 L 194.1 374 L 209.3 374 L 224.4 342.2 L 239.5 374 L 254.7 374 L 269.8 374 L 284.9 374 L 300.1 350.9 L 315.2 374 L 330.3 351.9 L 345.5 374 L 360.6 374 L 375.7 358.6 L 390.9 374 L 406 360.4 L 421.1 361.8 L 436.2 360.7 L 451.4 362.5 L 466.5 374 L 481.6 374 L 496.8 374 L 511.9 374 L 527 361.2 L 542.2 368.5 L 557.3 374 L 572.4 374 L 587.6 374 L 602.7 374 L 617.8 366.5 L 633 358.3 L 648.1 360.5 L 663.2 353.9 L 678.3 359.4 L 693.5 366 L 708.6 374 L 723.7 333.1 L 738.8 333.3 L 754 316.3 L 769.1 366.1 L 784.2 374 L 799.4 374 L 814.5 357.5 L 829.7 374 L 844.8 357.9 L 859.9 364.7 L 875.1 354.1 L 890.2 361.2 L 905.3 374 L 920.4 365.9 L 935.6 366.4 L 950.7 367.6 L 965.8 371.3 L 980.9 369 L 996.1 374 L 1011.2 369.7 L 1026.3 369.8 L 1041.5 372.2 L 1056.6 367.4 L 1071.7 369.8 L 1086.9 363.9 L 1102 369.3 L 1117.2 372 L 1132.3 367.9 L 1147.4 371.6 L 1162.5 372.5 L 1177.7 372.5 L 1192.8 371 L 1207.9 369.3 L 1223 370.1 L 1238.2 371.6 L 1253.3 368.3 L 1268.4 374" fill="none" stroke="#BCBD22" stroke-width="2"></path></g><g class="highcharts-series" visibility="visible" transform="translate(71,20)" clip-path="url(#highcharts-18)"><path d="M 12.6 374 L 27.7 337.8 L 42.8 257.5 L 58 309.7 L 73.1 374 L 88.2 322.5 L 103.4 314.6 L 118.5 300.7 L 133.6 190.7 L 148.8 342.2 L 163.9 202.4 L 179 188.9 L 194.1 312.3 L 209.3 285 L 224.4 310.4 L 239.5 314.6 L 254.7 374 L 269.8 267.4 L 284.9 322.5 L 300.1 350.9 L 315.2 256.8 L 330.3 285.6 L 345.5 353.6 L 360.6 333 L 375.7 327.9 L 390.9 314.6 L 406 333.3 L 421.1 349.6 L 436.2 320.7 L 451.4 339.6 L 466.5 359.2 L 481.6 323.1 L 496.8 374 L 511.9 358.5 L 527 374 L 542.2 335.5 L 557.3 357.8 L 572.4 341 L 587.6 356.1 L 602.7 345.9 L 617.8 351.6 L 633 342.5 L 648.1 347 L 663.2 333.9 L 678.3 344.8 L 693.5 366 L 708.6 344.2 L 723.7 333.1 L 738.8 353.7 L 754 349.3 L 769.1 310.6 L 784.2 326.3 L 799.4 335.8 L 814.5 357.5 L 829.7 355.5 L 844.8 325.7 L 859.9 341.6 L 875.1 349.1 L 890.2 348.3 L 905.3 334.1 L 920.4 341.7 L 935.6 336.1 L 950.7 326.2 L 965.8 333.9 L 980.9 341.3 L 996.1 350.6 L 1011.2 342 L 1026.3 346.7 L 1041.5 350.1 L 1056.6 345.8 L 1071.7 353 L 1086.9 338.5 L 1102 328.3 L 1117.2 336.2 L 1132.3 342.5 L 1147.4 337.6 L 1162.5 339.1 L 1177.7 339.4 L 1192.8 343.4 L 1207.9 342.7 L 1223 344 L 1238.2 339.9 L 1253.3 339.4 L 1268.4 356.9" fill="none" stroke="#17BECF" stroke-width="2"></path></g></g><g class="highcharts-legend"  transform="translate(110,20)"><text x="7" y="18" style="font-family:'open sans', 'lucida sans unicode', verdana, arial, helvetica, sans-serif;font-size:110%;cursor:pointer;color:#3e576f;font-weight:bold;fill:#3e576f;" text-anchor="start" ><tspan style="fill: #1f77b4;" x="7">new orleans [all  texts; 87K  texts, 644M words]</tspan></text><path d="M 2 0 L 2 0" fill="none" stroke-width="2"  stroke="#1F77B4" transform="translate(7,14)"></path><text x="7" y="36" style="font-family:'open sans', 'lucida sans unicode', verdana, arial, helvetica, sans-serif;font-size:110%;cursor:pointer;color:#3e576f;font-weight:bold;fill:#3e576f;" text-anchor="start" ><tspan style="fill: #ff7f0e;" x="7">philadelphia [all  texts; 87K  texts, 644M words]</tspan></text><path d="M 2 0 L 2 0" fill="none" stroke-width="2"  stroke="#FF7F0E" transform="translate(7,32)"></path><text x="7" y="54" style="font-family:'open sans', 'lucida sans unicode', verdana, arial, helvetica, sans-serif;font-size:110%;cursor:pointer;color:#3e576f;font-weight:bold;fill:#3e576f;" text-anchor="start" ><tspan style="fill: #2ca02c;" x="7">dallas [all  texts; 87K  texts, 644M words]</tspan></text><path d="M 2 0 L 2 0" fill="none" stroke-width="2"  stroke="#2CA02C" transform="translate(7,50)"></path><text x="7" y="72" style="font-family:'open sans', 'lucida sans unicode', verdana, arial, helvetica, sans-serif;font-size:110%;cursor:pointer;color:#3e576f;font-weight:bold;fill:#3e576f;" text-anchor="start" ><tspan style="fill: #d62728;" x="7">detroit [all  texts; 87K  texts, 644M words]</tspan></text><path d="M 2 0 L 2 0" fill="none" stroke-width="2"  stroke="#D62728" transform="translate(7,68)"></path><text x="7" y="90" style="font-family:'open sans', 'lucida sans unicode', verdana, arial, helvetica, sans-serif;font-size:110%;cursor:pointer;color:#3e576f;font-weight:bold;fill:#3e576f;" text-anchor="start" ><tspan style="fill: #9467bd;" x="7">san diego [all  texts; 87K  texts, 644M words]</tspan></text><path d="M 2 0 L 2 0" fill="none" stroke-width="2"  stroke="#9467BD" transform="translate(7,86)"></path><text x="7" y="108" style="font-family:'open sans', 'lucida sans unicode', verdana, arial, helvetica, sans-serif;font-size:110%;cursor:pointer;color:#3e576f;font-weight:bold;fill:#3e576f;" text-anchor="start" ><tspan style="fill: #8c564b;" x="7">houston [all  texts; 87K  texts, 644M words]</tspan></text><path d="M 2 0 L 2 0" fill="none" stroke-width="2"  stroke="#8C564B" transform="translate(7,104)"></path><text x="7" y="126" style="font-family:'open sans', 'lucida sans unicode', verdana, arial, helvetica, sans-serif;font-size:110%;cursor:pointer;color:#3e576f;font-weight:bold;fill:#3e576f;" text-anchor="start" ><tspan style="fill: #e377c2;" x="7">phoenix [all  texts; 87K  texts, 644M words]</tspan></text><path d="M 2 0 L 2 0" fill="none" stroke-width="2"  stroke="#E377C2" transform="translate(7,122)"></path><text x="7" y="144" style="font-family:'open sans', 'lucida sans unicode', verdana, arial, helvetica, sans-serif;font-size:110%;cursor:pointer;color:#3e576f;font-weight:bold;fill:#3e576f;" text-anchor="start" ><tspan style="fill: #7f7f7f;" x="7">denver [all  texts; 87K  texts, 644M words]</tspan></text><path d="M 2 0 L 2 0" fill="none" stroke-width="2"  stroke="#7F7F7F" transform="translate(7,140)"></path><text x="7" y="162" style="font-family:'open sans', 'lucida sans unicode', verdana, arial, helvetica, sans-serif;font-size:110%;cursor:pointer;color:#3e576f;font-weight:bold;fill:#3e576f;" text-anchor="start" ><tspan style="fill: #bcbd22;" x="7">fort worth [all  texts; 87K  texts, 644M words]</tspan></text><path d="M 2 0 L 2 0" fill="none" stroke-width="2"  stroke="#BCBD22" transform="translate(7,158)"></path><text x="7" y="180" style="font-family:'open sans', 'lucida sans unicode', verdana, arial, helvetica, sans-serif;font-size:110%;cursor:pointer;color:#3e576f;font-weight:bold;fill:#3e576f;" text-anchor="start" ><tspan style="fill: #17becf;" x="7">baltimore [all  texts; 87K  texts, 644M words]</tspan></text><path d="M 2 0 L 2 0" fill="none" stroke-width="2"  stroke="#17BECF" transform="translate(7,176)"></path></g><g class="highcharts-axis" ><text x="206.90054861936792" y="408" style="font-family:'open sans', 'lucida sans unicode', verdana, arial, helvetica, sans-serif;font-size:12;color:#666;line-height:14px;fill:#666;" text-anchor="middle" visibility="visible"><tspan x="206.90054861936792">1940</tspan></text><text x="358.2311408904084" y="408" style="font-family:'open sans', 'lucida sans unicode', verdana, arial, helvetica, sans-serif;font-size:12;color:#666;line-height:14px;fill:#666;" text-anchor="middle" visibility="visible"><tspan x="358.2311408904084">1950</tspan></text><text x="509.5203067742956" y="408" style="font-family:'open sans', 'lucida sans unicode', verdana, arial, helvetica, sans-serif;font-size:12;color:#666;line-height:14px;fill:#666;" text-anchor="middle" visibility="visible"><tspan x="509.5203067742956">1960</tspan></text><text x="660.8508990453361" y="408" style="font-family:'open sans', 'lucida sans unicode', verdana, arial, helvetica, sans-serif;font-size:12;color:#666;line-height:14px;fill:#666;" text-anchor="middle" visibility="visible"><tspan x="660.8508990453361">1970</tspan></text><text x="812.1400649292232" y="408" style="font-family:'open sans', 'lucida sans unicode', verdana, arial, helvetica, sans-serif;font-size:12;color:#666;line-height:14px;fill:#666;" text-anchor="middle" visibility="visible"><tspan x="812.1400649292232">1980</tspan></text><text x="963.4706572002636" y="408" style="font-family:'open sans', 'lucida sans unicode', verdana, arial, helvetica, sans-serif;font-size:12;color:#666;line-height:14px;fill:#666;" text-anchor="middle" visibility="visible"><tspan x="963.4706572002636">1990</tspan></text><text x="1114.7598230841509" y="408" style="font-family:'open sans', 'lucida sans unicode', verdana, arial, helvetica, sans-serif;font-size:12;color:#666;line-height:14px;fill:#666;" text-anchor="middle" visibility="visible"><tspan x="1114.7598230841509">2000</tspan></text><text x="1266.0904153551915" y="408" style="font-family:'open sans', 'lucida sans unicode', verdana, arial, helvetica, sans-serif;font-size:12;color:#666;line-height:14px;fill:#666;" text-anchor="middle" visibility="visible"><tspan x="1266.0904153551915">2010</tspan></text><text x="131.25596567742434" y="408" style="font-family:'open sans', 'lucida sans unicode', verdana, arial, helvetica, sans-serif;font-size:12;color:#666;line-height:14px;fill:#666;" text-anchor="middle" visibility="visible"><tspan x="131.25596567742434">1935</tspan></text><text x="282.5865579484648" y="408" style="font-family:'open sans', 'lucida sans unicode', verdana, arial, helvetica, sans-serif;font-size:12;color:#666;line-height:14px;fill:#666;" text-anchor="middle" visibility="visible"><tspan x="282.5865579484648">1945</tspan></text><text x="433.875723832352" y="408" style="font-family:'open sans', 'lucida sans unicode', verdana, arial, helvetica, sans-serif;font-size:12;color:#666;line-height:14px;fill:#666;" text-anchor="middle" visibility="visible"><tspan x="433.875723832352">1955</tspan></text><text x="585.2063161033925" y="408" style="font-family:'open sans', 'lucida sans unicode', verdana, arial, helvetica, sans-serif;font-size:12;color:#666;line-height:14px;fill:#666;" text-anchor="middle" visibility="visible"><tspan x="585.2063161033925">1965</tspan></text><text x="736.4954819872796" y="408" style="font-family:'open sans', 'lucida sans unicode', verdana, arial, helvetica, sans-serif;font-size:12;color:#666;line-height:14px;fill:#666;" text-anchor="middle" visibility="visible"><tspan x="736.4954819872796">1975</tspan></text><text x="887.8260742583201" y="408" style="font-family:'open sans', 'lucida sans unicode', verdana, arial, helvetica, sans-serif;font-size:12;color:#666;line-height:14px;fill:#666;" text-anchor="middle" visibility="visible"><tspan x="887.8260742583201">1985</tspan></text><text x="1039.1152401422073" y="408" style="font-family:'open sans', 'lucida sans unicode', verdana, arial, helvetica, sans-serif;font-size:12;color:#666;line-height:14px;fill:#666;" text-anchor="middle" visibility="visible"><tspan x="1039.1152401422073">1995</tspan></text><text x="1190.445832413248" y="408" style="font-family:'open sans', 'lucida sans unicode', verdana, arial, helvetica, sans-serif;font-size:12;color:#666;line-height:14px;fill:#666;" text-anchor="middle" visibility="visible"><tspan x="1190.445832413248">2005</tspan></text><text x="1338.28125" y="408" style="font-family:'open sans', 'lucida sans unicode', verdana, arial, helvetica, sans-serif;font-size:12;color:#666;line-height:14px;fill:#666;" text-anchor="middle" visibility="visible"><tspan x="1338.28125">2015</tspan></text><path d="M 207.5 394 L 207.5 399" fill="none" stroke="#C0D0E0" stroke-width="1"></path><path d="M 283.5 394 L 283.5 399" fill="none" stroke="#C0D0E0" stroke-width="1"></path><path d="M 358.5 394 L 358.5 399" fill="none" stroke="#C0D0E0" stroke-width="1"></path><path d="M 434.5 394 L 434.5 399" fill="none" stroke="#C0D0E0" stroke-width="1"></path><path d="M 510.5 394 L 510.5 399" fill="none" stroke="#C0D0E0" stroke-width="1"></path><path d="M 585.5 394 L 585.5 399" fill="none" stroke="#C0D0E0" stroke-width="1"></path><path d="M 661.5 394 L 661.5 399" fill="none" stroke="#C0D0E0" stroke-width="1"></path><path d="M 736.5 394 L 736.5 399" fill="none" stroke="#C0D0E0" stroke-width="1"></path><path d="M 812.5 394 L 812.5 399" fill="none" stroke="#C0D0E0" stroke-width="1"></path><path d="M 888.5 394 L 888.5 399" fill="none" stroke="#C0D0E0" stroke-width="1"></path><path d="M 963.5 394 L 963.5 399" fill="none" stroke="#C0D0E0" stroke-width="1"></path><path d="M 1039.5 394 L 1039.5 399" fill="none" stroke="#C0D0E0" stroke-width="1"></path><path d="M 1115.5 394 L 1115.5 399" fill="none" stroke="#C0D0E0" stroke-width="1"></path><path d="M 1190.5 394 L 1190.5 399" fill="none" stroke="#C0D0E0" stroke-width="1"></path><path d="M 1266.5 394 L 1266.5 399" fill="none" stroke="#C0D0E0" stroke-width="1"></path><path d="M 1342.5 394 L 1342.5 399" fill="none" stroke="#C0D0E0" stroke-width="1"></path><path d="M 131.5 394 L 131.5 399" fill="none" stroke="#C0D0E0" stroke-width="1"></path></g><text x="711.5" y="430" style="font-family:'open sans', 'lucida sans unicode', verdana, arial, helvetica, sans-serif;font-size:14;color:#000000;font-weight:normal;fill:#000000;"  text-anchor="middle" visibility="visible"><tspan x="711.5">year</tspan></text><g class="highcharts-axis" ><text x="63" y="398.1" style="font-family:'open sans', 'lucida sans unicode', verdana, arial, helvetica, sans-serif;font-size:12;width:618px;color:#666;line-height:14px;fill:#666;" text-anchor="end" visibility="visible"><tspan x="63">0%</tspan></text><text x="63" y="335.7666666666667" style="font-family:'open sans', 'lucida sans unicode', verdana, arial, helvetica, sans-serif;font-size:12;width:618px;color:#666;line-height:14px;fill:#666;" text-anchor="end" visibility="visible"><tspan x="63">2%</tspan></text><text x="63" y="273.43333333333334" style="font-family:'open sans', 'lucida sans unicode', verdana, arial, helvetica, sans-serif;font-size:12;width:618px;color:#666;line-height:14px;fill:#666;" text-anchor="end" visibility="visible"><tspan x="63">4%</tspan></text><text x="63" y="211.1" style="font-family:'open sans', 'lucida sans unicode', verdana, arial, helvetica, sans-serif;font-size:12;width:618px;color:#666;line-height:14px;fill:#666;" text-anchor="end" visibility="visible"><tspan x="63">6%</tspan></text><text x="63" y="148.76666666666665" style="font-family:'open sans', 'lucida sans unicode', verdana, arial, helvetica, sans-serif;font-size:12;width:618px;color:#666;line-height:14px;fill:#666;" text-anchor="end" visibility="visible"><tspan x="63">8%</tspan></text><text x="63" y="86.43333333333331" style="font-family:'open sans', 'lucida sans unicode', verdana, arial, helvetica, sans-serif;font-size:12;width:618px;color:#666;line-height:14px;fill:#666;" text-anchor="end" visibility="visible"><tspan x="63">10%</tspan></text><text x="63" y="24.1" style="font-family:'open sans', 'lucida sans unicode', verdana, arial, helvetica, sans-serif;font-size:12;width:618px;color:#666;line-height:14px;fill:#666;" text-anchor="end" visibility="visible"><tspan x="63">12%</tspan></text></g><text x="29.40625" y="207" style="font-family:'open sans', 'lucida sans unicode', verdana, arial, helvetica, sans-serif;font-size:14;color:#000000;font-weight:normal;fill:#000000;"  transform="rotate(270 29.40625 207)" text-anchor="middle" visibility="visible"><tspan x="29.40625">% of Texts</tspan></text><path d="M 71 394.5 L 1352 394.5" fill="none" stroke="#555555" stroke-width="1"  visibility="visible"></path><path d="M 71.5 20 L 71.5 394" fill="none" stroke="#555555" stroke-width="1"  visibility="visible"></path><g  style="padding:0;white-space:nowrap;" visibility="hidden"><rect rx="5" ry="5" fill="none" x="0" y="0" width="0" height="0" stroke-width="5" fill-opacity="0.85" anchorX="0" anchorY="0"  stroke="rgb(0, 0, 0)" stroke-opacity="0.05" transform="translate(1,1)"></rect><rect rx="5" ry="5" fill="none" x="0" y="0" width="0" height="0" stroke-width="3" fill-opacity="0.85" anchorX="0" anchorY="0"  stroke="rgb(0, 0, 0)" stroke-opacity="0.1" transform="translate(1,1)"></rect><rect rx="5" ry="5" fill="none" x="0" y="0" width="0" height="0" stroke-width="1" fill-opacity="0.85" anchorX="0" anchorY="0"  stroke="rgb(0, 0, 0)" stroke-opacity="0.15000000000000002" transform="translate(1,1)"></rect><rect rx="5" ry="5" fill="rgb(255,255,255)" x="0" y="0" width="0" height="0" stroke-width="2" fill-opacity="0.85" anchorX="0" anchorY="0"></rect><text x="0" y="13" style="font-family:'open sans', 'lucida sans unicode', verdana, arial, helvetica, sans-serif;font-size:12px;color:#333333;fill:#333333;" ></text></g><text x="1352" y="445" style="font-family:'open sans', 'lucida sans unicode', verdana, arial, helvetica, sans-serif;font-size:10px;cursor:pointer;color:#909090;fill:#909090;" text-anchor="end" ></text><g class="highcharts-tracker" ><g  transform="translate(71,20)" clip-path="url(#highcharts-18)"><path d="M 2.5999999999999996 374 L 12.6 374 L 27.7 374 L 42.8 374 L 58 213.3 L 73.1 374 L 88.2 296.7 L 103.4 374 L 118.5 300.7 L 133.6 221.2 L 148.8 278.6 L 163.9 202.4 L 179 281.4 L 194.1 343.1 L 209.3 195.9 L 224.4 278.6 L 239.5 285 L 254.7 257.5 L 269.8 320.7 L 284.9 296.7 L 300.1 73.9 L 315.2 256.8 L 330.3 197.2 L 345.5 292.5 L 360.6 271.5 L 375.7 251.2 L 390.9 314.6 L 406 306.2 L 421.1 300.7 L 436.2 294.1 L 451.4 282.3 L 466.5 329.7 L 481.6 323.1 L 496.8 362.7 L 511.9 304.2 L 527 348.3 L 542.2 329.9 L 557.3 352.4 L 572.4 334.4 L 587.6 344.1 L 602.7 317.7 L 617.8 306.7 L 633 295.3 L 648.1 299.8 L 663.2 320.5 L 678.3 315.6 L 693.5 326.2 L 708.6 336.8 L 723.7 305.8 L 738.8 353.7 L 754 324.5 L 769.1 350.2 L 784.2 319.4 L 799.4 342.1 L 814.5 352 L 829.7 313.8 L 844.8 309.6 L 859.9 346.2 L 875.1 344.2 L 890.2 322.6 L 905.3 320.8 L 920.4 333.6 L 935.6 309.5 L 950.7 332.6 L 965.8 339.2 L 980.9 323.7 L 996.1 336.5 L 1011.2 352.6 L 1026.3 338.3 L 1041.5 333.6 L 1056.6 339.2 L 1071.7 346 L 1086.9 344.9 L 1102 348.2 L 1117.2 350.5 L 1132.3 345.1 L 1147.4 334.5 L 1162.5 333.2 L 1177.7 346.7 L 1192.8 341 L 1207.9 332.8 L 1223 337.3 L 1238.2 326.7 L 1253.3 324.2 L 1268.4 277 L 1278.4 277" fill="none"  stroke-opacity="0.000001" stroke="rgb(192,192,192)" stroke-linejoin="bevel" stroke-width="22" visibility="visible" style="cursor:pointer;"></path></g><g  transform="translate(71,20)" clip-path="url(#highcharts-18)"><path d="M 2.5999999999999996 339.4 L 12.6 339.4 L 27.7 301.5 L 42.8 257.5 L 58 149.1 L 73.1 273.5 L 88.2 322.5 L 103.4 314.6 L 118.5 374 L 133.6 190.7 L 148.8 215 L 163.9 202.4 L 179 158 L 194.1 250.6 L 209.3 285 L 224.4 342.2 L 239.5 195.9 L 254.7 257.5 L 269.8 214.2 L 284.9 245.2 L 300.1 327.8 L 315.2 256.8 L 330.3 307.7 L 345.5 190.7 L 360.6 271.5 L 375.7 297.2 L 390.9 314.6 L 406 319.8 L 421.1 276.2 L 436.2 240.8 L 451.4 328.2 L 466.5 314.9 L 481.6 310.4 L 496.8 328.8 L 511.9 350.7 L 527 348.3 L 542.2 318.9 L 557.3 314.5 L 572.4 314.6 L 587.6 320.3 L 602.7 331.8 L 617.8 351.6 L 633 311 L 648.1 299.8 L 663.2 313.8 L 678.3 344.8 L 693.5 318.2 L 708.6 292.2 L 723.7 319.4 L 738.8 319.8 L 754 357.5 L 769.1 326.4 L 784.2 305.8 L 799.4 310.3 L 814.5 329.9 L 829.7 299.9 L 844.8 304.3 L 859.9 309.2 L 875.1 319.3 L 890.2 292.7 L 905.3 320.8 L 920.4 321.5 L 935.6 317.1 L 950.7 319.9 L 965.8 328.5 L 980.9 333.8 L 996.1 329.5 L 1011.2 335.5 L 1026.3 350.9 L 1041.5 337.2 L 1056.6 335.9 L 1071.7 348.8 L 1086.9 333.5 L 1102 335.3 L 1117.2 325.9 L 1132.3 319.7 L 1147.4 320.2 L 1162.5 321.6 L 1177.7 321.7 L 1192.8 338.1 L 1207.9 333.8 L 1223 336.8 L 1238.2 321.8 L 1253.3 319.6 L 1268.4 339.8 L 1278.4 339.8" fill="none"  stroke-opacity="0.000001" stroke="rgb(192,192,192)" stroke-linejoin="bevel" stroke-width="22" visibility="visible" style="cursor:pointer;"></path></g><g  transform="translate(71,20)" clip-path="url(#highcharts-18)"><path d="M 2.5999999999999996 374 L 12.6 374 L 27.7 374 L 42.8 315.7 L 58 341.9 L 73.1 374 L 88.2 348.2 L 103.4 344.3 L 118.5 374 L 133.6 343.4 L 148.8 342.2 L 163.9 316.8 L 179 312.3 L 194.1 343.1 L 209.3 285 L 224.4 374 L 239.5 374 L 254.7 344.9 L 269.8 347.4 L 284.9 271 L 300.1 327.8 L 315.2 374 L 330.3 329.8 L 345.5 292.5 L 360.6 353.5 L 375.7 327.9 L 390.9 359.2 L 406 319.8 L 421.1 337.3 L 436.2 334 L 451.4 351.1 L 466.5 359.2 L 481.6 335.8 L 496.8 351.4 L 511.9 358.5 L 527 361.2 L 542.2 363 L 557.3 346.9 L 572.4 354.2 L 587.6 332.2 L 602.7 331.8 L 617.8 351.6 L 633 342.5 L 648.1 347 L 663.2 327.2 L 678.3 344.8 L 693.5 350.1 L 708.6 344.2 L 723.7 271.7 L 738.8 218.2 L 754 217.3 L 769.1 342.3 L 784.2 299 L 799.4 323 L 814.5 307.9 L 829.7 281.4 L 844.8 309.6 L 859.9 332.3 L 875.1 324.3 L 890.2 335.5 L 905.3 329.7 L 920.4 321.5 L 935.6 339.9 L 950.7 329.4 L 965.8 333.9 L 980.9 343.8 L 996.1 320.1 L 1011.2 331.3 L 1026.3 327.8 L 1041.5 342.8 L 1056.6 339.2 L 1071.7 320.8 L 1086.9 342.3 L 1102 349.4 L 1117.2 345.4 L 1132.3 351.2 L 1147.4 347.9 L 1162.5 329.6 L 1177.7 341.6 L 1192.8 336.3 L 1207.9 323.9 L 1223 328.1 L 1238.2 310.1 L 1253.3 309.4 L 1268.4 311.2 L 1278.4 311.2" fill="none"  stroke-opacity="0.000001" stroke="rgb(192,192,192)" stroke-linejoin="bevel" stroke-width="22" visibility="visible" style="cursor:pointer;"></path></g><g  transform="translate(71,20)" clip-path="url(#highcharts-18)"><path d="M 2.5999999999999996 304.7 L 12.6 304.7 L 27.7 337.8 L 42.8 315.7 L 58 309.7 L 73.1 374 L 88.2 322.5 L 103.4 374 L 118.5 264 L 133.6 374 L 148.8 246.8 L 163.9 259.6 L 179 250.6 L 194.1 250.6 L 209.3 344.3 L 224.4 278.6 L 239.5 344.3 L 254.7 286.6 L 269.8 347.4 L 284.9 271 L 300.1 281.7 L 315.2 350.6 L 330.3 285.6 L 345.5 292.5 L 360.6 353.5 L 375.7 266.5 L 390.9 359.2 L 406 306.2 L 421.1 337.3 L 436.2 320.7 L 451.4 339.6 L 466.5 359.2 L 481.6 285 L 496.8 340.1 L 511.9 343 L 527 361.2 L 542.2 341 L 557.3 330.7 L 572.4 341 L 587.6 344.1 L 602.7 317.7 L 617.8 336.6 L 633 342.5 L 648.1 272.8 L 663.2 327.2 L 678.3 271.8 L 693.5 358.1 L 708.6 329.4 L 723.7 292.2 L 738.8 340.1 L 754 341 L 769.1 342.3 L 784.2 292.2 L 799.4 259.3 L 814.5 296.9 L 829.7 262.9 L 844.8 325.7 L 859.9 313.8 L 875.1 299.4 L 890.2 314.1 L 905.3 289.8 L 920.4 269 L 935.6 313.3 L 950.7 300.8 L 965.8 333.9 L 980.9 316.1 L 996.1 306.1 L 1011.2 322.7 L 1026.3 336.2 L 1041.5 344.6 L 1056.6 326 L 1071.7 322.2 L 1086.9 346.1 L 1102 341.2 L 1117.2 337.2 L 1132.3 336.3 L 1147.4 329.7 L 1162.5 341.2 L 1177.7 344.5 L 1192.8 341 L 1207.9 320.8 L 1223 331.5 L 1238.2 330.1 L 1253.3 326.4 L 1268.4 305.5 L 1278.4 305.5" fill="none"  stroke-opacity="0.000001" stroke="rgb(192,192,192)" stroke-linejoin="bevel" stroke-width="22" visibility="visible" style="cursor:pointer;"></path></g><g  transform="translate(71,20)" clip-path="url(#highcharts-18)"><path d="M 2.5999999999999996 339.4 L 12.6 339.4 L 27.7 374 L 42.8 374 L 58 374 L 73.1 348.9 L 88.2 374 L 103.4 374 L 118.5 337.3 L 133.6 374 L 148.8 374 L 163.9 316.8 L 179 250.6 L 194.1 312.3 L 209.3 314.6 L 224.4 278.6 L 239.5 285 L 254.7 374 L 269.8 347.4 L 284.9 271 L 300.1 281.7 L 315.2 303.7 L 330.3 329.8 L 345.5 353.6 L 360.6 292 L 375.7 251.2 L 390.9 344.3 L 406 265.6 L 421.1 325.1 L 436.2 240.8 L 451.4 362.5 L 466.5 329.7 L 481.6 348.6 L 496.8 328.8 L 511.9 350.7 L 527 354.8 L 542.2 363 L 557.3 352.4 L 572.4 360.8 L 587.6 344.1 L 602.7 345.9 L 617.8 336.6 L 633 358.3 L 648.1 340.3 L 663.2 347.2 L 678.3 352.1 L 693.5 310.2 L 708.6 284.7 L 723.7 299 L 738.8 346.9 L 754 341 L 769.1 326.4 L 784.2 339.9 L 799.4 316.6 L 814.5 329.9 L 829.7 355.5 L 844.8 298.9 L 859.9 355.5 L 875.1 324.3 L 890.2 335.5 L 905.3 347.4 L 920.4 349.8 L 935.6 336.1 L 950.7 339 L 965.8 341.9 L 980.9 326.2 L 996.1 334.2 L 1011.2 324.9 L 1026.3 340.4 L 1041.5 329.9 L 1056.6 334.3 L 1071.7 346 L 1086.9 338.5 L 1102 336.5 L 1117.2 334.1 L 1132.3 313.6 L 1147.4 317.1 L 1162.5 338.3 L 1177.7 329 L 1192.8 335.7 L 1207.9 325.5 L 1223 336.3 L 1238.2 327.7 L 1253.3 332.1 L 1268.4 345.5 L 1278.4 345.5" fill="none"  stroke-opacity="0.000001" stroke="rgb(192,192,192)" stroke-linejoin="bevel" stroke-width="22" visibility="visible" style="cursor:pointer;"></path></g><g  transform="translate(71,20)" clip-path="url(#highcharts-18)"><path d="M 2.5999999999999996 374 L 12.6 374 L 27.7 374 L 42.8 374 L 58 374 L 73.1 374 L 88.2 348.2 L 103.4 374 L 118.5 337.3 L 133.6 374 L 148.8 342.2 L 163.9 374 L 179 374 L 194.1 250.6 L 209.3 344.3 L 224.4 374 L 239.5 374 L 254.7 374 L 269.8 347.4 L 284.9 348.2 L 300.1 350.9 L 315.2 374 L 330.3 351.9 L 345.5 272.1 L 360.6 374 L 375.7 327.9 L 390.9 374 L 406 360.4 L 421.1 374 L 436.2 360.7 L 451.4 362.5 L 466.5 359.2 L 481.6 361.3 L 496.8 374 L 511.9 366.2 L 527 361.2 L 542.2 346.5 L 557.3 346.9 L 572.4 354.2 L 587.6 368 L 602.7 352.9 L 617.8 351.6 L 633 342.5 L 648.1 360.5 L 663.2 353.9 L 678.3 352.1 L 693.5 358.1 L 708.6 351.7 L 723.7 319.4 L 738.8 279.1 L 754 283.3 L 769.1 326.4 L 784.2 299 L 799.4 265.6 L 814.5 324.4 L 829.7 304.5 L 844.8 320.4 L 859.9 350.8 L 875.1 339.2 L 890.2 326.9 L 905.3 325.2 L 920.4 305.4 L 935.6 317.1 L 950.7 326.2 L 965.8 325.8 L 980.9 318.7 L 996.1 317.8 L 1011.2 320.6 L 1026.3 306.8 L 1041.5 322.5 L 1056.6 327.6 L 1071.7 348.8 L 1086.9 328.4 L 1102 328.3 L 1117.2 330 L 1132.3 333.7 L 1147.4 318.6 L 1162.5 332.5 L 1177.7 332.7 L 1192.8 324.9 L 1207.9 318.2 L 1223 328.6 L 1238.2 321.8 L 1253.3 314 L 1268.4 299.8 L 1278.4 299.8" fill="none"  stroke-opacity="0.000001" stroke="rgb(192,192,192)" stroke-linejoin="bevel" stroke-width="22" visibility="visible" style="cursor:pointer;"></path></g><g  transform="translate(71,20)" clip-path="url(#highcharts-18)"><path d="M 2.5999999999999996 374 L 12.6 374 L 27.7 374 L 42.8 344.9 L 58 374 L 73.1 374 L 88.2 348.2 L 103.4 344.3 L 118.5 337.3 L 133.6 374 L 148.8 342.2 L 163.9 345.4 L 179 343.1 L 194.1 374 L 209.3 314.6 L 224.4 342.2 L 239.5 374 L 254.7 315.7 L 269.8 374 L 284.9 245.2 L 300.1 258.6 L 315.2 350.6 L 330.3 285.6 L 345.5 292.5 L 360.6 333 L 375.7 312.6 L 390.9 359.2 L 406 333.3 L 421.1 325.1 L 436.2 347.4 L 451.4 339.6 L 466.5 344.5 L 481.6 310.4 L 496.8 328.8 L 511.9 327.5 L 527 329.1 L 542.2 346.5 L 557.3 341.5 L 572.4 327.8 L 587.6 314.3 L 602.7 345.9 L 617.8 306.7 L 633 326.8 L 648.1 313.3 L 663.2 327.2 L 678.3 359.4 L 693.5 326.2 L 708.6 329.4 L 723.7 292.2 L 738.8 319.8 L 754 316.3 L 769.1 342.3 L 784.2 339.9 L 799.4 310.3 L 814.5 313.4 L 829.7 327.7 L 844.8 320.4 L 859.9 249 L 875.1 289.5 L 890.2 279.8 L 905.3 272 L 920.4 281.1 L 935.6 290.6 L 950.7 307.1 L 965.8 312.5 L 980.9 318.7 L 996.1 315.5 L 1011.2 339.8 L 1026.3 317.3 L 1041.5 331.7 L 1056.6 337.6 L 1071.7 348.8 L 1086.9 314.5 L 1102 321.3 L 1117.2 335.1 L 1132.3 303.9 L 1147.4 315.5 L 1162.5 328.9 L 1177.7 306.2 L 1192.8 317.1 L 1207.9 308.3 L 1223 332.9 L 1238.2 324.3 L 1253.3 327 L 1268.4 316.9 L 1278.4 316.9" fill="none"  stroke-opacity="0.000001" stroke="rgb(192,192,192)" stroke-linejoin="bevel" stroke-width="22" visibility="visible" style="cursor:pointer;"></path></g><g  transform="translate(71,20)" clip-path="url(#highcharts-18)"><path d="M 2.5999999999999996 339.4 L 12.6 339.4 L 27.7 374 L 42.8 374 L 58 341.9 L 73.1 374 L 88.2 271 L 103.4 374 L 118.5 374 L 133.6 312.9 L 148.8 278.6 L 163.9 345.4 L 179 281.4 L 194.1 343.1 L 209.3 374 L 224.4 342.2 L 239.5 285 L 254.7 315.7 L 269.8 240.8 L 284.9 245.2 L 300.1 281.7 L 315.2 350.6 L 330.3 285.6 L 345.5 333.3 L 360.6 312.5 L 375.7 312.6 L 390.9 314.6 L 406 319.8 L 421.1 325.1 L 436.2 320.7 L 451.4 351.1 L 466.5 374 L 481.6 361.3 L 496.8 340.1 L 511.9 343 L 527 335.5 L 542.2 296.9 L 557.3 341.5 L 572.4 327.8 L 587.6 332.2 L 602.7 331.8 L 617.8 344.1 L 633 271.7 L 648.1 326.8 L 663.2 320.5 L 678.3 330.2 L 693.5 342.1 L 708.6 351.7 L 723.7 326.3 L 738.8 319.8 L 754 308 L 769.1 350.2 L 784.2 360.4 L 799.4 323 L 814.5 324.4 L 829.7 346.2 L 844.8 341.8 L 859.9 346.2 L 875.1 314.4 L 890.2 322.6 L 905.3 329.7 L 920.4 333.6 L 935.6 332.3 L 950.7 326.2 L 965.8 344.6 L 980.9 333.8 L 996.1 350.6 L 1011.2 348.4 L 1026.3 329.9 L 1041.5 350.1 L 1056.6 326 L 1071.7 346 L 1086.9 325.9 L 1102 327.1 L 1117.2 337.2 L 1132.3 324.9 L 1147.4 328.1 L 1162.5 330.3 L 1177.7 344.5 L 1192.8 334.5 L 1207.9 352.6 L 1223 346 L 1238.2 329.6 L 1253.3 328.1 L 1268.4 311.2 L 1278.4 311.2" fill="none"  stroke-opacity="0.000001" stroke="rgb(192,192,192)" stroke-linejoin="bevel" stroke-width="22" visibility="visible" style="cursor:pointer;"></path></g><g  transform="translate(71,20)" clip-path="url(#highcharts-18)"><path d="M 2.5999999999999996 374 L 12.6 374 L 27.7 374 L 42.8 374 L 58 374 L 73.1 374 L 88.2 322.5 L 103.4 374 L 118.5 374 L 133.6 312.9 L 148.8 342.2 L 163.9 345.4 L 179 343.1 L 194.1 374 L 209.3 374 L 224.4 342.2 L 239.5 374 L 254.7 374 L 269.8 374 L 284.9 374 L 300.1 350.9 L 315.2 374 L 330.3 351.9 L 345.5 374 L 360.6 374 L 375.7 358.6 L 390.9 374 L 406 360.4 L 421.1 361.8 L 436.2 360.7 L 451.4 362.5 L 466.5 374 L 481.6 374 L 496.8 374 L 511.9 374 L 527 361.2 L 542.2 368.5 L 557.3 374 L 572.4 374 L 587.6 374 L 602.7 374 L 617.8 366.5 L 633 358.3 L 648.1 360.5 L 663.2 353.9 L 678.3 359.4 L 693.5 366 L 708.6 374 L 723.7 333.1 L 738.8 333.3 L 754 316.3 L 769.1 366.1 L 784.2 374 L 799.4 374 L 814.5 357.5 L 829.7 374 L 844.8 357.9 L 859.9 364.7 L 875.1 354.1 L 890.2 361.2 L 905.3 374 L 920.4 365.9 L 935.6 366.4 L 950.7 367.6 L 965.8 371.3 L 980.9 369 L 996.1 374 L 1011.2 369.7 L 1026.3 369.8 L 1041.5 372.2 L 1056.6 367.4 L 1071.7 369.8 L 1086.9 363.9 L 1102 369.3 L 1117.2 372 L 1132.3 367.9 L 1147.4 371.6 L 1162.5 372.5 L 1177.7 372.5 L 1192.8 371 L 1207.9 369.3 L 1223 370.1 L 1238.2 371.6 L 1253.3 368.3 L 1268.4 374 L 1278.4 374" fill="none"  stroke-opacity="0.000001" stroke="rgb(192,192,192)" stroke-linejoin="bevel" stroke-width="22" visibility="visible" style="cursor:pointer;"></path></g><g  transform="translate(71,20)" clip-path="url(#highcharts-18)"><path d="M 2.5999999999999996 374 L 12.6 374 L 27.7 337.8 L 42.8 257.5 L 58 309.7 L 73.1 374 L 88.2 322.5 L 103.4 314.6 L 118.5 300.7 L 133.6 190.7 L 148.8 342.2 L 163.9 202.4 L 179 188.9 L 194.1 312.3 L 209.3 285 L 224.4 310.4 L 239.5 314.6 L 254.7 374 L 269.8 267.4 L 284.9 322.5 L 300.1 350.9 L 315.2 256.8 L 330.3 285.6 L 345.5 353.6 L 360.6 333 L 375.7 327.9 L 390.9 314.6 L 406 333.3 L 421.1 349.6 L 436.2 320.7 L 451.4 339.6 L 466.5 359.2 L 481.6 323.1 L 496.8 374 L 511.9 358.5 L 527 374 L 542.2 335.5 L 557.3 357.8 L 572.4 341 L 587.6 356.1 L 602.7 345.9 L 617.8 351.6 L 633 342.5 L 648.1 347 L 663.2 333.9 L 678.3 344.8 L 693.5 366 L 708.6 344.2 L 723.7 333.1 L 738.8 353.7 L 754 349.3 L 769.1 310.6 L 784.2 326.3 L 799.4 335.8 L 814.5 357.5 L 829.7 355.5 L 844.8 325.7 L 859.9 341.6 L 875.1 349.1 L 890.2 348.3 L 905.3 334.1 L 920.4 341.7 L 935.6 336.1 L 950.7 326.2 L 965.8 333.9 L 980.9 341.3 L 996.1 350.6 L 1011.2 342 L 1026.3 346.7 L 1041.5 350.1 L 1056.6 345.8 L 1071.7 353 L 1086.9 338.5 L 1102 328.3 L 1117.2 336.2 L 1132.3 342.5 L 1147.4 337.6 L 1162.5 339.1 L 1177.7 339.4 L 1192.8 343.4 L 1207.9 342.7 L 1223 344 L 1238.2 339.9 L 1253.3 339.4 L 1268.4 356.9 L 1278.4 356.9" fill="none"  stroke-opacity="0.000001" stroke="rgb(192,192,192)" stroke-linejoin="bevel" stroke-width="22" visibility="visible" style="cursor:pointer;"></path></g></g></svg>