<?xml version="1.0" standalone="no"?><!DOCTYPE svg PUBLIC "-//W3C//DTD SVG 1.1//EN" "http://www.w3.org/Graphics/SVG/1.1/DTD/svg11.dtd"><svg xmlns:xlink="http://www.w3.org/1999/xlink" xmlns="http://www.w3.org/2000/svg" version="1.1" width="1362" height="450"><defs><clipPath id="highcharts-26"><rect rx="0" ry="0" fill="none" x="0" y="0" width="1278" height="375" stroke-width="0.000001"></rect></clipPath></defs><rect rx="5" ry="5" fill="#FFFFFF" x="0" y="0" width="1362" height="450" stroke-width="0.000001" stroke="#4572A7"></rect><g class="highcharts-grid" ></g><g class="highcharts-grid" ></g><g class="highcharts-series-group" ><g class="highcharts-series" visibility="visible" transform="translate(74,20)" clip-path="url(#highcharts-26)"><path d="M 12.5 270.1 L 27.7 374 L 42.7 111.9 L 57.8 374 L 72.9 374 L 88 296.7 L 103.1 285 L 118.2 264 L 133.3 374 L 148.4 278.6 L 163.5 374 L 178.6 188.9 L 193.7 374 L 208.8 374 L 223.9 278.6 L 239 106.9 L 254.1 286.6 L 269.2 54.3 L 284.3 219.5 L 299.4 166.2 L 314.4 233.4 L 329.6 374 L 344.7 312.9 L 359.7 127.9 L 374.8 281.9 L 389.9 329.5 L 405 211.4 L 420.1 374 L 435.2 294.1 L 450.3 374 L 465.4 374 L 480.5 335.8 L 495.6 340.1 L 510.7 374 L 525.8 354.8 L 540.9 341 L 556 341.5 L 571.1 294.8 L 586.2 320.3 L 601.3 352.9 L 616.4 284.3 L 631.5 374 L 646.6 353.8 L 661.6 333.9 L 676.7 352.1 L 691.9 374 L 706.9 307.1 L 722 353.5 L 737.1 374 L 752.2 374 L 767.3 350.2 L 782.4 251.2 L 797.5 354.9 L 812.6 341 L 827.7 346.2 L 842.8 341.8 L 857.9 318.4 L 873 359.1 L 888.1 296.9 L 903.2 334.1 L 918.3 349.8 L 933.4 317.1 L 948.5 345.3 L 963.6 229.5 L 978.6 238.2 L 993.8 310.8 L 1008.9 335.5 L 1023.9 317.3 L 1039 351.9 L 1054.2 319.4 L 1069.2 353 L 1084.3 339.8 L 1099.4 359.9 L 1114.5 331.1 L 1129.6 350.3 L 1144.7 352.6 L 1159.8 328.1 L 1174.9 340.8 L 1190 352.4 L 1205.1 352.1 L 1220.2 345 L 1235.3 346.2 L 1250.4 346.8 L 1265.5 305.5" fill="none" stroke="#1F77B4" stroke-width="2"></path></g><g class="highcharts-series" visibility="visible" transform="translate(74,20)" clip-path="url(#highcharts-26)"><path d="M 12.5 374 L 27.7 374 L 42.7 286.6 L 57.8 374 L 72.9 374 L 88 374 L 103.1 374 L 118.2 374 L 133.3 374 L 148.4 374 L 163.5 374 L 178.6 374 L 193.7 374 L 208.8 285 L 223.9 278.6 L 239 374 L 254.1 374 L 269.2 294.1 L 284.3 296.7 L 299.4 374 L 314.4 374 L 329.6 374 L 344.7 190.7 L 359.7 251 L 374.8 189.8 L 389.9 374 L 405 333.3 L 420.1 374 L 435.2 374 L 450.3 305.3 L 465.4 374 L 480.5 335.8 L 495.6 340.1 L 510.7 374 L 525.8 335.5 L 540.9 307.9 L 556 357.8 L 571.1 334.4 L 586.2 356.1 L 601.3 352.9 L 616.4 351.6 L 631.5 326.8 L 646.6 353.8 L 661.6 374 L 676.7 352.1 L 691.9 350.1 L 706.9 351.7 L 722 312.6 L 737.1 374 L 752.2 349.3 L 767.3 374 L 782.4 353.5 L 797.5 374 L 812.6 307.9 L 827.7 332.3 L 842.8 309.6 L 857.9 374 L 873 359.1 L 888.1 284.1 L 903.2 347.4 L 918.3 313.4 L 933.4 328.5 L 948.5 374 L 963.6 366 L 978.6 351.4 L 993.8 360 L 1008.9 348.4 L 1023.9 355.1 L 1039 335.4 L 1054.2 359.1 L 1069.2 353 L 1084.3 339.8 L 1099.4 349.4 L 1114.5 355.6 L 1129.6 353 L 1144.7 357.4 L 1159.8 345.6 L 1174.9 347.5 L 1190 338.1 L 1205.1 345.8 L 1220.2 345 L 1235.3 347.7 L 1250.4 351.9 L 1265.5 322.6" fill="none" stroke="#FF7F0E" stroke-width="2"></path></g><g class="highcharts-series" visibility="visible" transform="translate(74,20)" clip-path="url(#highcharts-26)"><path d="M 12.5 374 L 27.7 374 L 42.7 374 L 57.8 374 L 72.9 374 L 88 374 L 103.1 374 L 118.2 374 L 133.3 282.3 L 148.4 278.6 L 163.5 374 L 178.6 374 L 193.7 374 L 208.8 374 L 223.9 374 L 239 285 L 254.1 374 L 269.2 294.1 L 284.3 219.5 L 299.4 304.7 L 314.4 163.1 L 329.6 307.7 L 344.7 190.7 L 359.7 374 L 374.8 235.8 L 389.9 329.5 L 405 292.7 L 420.1 337.3 L 435.2 294.1 L 450.3 339.6 L 465.4 374 L 480.5 374 L 495.6 306.2 L 510.7 327.5 L 525.8 354.8 L 540.9 341 L 556 244.1 L 571.1 374 L 586.2 338.2 L 601.3 352.9 L 616.4 172.2 L 631.5 255.9 L 646.6 313.3 L 661.6 313.8 L 676.7 374 L 691.9 302.3 L 706.9 374 L 722 333.1 L 737.1 292.7 L 752.2 374 L 767.3 326.4 L 782.4 333.1 L 797.5 297.5 L 812.6 374 L 827.7 304.5 L 842.8 325.7 L 857.9 360.1 L 873 344.2 L 888.1 309.8 L 903.2 334.1 L 918.3 361.9 L 933.4 294.4 L 948.5 354.9 L 963.6 325.8 L 978.6 328.7 L 993.8 360 L 1008.9 335.5 L 1023.9 336.2 L 1039 357.5 L 1054.2 349.2 L 1069.2 357.2 L 1084.3 351.2 L 1099.4 331.8 L 1114.5 337.2 L 1129.6 355.6 L 1144.7 345.5 L 1159.8 315 L 1174.9 327.6 L 1190 343.4 L 1205.1 328.6 L 1220.2 346.5 L 1235.3 337.4 L 1250.4 350.2 L 1265.5 356.9" fill="none" stroke="#2CA02C" stroke-width="2"></path></g><g class="highcharts-series" visibility="visible" transform="translate(74,20)" clip-path="url(#highcharts-26)"><path d="M 12.5 270.1 L 27.7 156.6 L 42.7 374 L 57.8 181.2 L 72.9 374 L 88 374 L 103.1 285 L 118.2 374 L 133.3 374 L 148.4 278.6 L 163.5 202.4 L 178.6 281.4 L 193.7 188.9 L 208.8 195.9 L 223.9 278.6 L 239 374 L 254.1 199.2 L 269.2 294.1 L 284.3 374 L 299.4 304.7 L 314.4 303.7 L 329.6 241.4 L 344.7 312.9 L 359.7 251 L 374.8 327.9 L 389.9 240.4 L 405 292.7 L 420.1 227.3 L 435.2 334 L 450.3 270.9 L 465.4 374 L 480.5 335.8 L 495.6 374 L 510.7 374 L 525.8 335.5 L 540.9 341 L 556 357.8 L 571.1 354.2 L 586.2 356.1 L 601.3 310.7 L 616.4 329.2 L 631.5 303.2 L 646.6 272.8 L 661.6 374 L 676.7 286.4 L 691.9 326.2 L 706.9 351.7 L 722 353.5 L 737.1 292.7 L 752.2 349.3 L 767.3 326.4 L 782.4 312.6 L 797.5 374 L 812.6 307.9 L 827.7 346.2 L 842.8 293.5 L 857.9 304.5 L 873 195.1 L 888.1 309.8 L 903.2 294.2 L 918.3 265 L 933.4 362.6 L 948.5 326.2 L 963.6 333.9 L 978.6 351.4 L 993.8 254.6 L 1008.9 361.2 L 1023.9 336.2 L 1039 274.8 L 1054.2 344.2 L 1069.2 357.2 L 1084.3 324.6 L 1099.4 349.4 L 1114.5 337.2 L 1129.6 305.7 L 1144.7 326.6 L 1159.8 343.4 L 1174.9 329.8 L 1190 339.8 L 1205.1 308.3 L 1220.2 311.7 L 1235.3 299.4 L 1250.4 326.4 L 1265.5 339.8" fill="none" stroke="#D62728" stroke-width="2"></path></g><g class="highcharts-series" visibility="visible" transform="translate(74,20)" clip-path="url(#highcharts-26)"><path d="M 12.5 374 L 27.7 374 L 42.7 374 L 57.8 374 L 72.9 374 L 88 296.7 L 103.1 374 L 118.2 264 L 133.3 374 L 148.4 278.6 L 163.5 374 L 178.6 374 L 193.7 374 L 208.8 374 L 223.9 278.6 L 239 285 L 254.1 374 L 269.2 294.1 L 284.3 374 L 299.4 304.7 L 314.4 303.7 L 329.6 307.7 L 344.7 374 L 359.7 312.5 L 374.8 374 L 389.9 285 L 405 333.3 L 420.1 374 L 435.2 254.1 L 450.3 374 L 465.4 329.7 L 480.5 374 L 495.6 306.2 L 510.7 374 L 525.8 335.5 L 540.9 307.9 L 556 341.5 L 571.1 334.4 L 586.2 356.1 L 601.3 374 L 616.4 351.6 L 631.5 350.4 L 646.6 293 L 661.6 353.9 L 676.7 264.5 L 691.9 302.3 L 706.9 351.7 L 722 353.5 L 737.1 353.7 L 752.2 349.3 L 767.3 350.2 L 782.4 333.1 L 797.5 374 L 812.6 341 L 827.7 346.2 L 842.8 341.8 L 857.9 304.5 L 873 329.3 L 888.1 361.2 L 903.2 334.1 L 918.3 313.4 L 933.4 362.6 L 948.5 335.8 L 963.6 341.9 L 978.6 321.2 L 993.8 352.9 L 1008.9 361.2 L 1023.9 361.4 L 1039 335.4 L 1054.2 319.4 L 1069.2 332 L 1084.3 362.6 L 1099.4 349.4 L 1114.5 349.5 L 1129.6 353 L 1144.7 331.3 L 1159.8 352.2 L 1174.9 312.1 L 1190 312.9 L 1205.1 323.9 L 1220.2 336.3 L 1235.3 333 L 1250.4 340 L 1265.5 356.9" fill="none" stroke="#9467BD" stroke-width="2"></path></g><g class="highcharts-series" visibility="visible" transform="translate(74,20)" clip-path="url(#highcharts-26)"><path d="M 12.5 374 L 27.7 374 L 42.7 374 L 57.8 374 L 72.9 374 L 88 296.7 L 103.1 374 L 118.2 374 L 133.3 374 L 148.4 374 L 163.5 374 L 178.6 281.4 L 193.7 374 L 208.8 285 L 223.9 374 L 239 285 L 254.1 374 L 269.2 294.1 L 284.3 374 L 299.4 374 L 314.4 374 L 329.6 374 L 344.7 312.9 L 359.7 374 L 374.8 374 L 389.9 374 L 405 292.7 L 420.1 374 L 435.2 374 L 450.3 374 L 465.4 374 L 480.5 335.8 L 495.6 374 L 510.7 281 L 525.8 335.5 L 540.9 324.4 L 556 325.3 L 571.1 374 L 586.2 338.2 L 601.3 352.9 L 616.4 351.6 L 631.5 374 L 646.6 333.5 L 661.6 313.8 L 676.7 330.2 L 691.9 350.1 L 706.9 374 L 722 353.5 L 737.1 353.7 L 752.2 324.5 L 767.3 326.4 L 782.4 292.2 L 797.5 354.9 L 812.6 291.4 L 827.7 304.5 L 842.8 341.8 L 857.9 276.7 L 873 329.3 L 888.1 309.8 L 903.2 320.8 L 918.3 313.4 L 933.4 351.3 L 948.5 307.1 L 963.6 333.9 L 978.6 321.2 L 993.8 324.8 L 1008.9 303.5 L 1023.9 317.3 L 1039 307.8 L 1054.2 329.3 L 1069.2 327.8 L 1084.3 279 L 1099.4 321.3 L 1114.5 309.6 L 1129.6 329.3 L 1144.7 300.5 L 1159.8 323.8 L 1174.9 298.8 L 1190 321.9 L 1205.1 306.7 L 1220.2 321.8 L 1235.3 311.1 L 1250.4 299.2 L 1265.5 356.9" fill="none" stroke="#8C564B" stroke-width="2"></path></g><g class="highcharts-series" visibility="visible" transform="translate(74,20)" clip-path="url(#highcharts-26)"><path d="M 12.5 374 L 27.7 374 L 42.7 374 L 57.8 374 L 72.9 374 L 88 374 L 103.1 374 L 118.2 374 L 133.3 374 L 148.4 183.2 L 163.5 374 L 178.6 374 L 193.7 281.4 L 208.8 374 L 223.9 374 L 239 374 L 254.1 374 L 269.2 374 L 284.3 219.5 L 299.4 235.5 L 314.4 374 L 329.6 374 L 344.7 312.9 L 359.7 374 L 374.8 374 L 389.9 374 L 405 252 L 420.1 337.3 L 435.2 334 L 450.3 339.6 L 465.4 374 L 480.5 335.8 L 495.6 340.1 L 510.7 350.7 L 525.8 335.5 L 540.9 374 L 556 357.8 L 571.1 354.2 L 586.2 338.2 L 601.3 331.8 L 616.4 351.6 L 631.5 326.8 L 646.6 333.5 L 661.6 293.7 L 676.7 352.1 L 691.9 326.2 L 706.9 329.4 L 722 374 L 737.1 333.3 L 752.2 374 L 767.3 350.2 L 782.4 353.5 L 797.5 335.8 L 812.6 357.5 L 827.7 346.2 L 842.8 325.7 L 857.9 360.1 L 873 374 L 888.1 374 L 903.2 320.8 L 918.3 349.8 L 933.4 351.3 L 948.5 374 L 963.6 374 L 978.6 351.4 L 993.8 338.9 L 1008.9 335.5 L 1023.9 361.4 L 1039 346.4 L 1054.2 374 L 1069.2 357.2 L 1084.3 355 L 1099.4 338.8 L 1114.5 361.7 L 1129.6 350.3 L 1144.7 338.4 L 1159.8 347.8 L 1174.9 354.1 L 1190 332.7 L 1205.1 333.3 L 1220.2 345 L 1235.3 360.8 L 1250.4 362.1 L 1265.5 374" fill="none" stroke="#E377C2" stroke-width="2"></path></g><g class="highcharts-series" visibility="visible" transform="translate(74,20)" clip-path="url(#highcharts-26)"><path d="M 12.5 374 L 27.7 374 L 42.7 286.6 L 57.8 374 L 72.9 374 L 88 219.5 L 103.1 374 L 118.2 374 L 133.3 374 L 148.4 183.2 L 163.5 374 L 178.6 374 L 193.7 281.4 L 208.8 374 L 223.9 374 L 239 195.9 L 254.1 286.6 L 269.2 214.2 L 284.3 296.7 L 299.4 304.7 L 314.4 374 L 329.6 307.7 L 344.7 251.8 L 359.7 374 L 374.8 374 L 389.9 329.5 L 405 333.3 L 420.1 300.7 L 435.2 334 L 450.3 339.6 L 465.4 329.7 L 480.5 374 L 495.6 374 L 510.7 327.5 L 525.8 354.8 L 540.9 291.4 L 556 341.5 L 571.1 275 L 586.2 320.3 L 601.3 289.6 L 616.4 284.3 L 631.5 303.2 L 646.6 252.6 L 661.6 353.9 L 676.7 374 L 691.9 326.2 L 706.9 351.7 L 722 333.1 L 737.1 313 L 752.2 374 L 767.3 350.2 L 782.4 312.6 L 797.5 354.9 L 812.6 307.9 L 827.7 360.1 L 842.8 341.8 L 857.9 360.1 L 873 344.2 L 888.1 361.2 L 903.2 334.1 L 918.3 361.9 L 933.4 317.1 L 948.5 374 L 963.6 357.9 L 978.6 351.4 L 993.8 352.9 L 1008.9 322.7 L 1023.9 355.1 L 1039 351.9 L 1054.2 374 L 1069.2 357.2 L 1084.3 366.4 L 1099.4 356.4 L 1114.5 334.1 L 1129.6 342.5 L 1144.7 336 L 1159.8 347.8 L 1174.9 365.2 L 1190 343.4 L 1205.1 349 L 1220.2 353.7 L 1235.3 356.4 L 1250.4 336.6 L 1265.5 374" fill="none" stroke="#7F7F7F" stroke-width="2"></path></g><g class="highcharts-series" visibility="visible" transform="translate(74,20)" clip-path="url(#highcharts-26)"><path d="M 12.5 374 L 27.7 374 L 42.7 374 L 57.8 277.6 L 72.9 298.6 L 88 374 L 103.1 374 L 118.2 374 L 133.3 374 L 148.4 374 L 163.5 374 L 178.6 281.4 L 193.7 188.9 L 208.8 195.9 L 223.9 278.6 L 239 374 L 254.1 374 L 269.2 374 L 284.3 374 L 299.4 304.7 L 314.4 374 L 329.6 374 L 344.7 374 L 359.7 374 L 374.8 281.9 L 389.9 374 L 405 292.7 L 420.1 374 L 435.2 334 L 450.3 374 L 465.4 374 L 480.5 374 L 495.6 374 L 510.7 350.7 L 525.8 374 L 540.9 357.5 L 556 374 L 571.1 374 L 586.2 374 L 601.3 374 L 616.4 374 L 631.5 374 L 646.6 374 L 661.6 374 L 676.7 374 L 691.9 350.1 L 706.9 262.4 L 722 353.5 L 737.1 353.7 L 752.2 374 L 767.3 350.2 L 782.4 374 L 797.5 374 L 812.6 357.5 L 827.7 360.1 L 842.8 357.9 L 857.9 360.1 L 873 374 L 888.1 374 L 903.2 334.1 L 918.3 374 L 933.4 351.3 L 948.5 364.4 L 963.6 357.9 L 978.6 358.9 L 993.8 367 L 1008.9 361.2 L 1023.9 355.1 L 1039 363 L 1054.2 359.1 L 1069.2 353 L 1084.3 347.4 L 1099.4 352.9 L 1114.5 346.4 L 1129.6 345.1 L 1144.7 350.3 L 1159.8 367.4 L 1174.9 354.1 L 1190 354.2 L 1205.1 361.5 L 1220.2 362.4 L 1235.3 369.6 L 1250.4 345.1 L 1265.5 374" fill="none" stroke="#BCBD22" stroke-width="2"></path></g><g class="highcharts-series" visibility="visible" transform="translate(74,20)" clip-path="url(#highcharts-26)"><path d="M 12.5 374 L 27.7 374 L 42.7 374 L 57.8 277.6 L 72.9 374 L 88 374 L 103.1 374 L 118.2 264 L 133.3 374 L 148.4 278.6 L 163.5 288.2 L 178.6 374 L 193.7 374 L 208.8 374 L 223.9 374 L 239 285 L 254.1 374 L 269.2 374 L 284.3 374 L 299.4 304.7 L 314.4 374 L 329.6 307.7 L 344.7 374 L 359.7 312.5 L 374.8 281.9 L 389.9 329.5 L 405 333.3 L 420.1 337.3 L 435.2 334 L 450.3 374 L 465.4 374 L 480.5 374 L 495.6 340.1 L 510.7 374 L 525.8 316.3 L 540.9 357.5 L 556 374 L 571.1 374 L 586.2 374 L 601.3 310.7 L 616.4 351.6 L 631.5 326.8 L 646.6 353.8 L 661.6 353.9 L 676.7 352.1 L 691.9 350.1 L 706.9 351.7 L 722 333.1 L 737.1 313 L 752.2 324.5 L 767.3 350.2 L 782.4 333.1 L 797.5 335.8 L 812.6 341 L 827.7 346.2 L 842.8 293.5 L 857.9 360.1 L 873 314.4 L 888.1 361.2 L 903.2 334.1 L 918.3 374 L 933.4 362.6 L 948.5 345.3 L 963.6 366 L 978.6 358.9 L 993.8 338.9 L 1008.9 342 L 1023.9 361.4 L 1039 351.9 L 1054.2 354.1 L 1069.2 353 L 1084.3 347.4 L 1099.4 356.4 L 1114.5 364.8 L 1129.6 345.1 L 1144.7 340.8 L 1159.8 345.6 L 1174.9 360.7 L 1190 347 L 1205.1 333.3 L 1220.2 330.5 L 1235.3 316.9 L 1250.4 265.2 L 1265.5 202.8" fill="none" stroke="#17BECF" stroke-width="2"></path></g></g><g class="highcharts-legend"  transform="translate(110,20)"><text x="7" y="18" style="font-family:'open sans', 'lucida sans unicode', verdana, arial, helvetica, sans-serif;font-size:110%;cursor:pointer;color:#3e576f;font-weight:bold;fill:#3e576f;" text-anchor="start" ><tspan style="fill: #1f77b4;" x="7">milwaukee [all  texts; 87K  texts, 644M words]</tspan></text><path d="M 2 0 L 2 0" fill="none" stroke-width="2"  stroke="#1F77B4" transform="translate(7,14)"></path><text x="7" y="36" style="font-family:'open sans', 'lucida sans unicode', verdana, arial, helvetica, sans-serif;font-size:110%;cursor:pointer;color:#3e576f;font-weight:bold;fill:#3e576f;" text-anchor="start" ><tspan style="fill: #ff7f0e;" x="7">san antonio [all  texts; 87K  texts, 644M words]</tspan></text><path d="M 2 0 L 2 0" fill="none" stroke-width="2"  stroke="#FF7F0E" transform="translate(7,32)"></path><text x="7" y="54" style="font-family:'open sans', 'lucida sans unicode', verdana, arial, helvetica, sans-serif;font-size:110%;cursor:pointer;color:#3e576f;font-weight:bold;fill:#3e576f;" text-anchor="start" ><tspan style="fill: #2ca02c;" x="7">tucson [all  texts; 87K  texts, 644M words]</tspan></text><path d="M 2 0 L 2 0" fill="none" stroke-width="2"  stroke="#2CA02C" transform="translate(7,50)"></path><text x="7" y="72" style="font-family:'open sans', 'lucida sans unicode', verdana, arial, helvetica, sans-serif;font-size:110%;cursor:pointer;color:#3e576f;font-weight:bold;fill:#3e576f;" text-anchor="start" ><tspan style="fill: #d62728;" x="7">memphis [all  texts; 87K  texts, 644M words]</tspan></text><path d="M 2 0 L 2 0" fill="none" stroke-width="2"  stroke="#D62728" transform="translate(7,68)"></path><text x="7" y="90" style="font-family:'open sans', 'lucida sans unicode', verdana, arial, helvetica, sans-serif;font-size:110%;cursor:pointer;color:#3e576f;font-weight:bold;fill:#3e576f;" text-anchor="start" ><tspan style="fill: #9467bd;" x="7">albuquerque [all  texts; 87K  texts, 644M words]</tspan></text><path d="M 2 0 L 2 0" fill="none" stroke-width="2"  stroke="#9467BD" transform="translate(7,86)"></path><text x="7" y="108" style="font-family:'open sans', 'lucida sans unicode', verdana, arial, helvetica, sans-serif;font-size:110%;cursor:pointer;color:#3e576f;font-weight:bold;fill:#3e576f;" text-anchor="start" ><tspan style="fill: #8c564b;" x="7">orlando [all  texts; 87K  texts, 644M words]</tspan></text><path d="M 2 0 L 2 0" fill="none" stroke-width="2"  stroke="#8C564B" transform="translate(7,104)"></path><text x="7" y="126" style="font-family:'open sans', 'lucida sans unicode', verdana, arial, helvetica, sans-serif;font-size:110%;cursor:pointer;color:#3e576f;font-weight:bold;fill:#3e576f;" text-anchor="start" ><tspan style="fill: #e377c2;" x="7">fresno [all  texts; 87K  texts, 644M words]</tspan></text><path d="M 2 0 L 2 0" fill="none" stroke-width="2"  stroke="#E377C2" transform="translate(7,122)"></path><text x="7" y="144" style="font-family:'open sans', 'lucida sans unicode', verdana, arial, helvetica, sans-serif;font-size:110%;cursor:pointer;color:#3e576f;font-weight:bold;fill:#3e576f;" text-anchor="start" ><tspan style="fill: #7f7f7f;" x="7">el paso [all  texts; 87K  texts, 644M words]</tspan></text><path d="M 2 0 L 2 0" fill="none" stroke-width="2"  stroke="#7F7F7F" transform="translate(7,140)"></path><text x="7" y="162" style="font-family:'open sans', 'lucida sans unicode', verdana, arial, helvetica, sans-serif;font-size:110%;cursor:pointer;color:#3e576f;font-weight:bold;fill:#3e576f;" text-anchor="start" ><tspan style="fill: #bcbd22;" x="7">annapolis [all  texts; 87K  texts, 644M words]</tspan></text><path d="M 2 0 L 2 0" fill="none" stroke-width="2"  stroke="#BCBD22" transform="translate(7,158)"></path><text x="7" y="180" style="font-family:'open sans', 'lucida sans unicode', verdana, arial, helvetica, sans-serif;font-size:110%;cursor:pointer;color:#3e576f;font-weight:bold;fill:#3e576f;" text-anchor="start" ><tspan style="fill: #17becf;" x="7">nashville [all  texts; 87K  texts, 644M words]</tspan></text><path d="M 2 0 L 2 0" fill="none" stroke-width="2"  stroke="#17BECF" transform="translate(7,176)"></path></g><g class="highcharts-axis" ><text x="209.5819930867972" y="408" style="font-family:'open sans', 'lucida sans unicode', verdana, arial, helvetica, sans-serif;font-size:12;color:#666;line-height:14px;fill:#666;" text-anchor="middle" visibility="visible"><tspan x="209.5819930867972">1940</tspan></text><text x="360.558181160424" y="408" style="font-family:'open sans', 'lucida sans unicode', verdana, arial, helvetica, sans-serif;font-size:12;color:#666;line-height:14px;fill:#666;" text-anchor="middle" visibility="visible"><tspan x="360.558181160424">1950</tspan></text><text x="511.4930398641976" y="408" style="font-family:'open sans', 'lucida sans unicode', verdana, arial, helvetica, sans-serif;font-size:12;color:#666;line-height:14px;fill:#666;" text-anchor="middle" visibility="visible"><tspan x="511.4930398641976">1960</tspan></text><text x="662.4692279378244" y="408" style="font-family:'open sans', 'lucida sans unicode', verdana, arial, helvetica, sans-serif;font-size:12;color:#666;line-height:14px;fill:#666;" text-anchor="middle" visibility="visible"><tspan x="662.4692279378244">1970</tspan></text><text x="813.4040866415979" y="408" style="font-family:'open sans', 'lucida sans unicode', verdana, arial, helvetica, sans-serif;font-size:12;color:#666;line-height:14px;fill:#666;" text-anchor="middle" visibility="visible"><tspan x="813.4040866415979">1980</tspan></text><text x="964.3802747152247" y="408" style="font-family:'open sans', 'lucida sans unicode', verdana, arial, helvetica, sans-serif;font-size:12;color:#666;line-height:14px;fill:#666;" text-anchor="middle" visibility="visible"><tspan x="964.3802747152247">1990</tspan></text><text x="1115.3151334189984" y="408" style="font-family:'open sans', 'lucida sans unicode', verdana, arial, helvetica, sans-serif;font-size:12;color:#666;line-height:14px;fill:#666;" text-anchor="middle" visibility="visible"><tspan x="1115.3151334189984">2000</tspan></text><text x="1266.291321492625" y="408" style="font-family:'open sans', 'lucida sans unicode', verdana, arial, helvetica, sans-serif;font-size:12;color:#666;line-height:14px;fill:#666;" text-anchor="middle" visibility="visible"><tspan x="1266.291321492625">2010</tspan></text><text x="134.1145637349104" y="408" style="font-family:'open sans', 'lucida sans unicode', verdana, arial, helvetica, sans-serif;font-size:12;color:#666;line-height:14px;fill:#666;" text-anchor="middle" visibility="visible"><tspan x="134.1145637349104">1935</tspan></text><text x="285.0907518085372" y="408" style="font-family:'open sans', 'lucida sans unicode', verdana, arial, helvetica, sans-serif;font-size:12;color:#666;line-height:14px;fill:#666;" text-anchor="middle" visibility="visible"><tspan x="285.0907518085372">1945</tspan></text><text x="436.0256105123108" y="408" style="font-family:'open sans', 'lucida sans unicode', verdana, arial, helvetica, sans-serif;font-size:12;color:#666;line-height:14px;fill:#666;" text-anchor="middle" visibility="visible"><tspan x="436.0256105123108">1955</tspan></text><text x="587.0017985859375" y="408" style="font-family:'open sans', 'lucida sans unicode', verdana, arial, helvetica, sans-serif;font-size:12;color:#666;line-height:14px;fill:#666;" text-anchor="middle" visibility="visible"><tspan x="587.0017985859375">1965</tspan></text><text x="737.9366572897112" y="408" style="font-family:'open sans', 'lucida sans unicode', verdana, arial, helvetica, sans-serif;font-size:12;color:#666;line-height:14px;fill:#666;" text-anchor="middle" visibility="visible"><tspan x="737.9366572897112">1975</tspan></text><text x="888.912845363338" y="408" style="font-family:'open sans', 'lucida sans unicode', verdana, arial, helvetica, sans-serif;font-size:12;color:#666;line-height:14px;fill:#666;" text-anchor="middle" visibility="visible"><tspan x="888.912845363338">1985</tspan></text><text x="1039.8477040671114" y="408" style="font-family:'open sans', 'lucida sans unicode', verdana, arial, helvetica, sans-serif;font-size:12;color:#666;line-height:14px;fill:#666;" text-anchor="middle" visibility="visible"><tspan x="1039.8477040671114">1995</tspan></text><text x="1190.8238921407383" y="408" style="font-family:'open sans', 'lucida sans unicode', verdana, arial, helvetica, sans-serif;font-size:12;color:#666;line-height:14px;fill:#666;" text-anchor="middle" visibility="visible"><tspan x="1190.8238921407383">2005</tspan></text><text x="1338.28125" y="408" style="font-family:'open sans', 'lucida sans unicode', verdana, arial, helvetica, sans-serif;font-size:12;color:#666;line-height:14px;fill:#666;" text-anchor="middle" visibility="visible"><tspan x="1338.28125">2015</tspan></text><path d="M 210.5 394 L 210.5 399" fill="none" stroke="#C0D0E0" stroke-width="1"></path><path d="M 285.5 394 L 285.5 399" fill="none" stroke="#C0D0E0" stroke-width="1"></path><path d="M 361.5 394 L 361.5 399" fill="none" stroke="#C0D0E0" stroke-width="1"></path><path d="M 436.5 394 L 436.5 399" fill="none" stroke="#C0D0E0" stroke-width="1"></path><path d="M 511.5 394 L 511.5 399" fill="none" stroke="#C0D0E0" stroke-width="1"></path><path d="M 587.5 394 L 587.5 399" fill="none" stroke="#C0D0E0" stroke-width="1"></path><path d="M 662.5 394 L 662.5 399" fill="none" stroke="#C0D0E0" stroke-width="1"></path><path d="M 738.5 394 L 738.5 399" fill="none" stroke="#C0D0E0" stroke-width="1"></path><path d="M 813.5 394 L 813.5 399" fill="none" stroke="#C0D0E0" stroke-width="1"></path><path d="M 889.5 394 L 889.5 399" fill="none" stroke="#C0D0E0" stroke-width="1"></path><path d="M 964.5 394 L 964.5 399" fill="none" stroke="#C0D0E0" stroke-width="1"></path><path d="M 1040.5 394 L 1040.5 399" fill="none" stroke="#C0D0E0" stroke-width="1"></path><path d="M 1115.5 394 L 1115.5 399" fill="none" stroke="#C0D0E0" stroke-width="1"></path><path d="M 1191.5 394 L 1191.5 399" fill="none" stroke="#C0D0E0" stroke-width="1"></path><path d="M 1266.5 394 L 1266.5 399" fill="none" stroke="#C0D0E0" stroke-width="1"></path><path d="M 1342.5 394 L 1342.5 399" fill="none" stroke="#C0D0E0" stroke-width="1"></path><path d="M 134.5 394 L 134.5 399" fill="none" stroke="#C0D0E0" stroke-width="1"></path></g><text x="713" y="430" style="font-family:'open sans', 'lucida sans unicode', verdana, arial, helvetica, sans-serif;font-size:14;color:#000000;font-weight:normal;fill:#000000;"  text-anchor="middle" visibility="visible"><tspan x="713">year</tspan></text><g class="highcharts-axis" ><text x="66" y="398.1" style="font-family:'open sans', 'lucida sans unicode', verdana, arial, helvetica, sans-serif;font-size:12;width:618px;color:#666;line-height:14px;fill:#666;" text-anchor="end" visibility="visible"><tspan x="66">0%</tspan></text><text x="66" y="351.35" style="font-family:'open sans', 'lucida sans unicode', verdana, arial, helvetica, sans-serif;font-size:12;width:618px;color:#666;line-height:14px;fill:#666;" text-anchor="end" visibility="visible"><tspan x="66">0.5%</tspan></text><text x="66" y="304.6" style="font-family:'open sans', 'lucida sans unicode', verdana, arial, helvetica, sans-serif;font-size:12;width:618px;color:#666;line-height:14px;fill:#666;" text-anchor="end" visibility="visible"><tspan x="66">1%</tspan></text><text x="66" y="257.85" style="font-family:'open sans', 'lucida sans unicode', verdana, arial, helvetica, sans-serif;font-size:12;width:618px;color:#666;line-height:14px;fill:#666;" text-anchor="end" visibility="visible"><tspan x="66">1.5%</tspan></text><text x="66" y="211.1" style="font-family:'open sans', 'lucida sans unicode', verdana, arial, helvetica, sans-serif;font-size:12;width:618px;color:#666;line-height:14px;fill:#666;" text-anchor="end" visibility="visible"><tspan x="66">2%</tspan></text><text x="66" y="164.35" style="font-family:'open sans', 'lucida sans unicode', verdana, arial, helvetica, sans-serif;font-size:12;width:618px;color:#666;line-height:14px;fill:#666;" text-anchor="end" visibility="visible"><tspan x="66">2.5%</tspan></text><text x="66" y="117.6" style="font-family:'open sans', 'lucida sans unicode', verdana, arial, helvetica, sans-serif;font-size:12;width:618px;color:#666;line-height:14px;fill:#666;" text-anchor="end" visibility="visible"><tspan x="66">3%</tspan></text><text x="66" y="70.85" style="font-family:'open sans', 'lucida sans unicode', verdana, arial, helvetica, sans-serif;font-size:12;width:618px;color:#666;line-height:14px;fill:#666;" text-anchor="end" visibility="visible"><tspan x="66">3.5%</tspan></text><text x="66" y="24.1" style="font-family:'open sans', 'lucida sans unicode', verdana, arial, helvetica, sans-serif;font-size:12;width:618px;color:#666;line-height:14px;fill:#666;" text-anchor="end" visibility="visible"><tspan x="66">4%</tspan></text></g><text x="29.21875" y="207" style="font-family:'open sans', 'lucida sans unicode', verdana, arial, helvetica, sans-serif;font-size:14;color:#000000;font-weight:normal;fill:#000000;"  transform="rotate(270 29.21875 207)" text-anchor="middle" visibility="visible"><tspan x="29.21875">% of Texts</tspan></text><path d="M 74 394.5 L 1352 394.5" fill="none" stroke="#555555" stroke-width="1"  visibility="visible"></path><path d="M 74.5 20 L 74.5 394" fill="none" stroke="#555555" stroke-width="1"  visibility="visible"></path><g  style="padding:0;white-space:nowrap;" visibility="hidden"><rect rx="5" ry="5" fill="none" x="0" y="0" width="0" height="0" stroke-width="5" fill-opacity="0.85" anchorX="0" anchorY="0"  stroke="rgb(0, 0, 0)" stroke-opacity="0.05" transform="translate(1,1)"></rect><rect rx="5" ry="5" fill="none" x="0" y="0" width="0" height="0" stroke-width="3" fill-opacity="0.85" anchorX="0" anchorY="0"  stroke="rgb(0, 0, 0)" stroke-opacity="0.1" transform="translate(1,1)"></rect><rect rx="5" ry="5" fill="none" x="0" y="0" width="0" height="0" stroke-width="1" fill-opacity="0.85" anchorX="0" anchorY="0"  stroke="rgb(0, 0, 0)" stroke-opacity="0.15000000000000002" transform="translate(1,1)"></rect><rect rx="5" ry="5" fill="rgb(255,255,255)" x="0" y="0" width="0" height="0" stroke-width="2" fill-opacity="0.85" anchorX="0" anchorY="0"></rect><text x="0" y="13" style="font-family:'open sans', 'lucida sans unicode', verdana, arial, helvetica, sans-serif;font-size:12px;color:#333333;fill:#333333;" ></text></g><text x="1352" y="445" style="font-family:'open sans', 'lucida sans unicode', verdana, arial, helvetica, sans-serif;font-size:10px;cursor:pointer;color:#909090;fill:#909090;" text-anchor="end" ></text><g class="highcharts-tracker" ><g  transform="translate(74,20)" clip-path="url(#highcharts-26)"><path d="M 2.5 270.1 L 12.5 270.1 L 27.7 374 L 42.7 111.9 L 57.8 374 L 72.9 374 L 88 296.7 L 103.1 285 L 118.2 264 L 133.3 374 L 148.4 278.6 L 163.5 374 L 178.6 188.9 L 193.7 374 L 208.8 374 L 223.9 278.6 L 239 106.9 L 254.1 286.6 L 269.2 54.3 L 284.3 219.5 L 299.4 166.2 L 314.4 233.4 L 329.6 374 L 344.7 312.9 L 359.7 127.9 L 374.8 281.9 L 389.9 329.5 L 405 211.4 L 420.1 374 L 435.2 294.1 L 450.3 374 L 465.4 374 L 480.5 335.8 L 495.6 340.1 L 510.7 374 L 525.8 354.8 L 540.9 341 L 556 341.5 L 571.1 294.8 L 586.2 320.3 L 601.3 352.9 L 616.4 284.3 L 631.5 374 L 646.6 353.8 L 661.6 333.9 L 676.7 352.1 L 691.9 374 L 706.9 307.1 L 722 353.5 L 737.1 374 L 752.2 374 L 767.3 350.2 L 782.4 251.2 L 797.5 354.9 L 812.6 341 L 827.7 346.2 L 842.8 341.8 L 857.9 318.4 L 873 359.1 L 888.1 296.9 L 903.2 334.1 L 918.3 349.8 L 933.4 317.1 L 948.5 345.3 L 963.6 229.5 L 978.6 238.2 L 993.8 310.8 L 1008.9 335.5 L 1023.9 317.3 L 1039 351.9 L 1054.2 319.4 L 1069.2 353 L 1084.3 339.8 L 1099.4 359.9 L 1114.5 331.1 L 1129.6 350.3 L 1144.7 352.6 L 1159.8 328.1 L 1174.9 340.8 L 1190 352.4 L 1205.1 352.1 L 1220.2 345 L 1235.3 346.2 L 1250.4 346.8 L 1265.5 305.5 L 1275.5 305.5" fill="none"  stroke-opacity="0.000001" stroke="rgb(192,192,192)" stroke-linejoin="bevel" stroke-width="22" visibility="visible" style="cursor:pointer;"></path></g><g  transform="translate(74,20)" clip-path="url(#highcharts-26)"><path d="M 2.5 374 L 12.5 374 L 27.7 374 L 42.7 286.6 L 57.8 374 L 72.9 374 L 88 374 L 103.1 374 L 118.2 374 L 133.3 374 L 148.4 374 L 163.5 374 L 178.6 374 L 193.7 374 L 208.8 285 L 223.9 278.6 L 239 374 L 254.1 374 L 269.2 294.1 L 284.3 296.7 L 299.4 374 L 314.4 374 L 329.6 374 L 344.7 190.7 L 359.7 251 L 374.8 189.8 L 389.9 374 L 405 333.3 L 420.1 374 L 435.2 374 L 450.3 305.3 L 465.4 374 L 480.5 335.8 L 495.6 340.1 L 510.7 374 L 525.8 335.5 L 540.9 307.9 L 556 357.8 L 571.1 334.4 L 586.2 356.1 L 601.3 352.9 L 616.4 351.6 L 631.5 326.8 L 646.6 353.8 L 661.6 374 L 676.7 352.1 L 691.9 350.1 L 706.9 351.7 L 722 312.6 L 737.1 374 L 752.2 349.3 L 767.3 374 L 782.4 353.5 L 797.5 374 L 812.6 307.9 L 827.7 332.3 L 842.8 309.6 L 857.9 374 L 873 359.1 L 888.1 284.1 L 903.2 347.4 L 918.3 313.4 L 933.4 328.5 L 948.5 374 L 963.6 366 L 978.6 351.4 L 993.8 360 L 1008.9 348.4 L 1023.9 355.1 L 1039 335.4 L 1054.2 359.1 L 1069.2 353 L 1084.3 339.8 L 1099.4 349.4 L 1114.5 355.6 L 1129.6 353 L 1144.7 357.4 L 1159.8 345.6 L 1174.9 347.5 L 1190 338.1 L 1205.1 345.8 L 1220.2 345 L 1235.3 347.7 L 1250.4 351.9 L 1265.5 322.6 L 1275.5 322.6" fill="none"  stroke-opacity="0.000001" stroke="rgb(192,192,192)" stroke-linejoin="bevel" stroke-width="22" visibility="visible" style="cursor:pointer;"></path></g><g  transform="translate(74,20)" clip-path="url(#highcharts-26)"><path d="M 2.5 374 L 12.5 374 L 27.7 374 L 42.7 374 L 57.8 374 L 72.9 374 L 88 374 L 103.1 374 L 118.2 374 L 133.3 282.3 L 148.4 278.6 L 163.5 374 L 178.6 374 L 193.7 374 L 208.8 374 L 223.9 374 L 239 285 L 254.1 374 L 269.2 294.1 L 284.3 219.5 L 299.4 304.7 L 314.4 163.1 L 329.6 307.7 L 344.7 190.7 L 359.7 374 L 374.8 235.8 L 389.9 329.5 L 405 292.7 L 420.1 337.3 L 435.2 294.1 L 450.3 339.6 L 465.4 374 L 480.5 374 L 495.6 306.2 L 510.7 327.5 L 525.8 354.8 L 540.9 341 L 556 244.1 L 571.1 374 L 586.2 338.2 L 601.3 352.9 L 616.4 172.2 L 631.5 255.9 L 646.6 313.3 L 661.6 313.8 L 676.7 374 L 691.9 302.3 L 706.9 374 L 722 333.1 L 737.1 292.7 L 752.2 374 L 767.3 326.4 L 782.4 333.1 L 797.5 297.5 L 812.6 374 L 827.7 304.5 L 842.8 325.7 L 857.9 360.1 L 873 344.2 L 888.1 309.8 L 903.2 334.1 L 918.3 361.9 L 933.4 294.4 L 948.5 354.9 L 963.6 325.8 L 978.6 328.7 L 993.8 360 L 1008.9 335.5 L 1023.9 336.2 L 1039 357.5 L 1054.2 349.2 L 1069.2 357.2 L 1084.3 351.2 L 1099.4 331.8 L 1114.5 337.2 L 1129.6 355.6 L 1144.7 345.5 L 1159.8 315 L 1174.9 327.6 L 1190 343.4 L 1205.1 328.6 L 1220.2 346.5 L 1235.3 337.4 L 1250.4 350.2 L 1265.5 356.9 L 1275.5 356.9" fill="none"  stroke-opacity="0.000001" stroke="rgb(192,192,192)" stroke-linejoin="bevel" stroke-width="22" visibility="visible" style="cursor:pointer;"></path></g><g  transform="translate(74,20)" clip-path="url(#highcharts-26)"><path d="M 2.5 270.1 L 12.5 270.1 L 27.7 156.6 L 42.7 374 L 57.8 181.2 L 72.9 374 L 88 374 L 103.1 285 L 118.2 374 L 133.3 374 L 148.4 278.6 L 163.5 202.4 L 178.6 281.4 L 193.7 188.9 L 208.8 195.9 L 223.9 278.6 L 239 374 L 254.1 199.2 L 269.2 294.1 L 284.3 374 L 299.4 304.7 L 314.4 303.7 L 329.6 241.4 L 344.7 312.9 L 359.7 251 L 374.8 327.9 L 389.9 240.4 L 405 292.7 L 420.1 227.3 L 435.2 334 L 450.3 270.9 L 465.4 374 L 480.5 335.8 L 495.6 374 L 510.7 374 L 525.8 335.5 L 540.9 341 L 556 357.8 L 571.1 354.2 L 586.2 356.1 L 601.3 310.7 L 616.4 329.2 L 631.5 303.2 L 646.6 272.8 L 661.6 374 L 676.7 286.4 L 691.9 326.2 L 706.9 351.7 L 722 353.5 L 737.1 292.7 L 752.2 349.3 L 767.3 326.4 L 782.4 312.6 L 797.5 374 L 812.6 307.9 L 827.7 346.2 L 842.8 293.5 L 857.9 304.5 L 873 195.1 L 888.1 309.8 L 903.2 294.2 L 918.3 265 L 933.4 362.6 L 948.5 326.2 L 963.6 333.9 L 978.6 351.4 L 993.8 254.6 L 1008.9 361.2 L 1023.9 336.2 L 1039 274.8 L 1054.2 344.2 L 1069.2 357.2 L 1084.3 324.6 L 1099.4 349.4 L 1114.5 337.2 L 1129.6 305.7 L 1144.7 326.6 L 1159.8 343.4 L 1174.9 329.8 L 1190 339.8 L 1205.1 308.3 L 1220.2 311.7 L 1235.3 299.4 L 1250.4 326.4 L 1265.5 339.8 L 1275.5 339.8" fill="none"  stroke-opacity="0.000001" stroke="rgb(192,192,192)" stroke-linejoin="bevel" stroke-width="22" visibility="visible" style="cursor:pointer;"></path></g><g  transform="translate(74,20)" clip-path="url(#highcharts-26)"><path d="M 2.5 374 L 12.5 374 L 27.7 374 L 42.7 374 L 57.8 374 L 72.9 374 L 88 296.7 L 103.1 374 L 118.2 264 L 133.3 374 L 148.4 278.6 L 163.5 374 L 178.6 374 L 193.7 374 L 208.8 374 L 223.9 278.6 L 239 285 L 254.1 374 L 269.2 294.1 L 284.3 374 L 299.4 304.7 L 314.4 303.7 L 329.6 307.7 L 344.7 374 L 359.7 312.5 L 374.8 374 L 389.9 285 L 405 333.3 L 420.1 374 L 435.2 254.1 L 450.3 374 L 465.4 329.7 L 480.5 374 L 495.6 306.2 L 510.7 374 L 525.8 335.5 L 540.9 307.9 L 556 341.5 L 571.1 334.4 L 586.2 356.1 L 601.3 374 L 616.4 351.6 L 631.5 350.4 L 646.6 293 L 661.6 353.9 L 676.7 264.5 L 691.9 302.3 L 706.9 351.7 L 722 353.5 L 737.1 353.7 L 752.2 349.3 L 767.3 350.2 L 782.4 333.1 L 797.5 374 L 812.6 341 L 827.7 346.2 L 842.8 341.8 L 857.9 304.5 L 873 329.3 L 888.1 361.2 L 903.2 334.1 L 918.3 313.4 L 933.4 362.6 L 948.5 335.8 L 963.6 341.9 L 978.6 321.2 L 993.8 352.9 L 1008.9 361.2 L 1023.9 361.4 L 1039 335.4 L 1054.2 319.4 L 1069.2 332 L 1084.3 362.6 L 1099.4 349.4 L 1114.5 349.5 L 1129.6 353 L 1144.7 331.3 L 1159.8 352.2 L 1174.9 312.1 L 1190 312.9 L 1205.1 323.9 L 1220.2 336.3 L 1235.3 333 L 1250.4 340 L 1265.5 356.9 L 1275.5 356.9" fill="none"  stroke-opacity="0.000001" stroke="rgb(192,192,192)" stroke-linejoin="bevel" stroke-width="22" visibility="visible" style="cursor:pointer;"></path></g><g  transform="translate(74,20)" clip-path="url(#highcharts-26)"><path d="M 2.5 374 L 12.5 374 L 27.7 374 L 42.7 374 L 57.8 374 L 72.9 374 L 88 296.7 L 103.1 374 L 118.2 374 L 133.3 374 L 148.4 374 L 163.5 374 L 178.6 281.4 L 193.7 374 L 208.8 285 L 223.9 374 L 239 285 L 254.1 374 L 269.2 294.1 L 284.3 374 L 299.4 374 L 314.4 374 L 329.6 374 L 344.7 312.9 L 359.7 374 L 374.8 374 L 389.9 374 L 405 292.7 L 420.1 374 L 435.2 374 L 450.3 374 L 465.4 374 L 480.5 335.8 L 495.6 374 L 510.7 281 L 525.8 335.5 L 540.9 324.4 L 556 325.3 L 571.1 374 L 586.2 338.2 L 601.3 352.9 L 616.4 351.6 L 631.5 374 L 646.6 333.5 L 661.6 313.8 L 676.7 330.2 L 691.9 350.1 L 706.9 374 L 722 353.5 L 737.1 353.7 L 752.2 324.5 L 767.3 326.4 L 782.4 292.2 L 797.5 354.9 L 812.6 291.4 L 827.7 304.5 L 842.8 341.8 L 857.9 276.7 L 873 329.3 L 888.1 309.8 L 903.2 320.8 L 918.3 313.4 L 933.4 351.3 L 948.5 307.1 L 963.6 333.9 L 978.6 321.2 L 993.8 324.8 L 1008.9 303.5 L 1023.9 317.3 L 1039 307.8 L 1054.2 329.3 L 1069.2 327.8 L 1084.3 279 L 1099.4 321.3 L 1114.5 309.6 L 1129.6 329.3 L 1144.7 300.5 L 1159.8 323.8 L 1174.9 298.8 L 1190 321.9 L 1205.1 306.7 L 1220.2 321.8 L 1235.3 311.1 L 1250.4 299.2 L 1265.5 356.9 L 1275.5 356.9" fill="none"  stroke-opacity="0.000001" stroke="rgb(192,192,192)" stroke-linejoin="bevel" stroke-width="22" visibility="visible" style="cursor:pointer;"></path></g><g  transform="translate(74,20)" clip-path="url(#highcharts-26)"><path d="M 2.5 374 L 12.5 374 L 27.7 374 L 42.7 374 L 57.8 374 L 72.9 374 L 88 374 L 103.1 374 L 118.2 374 L 133.3 374 L 148.4 183.2 L 163.5 374 L 178.6 374 L 193.7 281.4 L 208.8 374 L 223.9 374 L 239 374 L 254.1 374 L 269.2 374 L 284.3 219.5 L 299.4 235.5 L 314.4 374 L 329.6 374 L 344.7 312.9 L 359.7 374 L 374.8 374 L 389.9 374 L 405 252 L 420.1 337.3 L 435.2 334 L 450.3 339.6 L 465.4 374 L 480.5 335.8 L 495.6 340.1 L 510.7 350.7 L 525.8 335.5 L 540.9 374 L 556 357.8 L 571.1 354.2 L 586.2 338.2 L 601.3 331.8 L 616.4 351.6 L 631.5 326.8 L 646.6 333.5 L 661.6 293.7 L 676.7 352.1 L 691.9 326.2 L 706.9 329.4 L 722 374 L 737.1 333.3 L 752.2 374 L 767.3 350.2 L 782.4 353.5 L 797.5 335.8 L 812.6 357.5 L 827.7 346.2 L 842.8 325.7 L 857.9 360.1 L 873 374 L 888.1 374 L 903.2 320.8 L 918.3 349.8 L 933.4 351.3 L 948.5 374 L 963.6 374 L 978.6 351.4 L 993.8 338.9 L 1008.9 335.5 L 1023.9 361.4 L 1039 346.4 L 1054.2 374 L 1069.2 357.2 L 1084.3 355 L 1099.4 338.8 L 1114.5 361.7 L 1129.6 350.3 L 1144.7 338.4 L 1159.8 347.8 L 1174.9 354.1 L 1190 332.7 L 1205.1 333.3 L 1220.2 345 L 1235.3 360.8 L 1250.4 362.1 L 1265.5 374 L 1275.5 374" fill="none"  stroke-opacity="0.000001" stroke="rgb(192,192,192)" stroke-linejoin="bevel" stroke-width="22" visibility="visible" style="cursor:pointer;"></path></g><g  transform="translate(74,20)" clip-path="url(#highcharts-26)"><path d="M 2.5 374 L 12.5 374 L 27.7 374 L 42.7 286.6 L 57.8 374 L 72.9 374 L 88 219.5 L 103.1 374 L 118.2 374 L 133.3 374 L 148.4 183.2 L 163.5 374 L 178.6 374 L 193.7 281.4 L 208.8 374 L 223.9 374 L 239 195.9 L 254.1 286.6 L 269.2 214.2 L 284.3 296.7 L 299.4 304.7 L 314.4 374 L 329.6 307.7 L 344.7 251.8 L 359.7 374 L 374.8 374 L 389.9 329.5 L 405 333.3 L 420.1 300.7 L 435.2 334 L 450.3 339.6 L 465.4 329.7 L 480.5 374 L 495.6 374 L 510.7 327.5 L 525.8 354.8 L 540.9 291.4 L 556 341.5 L 571.1 275 L 586.2 320.3 L 601.3 289.6 L 616.4 284.3 L 631.5 303.2 L 646.6 252.6 L 661.6 353.9 L 676.7 374 L 691.9 326.2 L 706.9 351.7 L 722 333.1 L 737.1 313 L 752.2 374 L 767.3 350.2 L 782.4 312.6 L 797.5 354.9 L 812.6 307.9 L 827.7 360.1 L 842.8 341.8 L 857.9 360.1 L 873 344.2 L 888.1 361.2 L 903.2 334.1 L 918.3 361.9 L 933.4 317.1 L 948.5 374 L 963.6 357.9 L 978.6 351.4 L 993.8 352.9 L 1008.9 322.7 L 1023.9 355.1 L 1039 351.9 L 1054.2 374 L 1069.2 357.2 L 1084.3 366.4 L 1099.4 356.4 L 1114.5 334.1 L 1129.6 342.5 L 1144.7 336 L 1159.8 347.8 L 1174.9 365.2 L 1190 343.4 L 1205.1 349 L 1220.2 353.7 L 1235.3 356.4 L 1250.4 336.6 L 1265.5 374 L 1275.5 374" fill="none"  stroke-opacity="0.000001" stroke="rgb(192,192,192)" stroke-linejoin="bevel" stroke-width="22" visibility="visible" style="cursor:pointer;"></path></g><g  transform="translate(74,20)" clip-path="url(#highcharts-26)"><path d="M 2.5 374 L 12.5 374 L 27.7 374 L 42.7 374 L 57.8 277.6 L 72.9 298.6 L 88 374 L 103.1 374 L 118.2 374 L 133.3 374 L 148.4 374 L 163.5 374 L 178.6 281.4 L 193.7 188.9 L 208.8 195.9 L 223.9 278.6 L 239 374 L 254.1 374 L 269.2 374 L 284.3 374 L 299.4 304.7 L 314.4 374 L 329.6 374 L 344.7 374 L 359.7 374 L 374.8 281.9 L 389.9 374 L 405 292.7 L 420.1 374 L 435.2 334 L 450.3 374 L 465.4 374 L 480.5 374 L 495.6 374 L 510.7 350.7 L 525.8 374 L 540.9 357.5 L 556 374 L 571.1 374 L 586.2 374 L 601.3 374 L 616.4 374 L 631.5 374 L 646.6 374 L 661.6 374 L 676.7 374 L 691.9 350.1 L 706.9 262.4 L 722 353.5 L 737.1 353.7 L 752.2 374 L 767.3 350.2 L 782.4 374 L 797.5 374 L 812.6 357.5 L 827.7 360.1 L 842.8 357.9 L 857.9 360.1 L 873 374 L 888.1 374 L 903.2 334.1 L 918.3 374 L 933.4 351.3 L 948.5 364.4 L 963.6 357.9 L 978.6 358.9 L 993.8 367 L 1008.9 361.2 L 1023.9 355.1 L 1039 363 L 1054.2 359.1 L 1069.2 353 L 1084.3 347.4 L 1099.4 352.9 L 1114.5 346.4 L 1129.6 345.1 L 1144.7 350.3 L 1159.8 367.4 L 1174.9 354.1 L 1190 354.2 L 1205.1 361.5 L 1220.2 362.4 L 1235.3 369.6 L 1250.4 345.1 L 1265.5 374 L 1275.5 374" fill="none"  stroke-opacity="0.000001" stroke="rgb(192,192,192)" stroke-linejoin="bevel" stroke-width="22" visibility="visible" style="cursor:pointer;"></path></g><g  transform="translate(74,20)" clip-path="url(#highcharts-26)"><path d="M 2.5 374 L 12.5 374 L 27.7 374 L 42.7 374 L 57.8 277.6 L 72.9 374 L 88 374 L 103.1 374 L 118.2 264 L 133.3 374 L 148.4 278.6 L 163.5 288.2 L 178.6 374 L 193.7 374 L 208.8 374 L 223.9 374 L 239 285 L 254.1 374 L 269.2 374 L 284.3 374 L 299.4 304.7 L 314.4 374 L 329.6 307.7 L 344.7 374 L 359.7 312.5 L 374.8 281.9 L 389.9 329.5 L 405 333.3 L 420.1 337.3 L 435.2 334 L 450.3 374 L 465.4 374 L 480.5 374 L 495.6 340.1 L 510.7 374 L 525.8 316.3 L 540.9 357.5 L 556 374 L 571.1 374 L 586.2 374 L 601.3 310.7 L 616.4 351.6 L 631.5 326.8 L 646.6 353.8 L 661.6 353.9 L 676.7 352.1 L 691.9 350.1 L 706.9 351.7 L 722 333.1 L 737.1 313 L 752.2 324.5 L 767.3 350.2 L 782.4 333.1 L 797.5 335.8 L 812.6 341 L 827.7 346.2 L 842.8 293.5 L 857.9 360.1 L 873 314.4 L 888.1 361.2 L 903.2 334.1 L 918.3 374 L 933.4 362.6 L 948.5 345.3 L 963.6 366 L 978.6 358.9 L 993.8 338.9 L 1008.9 342 L 1023.9 361.4 L 1039 351.9 L 1054.2 354.1 L 1069.2 353 L 1084.3 347.4 L 1099.4 356.4 L 1114.5 364.8 L 1129.6 345.1 L 1144.7 340.8 L 1159.8 345.6 L 1174.9 360.7 L 1190 347 L 1205.1 333.3 L 1220.2 330.5 L 1235.3 316.9 L 1250.4 265.2 L 1265.5 202.8 L 1275.5 202.8" fill="none"  stroke-opacity="0.000001" stroke="rgb(192,192,192)" stroke-linejoin="bevel" stroke-width="22" visibility="visible" style="cursor:pointer;"></path></g></g></svg>