<?xml version="1.0" standalone="no"?><!DOCTYPE svg PUBLIC "-//W3C//DTD SVG 1.1//EN" "http://www.w3.org/Graphics/SVG/1.1/DTD/svg11.dtd"><svg xmlns:xlink="http://www.w3.org/1999/xlink" xmlns="http://www.w3.org/2000/svg" version="1.1" width="1362" height="450"><defs><clipPath id="highcharts-13"><rect rx="0" ry="0" fill="none" x="0" y="0" width="1281" height="375" stroke-width="0.000001"></rect></clipPath></defs><rect rx="5" ry="5" fill="#FFFFFF" x="0" y="0" width="1362" height="450" stroke-width="0.000001" stroke="#4572A7"></rect><g class="highcharts-grid" ></g><g class="highcharts-grid" ></g><g class="highcharts-series-group" ><g class="highcharts-series" visibility="visible" transform="translate(71,20)" clip-path="url(#highcharts-13)"><path d="M 12.6 357.4 L 27.7 365.3 L 42.8 346 L 58 358.6 L 73.1 361.9 L 88.2 336.9 L 103.4 352.6 L 118.5 347.6 L 133.6 366.7 L 148.8 312.9 L 163.9 339.7 L 179 322.2 L 194.1 337 L 209.3 352.6 L 224.4 335.8 L 239.5 324.1 L 254.7 353 L 269.8 335.6 L 284.9 299.8 L 300.1 318.6 L 315.2 351.5 L 330.3 347.5 L 345.5 320.2 L 360.6 324.8 L 375.7 351.9 L 390.9 345.5 L 406 348 L 421.1 294.8 L 436.2 332.4 L 451.4 346.5 L 466.5 363.4 L 481.6 358.7 L 496.8 327.9 L 511.9 351.7 L 527 354 L 542.2 358.1 L 557.3 351.9 L 572.4 361.3 L 587.6 356.8 L 602.7 348.7 L 617.8 341.7 L 633 349.4 L 648.1 348.1 L 663.2 337.1 L 678.3 332 L 693.5 335.7 L 708.6 324 L 723.7 318.4 L 738.8 352.9 L 754 332.4 L 769.1 347.4 L 784.2 341.3 L 799.4 308.2 L 814.5 305.3 L 829.7 318.4 L 844.8 327.7 L 859.9 322.9 L 875.1 321.5 L 890.2 322.6 L 905.3 325.1 L 920.4 326.5 L 935.6 342.2 L 950.7 348 L 965.8 340 L 980.9 329.3 L 996.1 330.7 L 1011.2 333.5 L 1026.3 339.7 L 1041.5 344 L 1056.6 353.3 L 1071.7 347.4 L 1086.9 340 L 1102 342.2 L 1117.2 345 L 1132.3 341.4 L 1147.4 328.8 L 1162.5 335.6 L 1177.7 336.3 L 1192.8 337.8 L 1207.9 339.1 L 1223 342.8 L 1238.2 347 L 1253.3 339.6 L 1268.4 338.4" fill="none" stroke="#1F77B4" stroke-width="2"></path></g><g class="highcharts-series" visibility="visible" transform="translate(71,20)" clip-path="url(#highcharts-13)"><path d="M 12.6 340.8 L 27.7 313.1 L 42.8 297.1 L 58 304.6 L 73.1 325.7 L 88.2 287.5 L 103.4 338.4 L 118.5 312.4 L 133.6 286 L 148.8 267.1 L 163.9 264.2 L 179 285.1 L 194.1 307.3 L 209.3 309.9 L 224.4 282.4 L 239.5 309.9 L 254.7 304.1 L 269.8 271.7 L 284.9 306 L 300.1 285.3 L 315.2 289.6 L 330.3 283.8 L 345.5 305.6 L 360.6 295.3 L 375.7 296.6 L 390.9 317 L 406 305.7 L 421.1 315.3 L 436.2 332.4 L 451.4 343.8 L 466.5 317.3 L 481.6 325.2 L 496.8 341.5 L 511.9 338.6 L 527 343.2 L 542.2 344.9 L 557.3 349.3 L 572.4 339.1 L 587.6 353.9 L 602.7 330.1 L 617.8 347.1 L 633 340 L 648.1 335.1 L 663.2 329.1 L 678.3 323.2 L 693.5 324.3 L 708.6 343.7 L 723.7 339.6 L 738.8 328.5 L 754 316.6 L 769.1 334 L 784.2 318.4 L 799.4 325.1 L 814.5 333 L 829.7 318.4 L 844.8 321.2 L 859.9 330.7 L 875.1 308.4 L 890.2 323.7 L 905.3 341 L 920.4 319.7 L 935.6 322.1 L 950.7 339.6 L 965.8 329.1 L 980.9 321.5 L 996.1 327.9 L 1011.2 326.8 L 1026.3 324.1 L 1041.5 341.4 L 1056.6 339 L 1071.7 338 L 1086.9 341.5 L 1102 342.2 L 1117.2 345.5 L 1132.3 340.8 L 1147.4 339.3 L 1162.5 339.4 L 1177.7 339.9 L 1192.8 340.4 L 1207.9 338.5 L 1223 333.8 L 1238.2 330.2 L 1253.3 324.2 L 1268.4 332.9" fill="none" stroke="#FF7F0E" stroke-width="2"></path></g><g class="highcharts-series" visibility="visible" transform="translate(71,20)" clip-path="url(#highcharts-13)"><path d="M 12.6 374 L 27.7 374 L 42.8 367 L 58 374 L 73.1 368 L 88.2 374 L 103.4 374 L 118.5 374 L 133.6 374 L 148.8 366.4 L 163.9 353.4 L 179 374 L 194.1 374 L 209.3 374 L 224.4 366.4 L 239.5 366.9 L 254.7 360 L 269.8 374 L 284.9 343.1 L 300.1 335.2 L 315.2 357.1 L 330.3 368.7 L 345.5 369.1 L 360.6 369.1 L 375.7 359.3 L 390.9 356.2 L 406 361 L 421.1 353.5 L 436.2 361.2 L 451.4 357.5 L 466.5 374 L 481.6 361.8 L 496.8 365.9 L 511.9 362.8 L 527 366.3 L 542.2 371.4 L 557.3 368.8 L 572.4 370.8 L 587.6 366.8 L 602.7 368.9 L 617.8 361.4 L 633 370.2 L 648.1 359.4 L 663.2 359.6 L 678.3 365.2 L 693.5 360.6 L 708.6 357.9 L 723.7 357.6 L 738.8 362.6 L 754 366.1 L 769.1 370.2 L 784.2 356 L 799.4 357.2 L 814.5 350.2 L 829.7 350.7 L 844.8 366.3 L 859.9 355.1 L 875.1 362.1 L 890.2 363.7 L 905.3 352.7 L 920.4 362.4 L 935.6 364.9 L 950.7 361.8 L 965.8 365.7 L 980.9 355.9 L 996.1 365 L 1011.2 358.1 L 1026.3 362.4 L 1041.5 359.9 L 1056.6 364.5 L 1071.7 357.5 L 1086.9 357 L 1102 355.2 L 1117.2 351.9 L 1132.3 356.1 L 1147.4 352.7 L 1162.5 357.9 L 1177.7 357 L 1192.8 357.9 L 1207.9 361.2 L 1223 361.2 L 1238.2 359.3 L 1253.3 361.8 L 1268.4 360.3" fill="none" stroke="#2CA02C" stroke-width="2"></path></g><g class="highcharts-series" visibility="visible" transform="translate(71,20)" clip-path="url(#highcharts-13)"><path d="M 12.6 374 L 27.7 374 L 42.8 360 L 58 374 L 73.1 368 L 88.2 361.6 L 103.4 366.9 L 118.5 374 L 133.6 374 L 148.8 366.4 L 163.9 374 L 179 359.2 L 194.1 359.2 L 209.3 359.8 L 224.4 374 L 239.5 352.6 L 254.7 374 L 269.8 367.6 L 284.9 349.3 L 300.1 357.4 L 315.2 368.4 L 330.3 363.4 L 345.5 344.7 L 360.6 369.1 L 375.7 362.9 L 390.9 366.9 L 406 361 L 421.1 362.3 L 436.2 364.4 L 451.4 368.5 L 466.5 370.5 L 481.6 367.9 L 496.8 363.2 L 511.9 368.4 L 527 370.9 L 542.2 370 L 557.3 371.4 L 572.4 372.4 L 587.6 372.6 L 602.7 370.6 L 617.8 370.4 L 633 372.1 L 648.1 364.3 L 663.2 367.6 L 678.3 374 L 693.5 362.5 L 708.6 365.1 L 723.7 365.8 L 738.8 367.5 L 754 368.1 L 769.1 372.1 L 784.2 359.3 L 799.4 364.8 L 814.5 363.4 L 829.7 365.1 L 844.8 367.6 L 859.9 362.9 L 875.1 365.6 L 890.2 364.8 L 905.3 359.1 L 920.4 354.6 L 935.6 364.9 L 950.7 353.4 L 965.8 346.4 L 980.9 351.7 L 996.1 354.3 L 1011.2 353.5 L 1026.3 355.4 L 1041.5 351.9 L 1056.6 356.1 L 1071.7 353.5 L 1086.9 347.3 L 1102 356 L 1117.2 362.5 L 1132.3 357 L 1147.4 354.8 L 1162.5 357.4 L 1177.7 362.5 L 1192.8 357.2 L 1207.9 360.1 L 1223 360 L 1238.2 357.7 L 1253.3 359.2 L 1268.4 358.9" fill="none" stroke="#D62728" stroke-width="2"></path></g><g class="highcharts-series" visibility="visible" transform="translate(71,20)" clip-path="url(#highcharts-13)"><path d="M 12.6 374 L 27.7 365.3 L 42.8 367 L 58 358.6 L 73.1 349.9 L 88.2 336.9 L 103.4 324.1 L 118.5 347.6 L 133.6 337.3 L 148.8 320.6 L 163.9 360.3 L 179 292.5 L 194.1 351.8 L 209.3 331.3 L 224.4 328.2 L 239.5 331.3 L 254.7 325.1 L 269.8 290.9 L 284.9 330.7 L 300.1 324.1 L 315.2 329 L 330.3 342.2 L 345.5 320.2 L 360.6 339.6 L 375.7 344.5 L 390.9 345.5 L 406 338.2 L 421.1 344.7 L 436.2 348.4 L 451.4 360.3 L 466.5 356.3 L 481.6 355.7 L 496.8 352.3 L 511.9 348 L 527 354 L 542.2 360.8 L 557.3 354.5 L 572.4 358.2 L 587.6 362.5 L 602.7 352 L 617.8 352.5 L 633 362.7 L 648.1 354.6 L 663.2 353.1 L 678.3 360 L 693.5 353 L 708.6 345.4 L 723.7 342.9 L 738.8 335 L 754 348.3 L 769.1 353.1 L 784.2 346.2 L 799.4 335.8 L 814.5 344.9 L 829.7 335.1 L 844.8 327.7 L 859.9 334 L 875.1 350.1 L 890.2 329.8 L 905.3 340 L 920.4 355.6 L 935.6 344 L 950.7 354.9 L 965.8 350.2 L 980.9 355.9 L 996.1 349.3 L 1011.2 353.5 L 1026.3 341.3 L 1041.5 340.5 L 1056.6 358.1 L 1071.7 346.4 L 1086.9 339.7 L 1102 353.7 L 1117.2 348.7 L 1132.3 351.5 L 1147.4 348.4 L 1162.5 347.1 L 1177.7 348.9 L 1192.8 352.3 L 1207.9 348.5 L 1223 345.6 L 1238.2 349 L 1253.3 345.9 L 1268.4 341.1" fill="none" stroke="#9467BD" stroke-width="2"></path></g><g class="highcharts-series" visibility="visible" transform="translate(71,20)" clip-path="url(#highcharts-13)"><path d="M 12.6 332.4 L 27.7 330.5 L 42.8 346 L 58 335.4 L 73.1 337.8 L 88.2 312.2 L 103.4 331.3 L 118.5 338.8 L 133.6 337.3 L 148.8 312.9 L 163.9 332.8 L 179 270.3 L 194.1 285.1 L 209.3 324.1 L 224.4 320.6 L 239.5 260 L 254.7 311.1 L 269.8 354.8 L 284.9 306 L 300.1 307.5 L 315.2 329 L 330.3 305 L 345.5 344.7 L 360.6 339.6 L 375.7 322.4 L 390.9 334.8 L 406 328.5 L 421.1 318.3 L 436.2 310.1 L 451.4 332.8 L 466.5 356.3 L 481.6 334.3 L 496.8 338.8 L 511.9 342.4 L 527 338.6 L 542.2 338.3 L 557.3 350.6 L 572.4 351.8 L 587.6 355.4 L 602.7 347 L 617.8 339.9 L 633 347.6 L 648.1 336.8 L 663.2 332.3 L 678.3 333.7 L 693.5 345.3 L 708.6 350.8 L 723.7 324.9 L 738.8 352.9 L 754 344.3 L 769.1 351.2 L 784.2 351.1 L 799.4 354.1 L 814.5 355.5 L 829.7 354 L 844.8 356 L 859.9 351.8 L 875.1 346.6 L 890.2 347.3 L 905.3 347.4 L 920.4 351.7 L 935.6 346.7 L 950.7 357.2 L 965.8 354.7 L 980.9 344.4 L 996.1 333 L 1011.2 346.8 L 1026.3 353.3 L 1041.5 349.3 L 1056.6 356.9 L 1071.7 357.9 L 1086.9 353.9 L 1102 357.7 L 1117.2 356.8 L 1132.3 354 L 1147.4 353.3 L 1162.5 351.5 L 1177.7 353.3 L 1192.8 354.9 L 1207.9 352.9 L 1223 358.2 L 1238.2 357.8 L 1253.3 356.2 L 1268.4 354.8" fill="none" stroke="#8C564B" stroke-width="2"></path></g><g class="highcharts-series" visibility="visible" transform="translate(71,20)" clip-path="url(#highcharts-13)"><path d="M 12.6 249.3 L 27.7 234.8 L 42.8 129.3 L 58 165.8 L 73.1 229.2 L 88.2 176.2 L 103.4 195.9 L 118.5 171.6 L 133.6 168.7 L 148.8 99.2 L 163.9 127 L 179 77.8 L 194.1 233.3 L 209.3 188.8 L 224.4 175.6 L 239.5 217.3 L 254.7 108.4 L 269.8 227 L 284.9 170 L 300.1 146.8 L 315.2 188.4 L 330.3 183 L 345.5 232.2 L 360.6 221.4 L 375.7 237.7 L 390.9 249.3 L 406 243.9 L 421.1 268.4 L 436.2 236.5 L 451.4 283.3 L 466.5 249.9 L 481.6 248.8 L 496.8 260.2 L 511.9 312.6 L 527 303.2 L 542.2 311.9 L 557.3 294.8 L 572.4 305.9 L 587.6 299.5 L 602.7 284.5 L 617.8 261 L 633 277.7 L 648.1 263.9 L 663.2 276.1 L 678.3 281.2 L 693.5 249.7 L 708.6 272.2 L 723.7 277.4 L 738.8 282.9 L 754 255.3 L 769.1 259.8 L 784.2 256.2 L 799.4 289.9 L 814.5 260.3 L 829.7 256.2 L 844.8 246.5 L 859.9 267.3 L 875.1 224.9 L 890.2 235.3 L 905.3 242.1 L 920.4 254.8 L 935.6 263.9 L 950.7 247.2 L 965.8 281.5 L 980.9 278 L 996.1 267.2 L 1011.2 276.1 L 1026.3 257.1 L 1041.5 270.8 L 1056.6 256.4 L 1071.7 264.1 L 1086.9 247 L 1102 264.3 L 1117.2 251.5 L 1132.3 255.4 L 1147.4 255.8 L 1162.5 248.4 L 1177.7 257.6 L 1192.8 252.4 L 1207.9 251.5 L 1223 256.7 L 1238.2 235.4 L 1253.3 231.8 L 1268.4 241.1" fill="none" stroke="#E377C2" stroke-width="2"></path></g></g><g class="highcharts-legend"  transform="translate(110,20)"><text x="7" y="18" style="font-family:'open sans', 'lucida sans unicode', verdana, arial, helvetica, sans-serif;font-size:110%;cursor:pointer;color:#3e576f;font-weight:bold;fill:#3e576f;" text-anchor="start" ><tspan style="fill: #1f77b4;" x="7">los angeles [all  texts; 87K  texts, 644M words]</tspan></text><path d="M 2 0 L 2 0" fill="none" stroke-width="2"  stroke="#1F77B4" transform="translate(7,14)"></path><text x="7" y="36" style="font-family:'open sans', 'lucida sans unicode', verdana, arial, helvetica, sans-serif;font-size:110%;cursor:pointer;color:#3e576f;font-weight:bold;fill:#3e576f;" text-anchor="start" ><tspan style="fill: #ff7f0e;" x="7">chicago [all  texts; 87K  texts, 644M words]</tspan></text><path d="M 2 0 L 2 0" fill="none" stroke-width="2"  stroke="#FF7F0E" transform="translate(7,32)"></path><text x="7" y="54" style="font-family:'open sans', 'lucida sans unicode', verdana, arial, helvetica, sans-serif;font-size:110%;cursor:pointer;color:#3e576f;font-weight:bold;fill:#3e576f;" text-anchor="start" ><tspan style="fill: #2ca02c;" x="7">las vegas [all  texts; 87K  texts, 644M words]</tspan></text><path d="M 2 0 L 2 0" fill="none" stroke-width="2"  stroke="#2CA02C" transform="translate(7,50)"></path><text x="7" y="72" style="font-family:'open sans', 'lucida sans unicode', verdana, arial, helvetica, sans-serif;font-size:110%;cursor:pointer;color:#3e576f;font-weight:bold;fill:#3e576f;" text-anchor="start" ><tspan style="fill: #d62728;" x="7">seattle [all  texts; 87K  texts, 644M words]</tspan></text><path d="M 2 0 L 2 0" fill="none" stroke-width="2"  stroke="#D62728" transform="translate(7,68)"></path><text x="7" y="90" style="font-family:'open sans', 'lucida sans unicode', verdana, arial, helvetica, sans-serif;font-size:110%;cursor:pointer;color:#3e576f;font-weight:bold;fill:#3e576f;" text-anchor="start" ><tspan style="fill: #9467bd;" x="7">boston [all  texts; 87K  texts, 644M words]</tspan></text><path d="M 2 0 L 2 0" fill="none" stroke-width="2"  stroke="#9467BD" transform="translate(7,86)"></path><text x="7" y="108" style="font-family:'open sans', 'lucida sans unicode', verdana, arial, helvetica, sans-serif;font-size:110%;cursor:pointer;color:#3e576f;font-weight:bold;fill:#3e576f;" text-anchor="start" ><tspan style="fill: #8c564b;" x="7">san francisco [all  texts; 87K  texts, 644M words]</tspan></text><path d="M 2 0 L 2 0" fill="none" stroke-width="2"  stroke="#8C564B" transform="translate(7,104)"></path><text x="7" y="126" style="font-family:'open sans', 'lucida sans unicode', verdana, arial, helvetica, sans-serif;font-size:110%;cursor:pointer;color:#3e576f;font-weight:bold;fill:#3e576f;" text-anchor="start" ><tspan style="fill: #e377c2;" x="7">new york [all  texts; 87K  texts, 644M words]</tspan></text><path d="M 2 0 L 2 0" fill="none" stroke-width="2"  stroke="#E377C2" transform="translate(7,122)"></path></g><g class="highcharts-axis" ><text x="206.90075424955006" y="408" style="font-family:'open sans', 'lucida sans unicode', verdana, arial, helvetica, sans-serif;font-size:12;color:#666;line-height:14px;fill:#666;" text-anchor="middle" visibility="visible"><tspan x="206.90075424955006">1940</tspan></text><text x="358.2313465205327" y="408" style="font-family:'open sans', 'lucida sans unicode', verdana, arial, helvetica, sans-serif;font-size:12;color:#666;line-height:14px;fill:#666;" text-anchor="middle" visibility="visible"><tspan x="358.2313465205327">1950</tspan></text><text x="509.52051240436214" y="408" style="font-family:'open sans', 'lucida sans unicode', verdana, arial, helvetica, sans-serif;font-size:12;color:#666;line-height:14px;fill:#666;" text-anchor="middle" visibility="visible"><tspan x="509.52051240436214">1960</tspan></text><text x="660.8511046753448" y="408" style="font-family:'open sans', 'lucida sans unicode', verdana, arial, helvetica, sans-serif;font-size:12;color:#666;line-height:14px;fill:#666;" text-anchor="middle" visibility="visible"><tspan x="660.8511046753448">1970</tspan></text><text x="812.1402705591742" y="408" style="font-family:'open sans', 'lucida sans unicode', verdana, arial, helvetica, sans-serif;font-size:12;color:#666;line-height:14px;fill:#666;" text-anchor="middle" visibility="visible"><tspan x="812.1402705591742">1980</tspan></text><text x="963.4708628301569" y="408" style="font-family:'open sans', 'lucida sans unicode', verdana, arial, helvetica, sans-serif;font-size:12;color:#666;line-height:14px;fill:#666;" text-anchor="middle" visibility="visible"><tspan x="963.4708628301569">1990</tspan></text><text x="1114.7600287139862" y="408" style="font-family:'open sans', 'lucida sans unicode', verdana, arial, helvetica, sans-serif;font-size:12;color:#666;line-height:14px;fill:#666;" text-anchor="middle" visibility="visible"><tspan x="1114.7600287139862">2000</tspan></text><text x="1266.090620984969" y="408" style="font-family:'open sans', 'lucida sans unicode', verdana, arial, helvetica, sans-serif;font-size:12;color:#666;line-height:14px;fill:#666;" text-anchor="middle" visibility="visible"><tspan x="1266.090620984969">2010</tspan></text><text x="131.25617130763536" y="408" style="font-family:'open sans', 'lucida sans unicode', verdana, arial, helvetica, sans-serif;font-size:12;color:#666;line-height:14px;fill:#666;" text-anchor="middle" visibility="visible"><tspan x="131.25617130763536">1935</tspan></text><text x="282.58676357861805" y="408" style="font-family:'open sans', 'lucida sans unicode', verdana, arial, helvetica, sans-serif;font-size:12;color:#666;line-height:14px;fill:#666;" text-anchor="middle" visibility="visible"><tspan x="282.58676357861805">1945</tspan></text><text x="433.8759294624474" y="408" style="font-family:'open sans', 'lucida sans unicode', verdana, arial, helvetica, sans-serif;font-size:12;color:#666;line-height:14px;fill:#666;" text-anchor="middle" visibility="visible"><tspan x="433.8759294624474">1955</tspan></text><text x="585.2065217334301" y="408" style="font-family:'open sans', 'lucida sans unicode', verdana, arial, helvetica, sans-serif;font-size:12;color:#666;line-height:14px;fill:#666;" text-anchor="middle" visibility="visible"><tspan x="585.2065217334301">1965</tspan></text><text x="736.4956876172595" y="408" style="font-family:'open sans', 'lucida sans unicode', verdana, arial, helvetica, sans-serif;font-size:12;color:#666;line-height:14px;fill:#666;" text-anchor="middle" visibility="visible"><tspan x="736.4956876172595">1975</tspan></text><text x="887.8262798882422" y="408" style="font-family:'open sans', 'lucida sans unicode', verdana, arial, helvetica, sans-serif;font-size:12;color:#666;line-height:14px;fill:#666;" text-anchor="middle" visibility="visible"><tspan x="887.8262798882422">1985</tspan></text><text x="1039.1154457720716" y="408" style="font-family:'open sans', 'lucida sans unicode', verdana, arial, helvetica, sans-serif;font-size:12;color:#666;line-height:14px;fill:#666;" text-anchor="middle" visibility="visible"><tspan x="1039.1154457720716">1995</tspan></text><text x="1190.4460380430542" y="408" style="font-family:'open sans', 'lucida sans unicode', verdana, arial, helvetica, sans-serif;font-size:12;color:#666;line-height:14px;fill:#666;" text-anchor="middle" visibility="visible"><tspan x="1190.4460380430542">2005</tspan></text><text x="1338.28125" y="408" style="font-family:'open sans', 'lucida sans unicode', verdana, arial, helvetica, sans-serif;font-size:12;color:#666;line-height:14px;fill:#666;" text-anchor="middle" visibility="visible"><tspan x="1338.28125">2015</tspan></text><path d="M 207.5 394 L 207.5 399" fill="none" stroke="#C0D0E0" stroke-width="1"></path><path d="M 283.5 394 L 283.5 399" fill="none" stroke="#C0D0E0" stroke-width="1"></path><path d="M 358.5 394 L 358.5 399" fill="none" stroke="#C0D0E0" stroke-width="1"></path><path d="M 434.5 394 L 434.5 399" fill="none" stroke="#C0D0E0" stroke-width="1"></path><path d="M 510.5 394 L 510.5 399" fill="none" stroke="#C0D0E0" stroke-width="1"></path><path d="M 585.5 394 L 585.5 399" fill="none" stroke="#C0D0E0" stroke-width="1"></path><path d="M 661.5 394 L 661.5 399" fill="none" stroke="#C0D0E0" stroke-width="1"></path><path d="M 736.5 394 L 736.5 399" fill="none" stroke="#C0D0E0" stroke-width="1"></path><path d="M 812.5 394 L 812.5 399" fill="none" stroke="#C0D0E0" stroke-width="1"></path><path d="M 888.5 394 L 888.5 399" fill="none" stroke="#C0D0E0" stroke-width="1"></path><path d="M 963.5 394 L 963.5 399" fill="none" stroke="#C0D0E0" stroke-width="1"></path><path d="M 1039.5 394 L 1039.5 399" fill="none" stroke="#C0D0E0" stroke-width="1"></path><path d="M 1115.5 394 L 1115.5 399" fill="none" stroke="#C0D0E0" stroke-width="1"></path><path d="M 1190.5 394 L 1190.5 399" fill="none" stroke="#C0D0E0" stroke-width="1"></path><path d="M 1266.5 394 L 1266.5 399" fill="none" stroke="#C0D0E0" stroke-width="1"></path><path d="M 1342.5 394 L 1342.5 399" fill="none" stroke="#C0D0E0" stroke-width="1"></path><path d="M 131.5 394 L 131.5 399" fill="none" stroke="#C0D0E0" stroke-width="1"></path></g><text x="711.5" y="430" style="font-family:'open sans', 'lucida sans unicode', verdana, arial, helvetica, sans-serif;font-size:14;color:#000000;font-weight:normal;fill:#000000;"  text-anchor="middle" visibility="visible"><tspan x="711.5">year</tspan></text><g class="highcharts-axis" ><text x="63" y="398.1" style="font-family:'open sans', 'lucida sans unicode', verdana, arial, helvetica, sans-serif;font-size:12;width:614px;color:#666;line-height:14px;fill:#666;" text-anchor="end" visibility="visible"><tspan x="63">0%</tspan></text><text x="63" y="323.3" style="font-family:'open sans', 'lucida sans unicode', verdana, arial, helvetica, sans-serif;font-size:12;width:614px;color:#666;line-height:14px;fill:#666;" text-anchor="end" visibility="visible"><tspan x="63">10%</tspan></text><text x="63" y="248.49999999999997" style="font-family:'open sans', 'lucida sans unicode', verdana, arial, helvetica, sans-serif;font-size:12;width:614px;color:#666;line-height:14px;fill:#666;" text-anchor="end" visibility="visible"><tspan x="63">20%</tspan></text><text x="63" y="173.7" style="font-family:'open sans', 'lucida sans unicode', verdana, arial, helvetica, sans-serif;font-size:12;width:614px;color:#666;line-height:14px;fill:#666;" text-anchor="end" visibility="visible"><tspan x="63">30%</tspan></text><text x="63" y="98.89999999999995" style="font-family:'open sans', 'lucida sans unicode', verdana, arial, helvetica, sans-serif;font-size:12;width:614px;color:#666;line-height:14px;fill:#666;" text-anchor="end" visibility="visible"><tspan x="63">40%</tspan></text><text x="63" y="24.1" style="font-family:'open sans', 'lucida sans unicode', verdana, arial, helvetica, sans-serif;font-size:12;width:614px;color:#666;line-height:14px;fill:#666;" text-anchor="end" visibility="visible"><tspan x="63">50%</tspan></text></g><text x="29.40625" y="207" style="font-family:'open sans', 'lucida sans unicode', verdana, arial, helvetica, sans-serif;font-size:14;color:#000000;font-weight:normal;fill:#000000;"  transform="rotate(270 29.40625 207)" text-anchor="middle" visibility="visible"><tspan x="29.40625">% of Texts</tspan></text><path d="M 71 394.5 L 1352 394.5" fill="none" stroke="#555555" stroke-width="1"  visibility="visible"></path><path d="M 71.5 20 L 71.5 394" fill="none" stroke="#555555" stroke-width="1"  visibility="visible"></path><g  style="padding:0;white-space:nowrap;" visibility="hidden"><rect rx="5" ry="5" fill="none" x="0" y="0" width="0" height="0" stroke-width="5" fill-opacity="0.85" anchorX="0" anchorY="0"  stroke="rgb(0, 0, 0)" stroke-opacity="0.05" transform="translate(1,1)"></rect><rect rx="5" ry="5" fill="none" x="0" y="0" width="0" height="0" stroke-width="3" fill-opacity="0.85" anchorX="0" anchorY="0"  stroke="rgb(0, 0, 0)" stroke-opacity="0.1" transform="translate(1,1)"></rect><rect rx="5" ry="5" fill="none" x="0" y="0" width="0" height="0" stroke-width="1" fill-opacity="0.85" anchorX="0" anchorY="0"  stroke="rgb(0, 0, 0)" stroke-opacity="0.15000000000000002" transform="translate(1,1)"></rect><rect rx="5" ry="5" fill="rgb(255,255,255)" x="0" y="0" width="0" height="0" stroke-width="2" fill-opacity="0.85" anchorX="0" anchorY="0"></rect><text x="0" y="13" style="font-family:'open sans', 'lucida sans unicode', verdana, arial, helvetica, sans-serif;font-size:12px;color:#333333;fill:#333333;" ></text></g><text x="1352" y="445" style="font-family:'open sans', 'lucida sans unicode', verdana, arial, helvetica, sans-serif;font-size:10px;cursor:pointer;color:#909090;fill:#909090;" text-anchor="end" ></text><g class="highcharts-tracker" ><g  transform="translate(71,20)" clip-path="url(#highcharts-13)"><path d="M 2.5999999999999996 357.4 L 12.6 357.4 L 27.7 365.3 L 42.8 346 L 58 358.6 L 73.1 361.9 L 88.2 336.9 L 103.4 352.6 L 118.5 347.6 L 133.6 366.7 L 148.8 312.9 L 163.9 339.7 L 179 322.2 L 194.1 337 L 209.3 352.6 L 224.4 335.8 L 239.5 324.1 L 254.7 353 L 269.8 335.6 L 284.9 299.8 L 300.1 318.6 L 315.2 351.5 L 330.3 347.5 L 345.5 320.2 L 360.6 324.8 L 375.7 351.9 L 390.9 345.5 L 406 348 L 421.1 294.8 L 436.2 332.4 L 451.4 346.5 L 466.5 363.4 L 481.6 358.7 L 496.8 327.9 L 511.9 351.7 L 527 354 L 542.2 358.1 L 557.3 351.9 L 572.4 361.3 L 587.6 356.8 L 602.7 348.7 L 617.8 341.7 L 633 349.4 L 648.1 348.1 L 663.2 337.1 L 678.3 332 L 693.5 335.7 L 708.6 324 L 723.7 318.4 L 738.8 352.9 L 754 332.4 L 769.1 347.4 L 784.2 341.3 L 799.4 308.2 L 814.5 305.3 L 829.7 318.4 L 844.8 327.7 L 859.9 322.9 L 875.1 321.5 L 890.2 322.6 L 905.3 325.1 L 920.4 326.5 L 935.6 342.2 L 950.7 348 L 965.8 340 L 980.9 329.3 L 996.1 330.7 L 1011.2 333.5 L 1026.3 339.7 L 1041.5 344 L 1056.6 353.3 L 1071.7 347.4 L 1086.9 340 L 1102 342.2 L 1117.2 345 L 1132.3 341.4 L 1147.4 328.8 L 1162.5 335.6 L 1177.7 336.3 L 1192.8 337.8 L 1207.9 339.1 L 1223 342.8 L 1238.2 347 L 1253.3 339.6 L 1268.4 338.4 L 1278.4 338.4" fill="none"  stroke-opacity="0.000001" stroke="rgb(192,192,192)" stroke-linejoin="bevel" stroke-width="22" visibility="visible" style="cursor:pointer;"></path></g><g  transform="translate(71,20)" clip-path="url(#highcharts-13)"><path d="M 2.5999999999999996 340.8 L 12.6 340.8 L 27.7 313.1 L 42.8 297.1 L 58 304.6 L 73.1 325.7 L 88.2 287.5 L 103.4 338.4 L 118.5 312.4 L 133.6 286 L 148.8 267.1 L 163.9 264.2 L 179 285.1 L 194.1 307.3 L 209.3 309.9 L 224.4 282.4 L 239.5 309.9 L 254.7 304.1 L 269.8 271.7 L 284.9 306 L 300.1 285.3 L 315.2 289.6 L 330.3 283.8 L 345.5 305.6 L 360.6 295.3 L 375.7 296.6 L 390.9 317 L 406 305.7 L 421.1 315.3 L 436.2 332.4 L 451.4 343.8 L 466.5 317.3 L 481.6 325.2 L 496.8 341.5 L 511.9 338.6 L 527 343.2 L 542.2 344.9 L 557.3 349.3 L 572.4 339.1 L 587.6 353.9 L 602.7 330.1 L 617.8 347.1 L 633 340 L 648.1 335.1 L 663.2 329.1 L 678.3 323.2 L 693.5 324.3 L 708.6 343.7 L 723.7 339.6 L 738.8 328.5 L 754 316.6 L 769.1 334 L 784.2 318.4 L 799.4 325.1 L 814.5 333 L 829.7 318.4 L 844.8 321.2 L 859.9 330.7 L 875.1 308.4 L 890.2 323.7 L 905.3 341 L 920.4 319.7 L 935.6 322.1 L 950.7 339.6 L 965.8 329.1 L 980.9 321.5 L 996.1 327.9 L 1011.2 326.8 L 1026.3 324.1 L 1041.5 341.4 L 1056.6 339 L 1071.7 338 L 1086.9 341.5 L 1102 342.2 L 1117.2 345.5 L 1132.3 340.8 L 1147.4 339.3 L 1162.5 339.4 L 1177.7 339.9 L 1192.8 340.4 L 1207.9 338.5 L 1223 333.8 L 1238.2 330.2 L 1253.3 324.2 L 1268.4 332.9 L 1278.4 332.9" fill="none"  stroke-opacity="0.000001" stroke="rgb(192,192,192)" stroke-linejoin="bevel" stroke-width="22" visibility="visible" style="cursor:pointer;"></path></g><g  transform="translate(71,20)" clip-path="url(#highcharts-13)"><path d="M 2.5999999999999996 374 L 12.6 374 L 27.7 374 L 42.8 367 L 58 374 L 73.1 368 L 88.2 374 L 103.4 374 L 118.5 374 L 133.6 374 L 148.8 366.4 L 163.9 353.4 L 179 374 L 194.1 374 L 209.3 374 L 224.4 366.4 L 239.5 366.9 L 254.7 360 L 269.8 374 L 284.9 343.1 L 300.1 335.2 L 315.2 357.1 L 330.3 368.7 L 345.5 369.1 L 360.6 369.1 L 375.7 359.3 L 390.9 356.2 L 406 361 L 421.1 353.5 L 436.2 361.2 L 451.4 357.5 L 466.5 374 L 481.6 361.8 L 496.8 365.9 L 511.9 362.8 L 527 366.3 L 542.2 371.4 L 557.3 368.8 L 572.4 370.8 L 587.6 366.8 L 602.7 368.9 L 617.8 361.4 L 633 370.2 L 648.1 359.4 L 663.2 359.6 L 678.3 365.2 L 693.5 360.6 L 708.6 357.9 L 723.7 357.6 L 738.8 362.6 L 754 366.1 L 769.1 370.2 L 784.2 356 L 799.4 357.2 L 814.5 350.2 L 829.7 350.7 L 844.8 366.3 L 859.9 355.1 L 875.1 362.1 L 890.2 363.7 L 905.3 352.7 L 920.4 362.4 L 935.6 364.9 L 950.7 361.8 L 965.8 365.7 L 980.9 355.9 L 996.1 365 L 1011.2 358.1 L 1026.3 362.4 L 1041.5 359.9 L 1056.6 364.5 L 1071.7 357.5 L 1086.9 357 L 1102 355.2 L 1117.2 351.9 L 1132.3 356.1 L 1147.4 352.7 L 1162.5 357.9 L 1177.7 357 L 1192.8 357.9 L 1207.9 361.2 L 1223 361.2 L 1238.2 359.3 L 1253.3 361.8 L 1268.4 360.3 L 1278.4 360.3" fill="none"  stroke-opacity="0.000001" stroke="rgb(192,192,192)" stroke-linejoin="bevel" stroke-width="22" visibility="visible" style="cursor:pointer;"></path></g><g  transform="translate(71,20)" clip-path="url(#highcharts-13)"><path d="M 2.5999999999999996 374 L 12.6 374 L 27.7 374 L 42.8 360 L 58 374 L 73.1 368 L 88.2 361.6 L 103.4 366.9 L 118.5 374 L 133.6 374 L 148.8 366.4 L 163.9 374 L 179 359.2 L 194.1 359.2 L 209.3 359.8 L 224.4 374 L 239.5 352.6 L 254.7 374 L 269.8 367.6 L 284.9 349.3 L 300.1 357.4 L 315.2 368.4 L 330.3 363.4 L 345.5 344.7 L 360.6 369.1 L 375.7 362.9 L 390.9 366.9 L 406 361 L 421.1 362.3 L 436.2 364.4 L 451.4 368.5 L 466.5 370.5 L 481.6 367.9 L 496.8 363.2 L 511.9 368.4 L 527 370.9 L 542.2 370 L 557.3 371.4 L 572.4 372.4 L 587.6 372.6 L 602.7 370.6 L 617.8 370.4 L 633 372.1 L 648.1 364.3 L 663.2 367.6 L 678.3 374 L 693.5 362.5 L 708.6 365.1 L 723.7 365.8 L 738.8 367.5 L 754 368.1 L 769.1 372.1 L 784.2 359.3 L 799.4 364.8 L 814.5 363.4 L 829.7 365.1 L 844.8 367.6 L 859.9 362.9 L 875.1 365.6 L 890.2 364.8 L 905.3 359.1 L 920.4 354.6 L 935.6 364.9 L 950.7 353.4 L 965.8 346.4 L 980.9 351.7 L 996.1 354.3 L 1011.2 353.5 L 1026.3 355.4 L 1041.5 351.9 L 1056.6 356.1 L 1071.7 353.5 L 1086.9 347.3 L 1102 356 L 1117.2 362.5 L 1132.3 357 L 1147.4 354.8 L 1162.5 357.4 L 1177.7 362.5 L 1192.8 357.2 L 1207.9 360.1 L 1223 360 L 1238.2 357.7 L 1253.3 359.2 L 1268.4 358.9 L 1278.4 358.9" fill="none"  stroke-opacity="0.000001" stroke="rgb(192,192,192)" stroke-linejoin="bevel" stroke-width="22" visibility="visible" style="cursor:pointer;"></path></g><g  transform="translate(71,20)" clip-path="url(#highcharts-13)"><path d="M 2.5999999999999996 374 L 12.6 374 L 27.7 365.3 L 42.8 367 L 58 358.6 L 73.1 349.9 L 88.2 336.9 L 103.4 324.1 L 118.5 347.6 L 133.6 337.3 L 148.8 320.6 L 163.9 360.3 L 179 292.5 L 194.1 351.8 L 209.3 331.3 L 224.4 328.2 L 239.5 331.3 L 254.7 325.1 L 269.8 290.9 L 284.9 330.7 L 300.1 324.1 L 315.2 329 L 330.3 342.2 L 345.5 320.2 L 360.6 339.6 L 375.7 344.5 L 390.9 345.5 L 406 338.2 L 421.1 344.7 L 436.2 348.4 L 451.4 360.3 L 466.5 356.3 L 481.6 355.7 L 496.8 352.3 L 511.9 348 L 527 354 L 542.2 360.8 L 557.3 354.5 L 572.4 358.2 L 587.6 362.5 L 602.7 352 L 617.8 352.5 L 633 362.7 L 648.1 354.6 L 663.2 353.1 L 678.3 360 L 693.5 353 L 708.6 345.4 L 723.7 342.9 L 738.8 335 L 754 348.3 L 769.1 353.1 L 784.2 346.2 L 799.4 335.8 L 814.5 344.9 L 829.7 335.1 L 844.8 327.7 L 859.9 334 L 875.1 350.1 L 890.2 329.8 L 905.3 340 L 920.4 355.6 L 935.6 344 L 950.7 354.9 L 965.8 350.2 L 980.9 355.9 L 996.1 349.3 L 1011.2 353.5 L 1026.3 341.3 L 1041.5 340.5 L 1056.6 358.1 L 1071.7 346.4 L 1086.9 339.7 L 1102 353.7 L 1117.2 348.7 L 1132.3 351.5 L 1147.4 348.4 L 1162.5 347.1 L 1177.7 348.9 L 1192.8 352.3 L 1207.9 348.5 L 1223 345.6 L 1238.2 349 L 1253.3 345.9 L 1268.4 341.1 L 1278.4 341.1" fill="none"  stroke-opacity="0.000001" stroke="rgb(192,192,192)" stroke-linejoin="bevel" stroke-width="22" visibility="visible" style="cursor:pointer;"></path></g><g  transform="translate(71,20)" clip-path="url(#highcharts-13)"><path d="M 2.5999999999999996 332.4 L 12.6 332.4 L 27.7 330.5 L 42.8 346 L 58 335.4 L 73.1 337.8 L 88.2 312.2 L 103.4 331.3 L 118.5 338.8 L 133.6 337.3 L 148.8 312.9 L 163.9 332.8 L 179 270.3 L 194.1 285.1 L 209.3 324.1 L 224.4 320.6 L 239.5 260 L 254.7 311.1 L 269.8 354.8 L 284.9 306 L 300.1 307.5 L 315.2 329 L 330.3 305 L 345.5 344.7 L 360.6 339.6 L 375.7 322.4 L 390.9 334.8 L 406 328.5 L 421.1 318.3 L 436.2 310.1 L 451.4 332.8 L 466.5 356.3 L 481.6 334.3 L 496.8 338.8 L 511.9 342.4 L 527 338.6 L 542.2 338.3 L 557.3 350.6 L 572.4 351.8 L 587.6 355.4 L 602.7 347 L 617.8 339.9 L 633 347.6 L 648.1 336.8 L 663.2 332.3 L 678.3 333.7 L 693.5 345.3 L 708.6 350.8 L 723.7 324.9 L 738.8 352.9 L 754 344.3 L 769.1 351.2 L 784.2 351.1 L 799.4 354.1 L 814.5 355.5 L 829.7 354 L 844.8 356 L 859.9 351.8 L 875.1 346.6 L 890.2 347.3 L 905.3 347.4 L 920.4 351.7 L 935.6 346.7 L 950.7 357.2 L 965.8 354.7 L 980.9 344.4 L 996.1 333 L 1011.2 346.8 L 1026.3 353.3 L 1041.5 349.3 L 1056.6 356.9 L 1071.7 357.9 L 1086.9 353.9 L 1102 357.7 L 1117.2 356.8 L 1132.3 354 L 1147.4 353.3 L 1162.5 351.5 L 1177.7 353.3 L 1192.8 354.9 L 1207.9 352.9 L 1223 358.2 L 1238.2 357.8 L 1253.3 356.2 L 1268.4 354.8 L 1278.4 354.8" fill="none"  stroke-opacity="0.000001" stroke="rgb(192,192,192)" stroke-linejoin="bevel" stroke-width="22" visibility="visible" style="cursor:pointer;"></path></g><g  transform="translate(71,20)" clip-path="url(#highcharts-13)"><path d="M 2.5999999999999996 249.3 L 12.6 249.3 L 27.7 234.8 L 42.8 129.3 L 58 165.8 L 73.1 229.2 L 88.2 176.2 L 103.4 195.9 L 118.5 171.6 L 133.6 168.7 L 148.8 99.2 L 163.9 127 L 179 77.8 L 194.1 233.3 L 209.3 188.8 L 224.4 175.6 L 239.5 217.3 L 254.7 108.4 L 269.8 227 L 284.9 170 L 300.1 146.8 L 315.2 188.4 L 330.3 183 L 345.5 232.2 L 360.6 221.4 L 375.7 237.7 L 390.9 249.3 L 406 243.9 L 421.1 268.4 L 436.2 236.5 L 451.4 283.3 L 466.5 249.9 L 481.6 248.8 L 496.8 260.2 L 511.9 312.6 L 527 303.2 L 542.2 311.9 L 557.3 294.8 L 572.4 305.9 L 587.6 299.5 L 602.7 284.5 L 617.8 261 L 633 277.7 L 648.1 263.9 L 663.2 276.1 L 678.3 281.2 L 693.5 249.7 L 708.6 272.2 L 723.7 277.4 L 738.8 282.9 L 754 255.3 L 769.1 259.8 L 784.2 256.2 L 799.4 289.9 L 814.5 260.3 L 829.7 256.2 L 844.8 246.5 L 859.9 267.3 L 875.1 224.9 L 890.2 235.3 L 905.3 242.1 L 920.4 254.8 L 935.6 263.9 L 950.7 247.2 L 965.8 281.5 L 980.9 278 L 996.1 267.2 L 1011.2 276.1 L 1026.3 257.1 L 1041.5 270.8 L 1056.6 256.4 L 1071.7 264.1 L 1086.9 247 L 1102 264.3 L 1117.2 251.5 L 1132.3 255.4 L 1147.4 255.8 L 1162.5 248.4 L 1177.7 257.6 L 1192.8 252.4 L 1207.9 251.5 L 1223 256.7 L 1238.2 235.4 L 1253.3 231.8 L 1268.4 241.1 L 1278.4 241.1" fill="none"  stroke-opacity="0.000001" stroke="rgb(192,192,192)" stroke-linejoin="bevel" stroke-width="22" visibility="visible" style="cursor:pointer;"></path></g></g></svg>